<svg xmlns="http://www.w3.org/2000/svg" viewBox="0 0 1080 1080"><defs><style>.cls-1{fill:#4a8e72;}.cls-2{fill:#24654e;}</style></defs><title>sampah</title><g id="Layer_2" data-name="Layer 2"><path class="cls-1" d="M815.91,221.3l-36.36-16.81-59-27.27-56.08-25.94-48.69-22.5L599,121.05,540,93.78,481,121.05l-16.69,7.73-48.69,22.5-56.11,25.94-59,27.27L264.09,221.3,48.46,321V487.85l215.63-99.67,151.48-70,48.69-22.51v615.6L540,986.15l.06.07,75.68-74.85V295.68l48.69,22.51,151.48,70,215.63,99.67V321ZM415.57,205.85v-2.69l2.94,1.36Zm248.86,0-2.94-1.36,2.94-1.36Z"/><path class="cls-2" d="M391.11,409.46V955.18q-75.72-83.34-151.48-166.72V487.39Z"/><path class="cls-2" d="M859.11,487.32V788.56Q783.38,871.9,707.63,955.25V409.39Z"/></g></svg>