<svg width="16" height="16" viewBox="0 0 16 16" fill="none" xmlns="http://www.w3.org/2000/svg">
<g id="Icons/cancel_24px">
<path id="icon" fill-rule="evenodd" clip-rule="evenodd" d="M8.00016 1.33334C4.3135 1.33334 1.3335 4.31334 1.3335 8.00001C1.3335 11.6867 4.3135 14.6667 8.00016 14.6667C11.6868 14.6667 14.6668 11.6867 14.6668 8.00001C14.6668 4.31334 11.6868 1.33334 8.00016 1.33334ZM8.00016 13.3333C5.06016 13.3333 2.66683 10.94 2.66683 8.00001C2.66683 5.06001 5.06016 2.66668 8.00016 2.66668C10.9402 2.66668 13.3335 5.06001 13.3335 8.00001C13.3335 10.94 10.9402 13.3333 8.00016 13.3333ZM8.00016 7.06001L10.3935 4.66668L11.3335 5.60668L8.94016 8.00001L11.3335 10.3933L10.3935 11.3333L8.00016 8.94001L5.60683 11.3333L4.66683 10.3933L7.06016 8.00001L4.66683 5.60668L5.60683 4.66668L8.00016 7.06001Z" fill="black"/>
</g>
</svg>
