<svg width="40" height="40" viewBox="0 0 40 40" fill="none" xmlns="http://www.w3.org/2000/svg">
<g id="shopping_cart">
<mask id="mask0_80_1830" style="mask-type:alpha" maskUnits="userSpaceOnUse" x="0" y="0" width="40" height="40">
<rect id="Bounding box" width="40" height="40" fill="#D9D9D9"/>
</mask>
<g mask="url(#mask0_80_1830)">
<path id="shopping_cart_2" d="M11.6666 36.6666C10.75 36.6666 9.96524 36.3402 9.31246 35.6874C8.65968 35.0346 8.33329 34.2499 8.33329 33.3333C8.33329 32.4166 8.65968 31.6319 9.31246 30.9791C9.96524 30.3263 10.75 29.9999 11.6666 29.9999C12.5833 29.9999 13.368 30.3263 14.0208 30.9791C14.6736 31.6319 15 32.4166 15 33.3333C15 34.2499 14.6736 35.0346 14.0208 35.6874C13.368 36.3402 12.5833 36.6666 11.6666 36.6666ZM28.3333 36.6666C27.4166 36.6666 26.6319 36.3402 25.9791 35.6874C25.3263 35.0346 25 34.2499 25 33.3333C25 32.4166 25.3263 31.6319 25.9791 30.9791C26.6319 30.3263 27.4166 29.9999 28.3333 29.9999C29.25 29.9999 30.0347 30.3263 30.6875 30.9791C31.3402 31.6319 31.6666 32.4166 31.6666 33.3333C31.6666 34.2499 31.3402 35.0346 30.6875 35.6874C30.0347 36.3402 29.25 36.6666 28.3333 36.6666ZM8.66663 6.66659H33.25C33.8888 6.66659 34.375 6.95131 34.7083 7.52075C35.0416 8.0902 35.0555 8.66659 34.75 9.24992L28.8333 19.9166C28.5277 20.4721 28.118 20.9027 27.6041 21.2083C27.0902 21.5138 26.5277 21.6666 25.9166 21.6666H13.5L11.6666 24.9999H31.6666V28.3333H11.6666C10.4166 28.3333 9.47218 27.7846 8.83329 26.6874C8.1944 25.5902 8.16663 24.4999 8.74996 23.4166L11 19.3333L4.99996 6.66659H1.66663V3.33325H7.08329L8.66663 6.66659Z" fill="#455A64"/>
</g>
</g>
</svg>
