<svg width="20" height="20" viewBox="0 0 20 20" fill="none" xmlns="http://www.w3.org/2000/svg">
<g id="ph:coins-light">
<path id="Vector" d="M17.5438 8.11016C16.6742 7.63672 15.5055 7.29609 14.2188 7.13594V6.5625C14.2188 5.61562 13.4703 4.75781 12.1094 4.14609C10.8719 3.58828 9.23438 3.28125 7.5 3.28125C5.76562 3.28125 4.12812 3.58828 2.89062 4.14609C1.52969 4.75781 0.78125 5.61562 0.78125 6.5625V9.6875C0.78125 10.6344 1.52969 11.4922 2.89062 12.1039C3.71016 12.4727 4.70391 12.7289 5.78125 12.8641V13.4375C5.78125 14.3844 6.52969 15.2422 7.89062 15.8539C9.12813 16.4117 10.7656 16.7188 12.5 16.7188C14.2344 16.7188 15.8719 16.4117 17.1094 15.8539C18.468 15.2422 19.2188 14.3844 19.2188 13.4375V10.3125C19.2188 9.48047 18.6242 8.69844 17.5438 8.11016ZM17.0953 8.93359C17.8602 9.35 18.2812 9.84375 18.2812 10.3125C18.2812 11.4211 15.907 12.6562 12.5 12.6562C11.946 12.6566 11.3925 12.6216 10.843 12.5516C11.2761 12.4354 11.6995 12.2857 12.1094 12.1039C13.468 11.4922 14.2188 10.6344 14.2188 9.6875V8.08047C15.3438 8.23125 16.3516 8.52812 17.0953 8.93359ZM8.45 11.9984C8.14375 12.0195 7.825 12.0312 7.5 12.0312C7.08594 12.0312 6.6875 12.0125 6.30625 11.9789C6.29663 11.9781 6.28696 11.9781 6.27734 11.9789C5.99766 11.9531 5.73047 11.9187 5.46875 11.8773V9.69688C6.14133 9.79541 6.82024 9.8445 7.5 9.84375C8.17976 9.8445 8.85867 9.79541 9.53125 9.69688V11.875C9.19219 11.9289 8.83516 11.9703 8.46172 11.9969L8.45 11.9984ZM13.2812 8.27266V9.6875C13.2812 10.4328 12.207 11.2344 10.4688 11.6805V9.51953C11.0317 9.39244 11.5811 9.21139 12.1094 8.97891C12.5296 8.79643 12.9236 8.55893 13.2812 8.27266ZM7.5 4.21875C10.907 4.21875 13.2812 5.45391 13.2812 6.5625C13.2812 7.67109 10.907 8.90625 7.5 8.90625C4.09297 8.90625 1.71875 7.67109 1.71875 6.5625C1.71875 5.45391 4.09297 4.21875 7.5 4.21875ZM1.71875 9.6875V8.27266C2.07655 8.55784 2.47062 8.79428 2.89062 8.97578C3.41887 9.20827 3.96828 9.38931 4.53125 9.51641V11.6773C2.79297 11.2344 1.71875 10.4328 1.71875 9.6875ZM6.71875 13.4375V12.9469C6.97656 12.9609 7.23672 12.9688 7.5 12.9688C7.80781 12.9688 8.11146 12.9591 8.41094 12.9398C8.77737 13.0721 9.1515 13.1819 9.53125 13.2687V15.4305C7.79297 14.9844 6.71875 14.1828 6.71875 13.4375ZM10.4688 15.625V13.4453C11.1413 13.5444 11.8202 13.594 12.5 13.5938C13.1798 13.5945 13.8587 13.5454 14.5312 13.4469V15.625C13.1851 15.8333 11.8149 15.8333 10.4688 15.625ZM15.4688 15.4305V13.2695C16.0317 13.1424 16.5811 12.9614 17.1094 12.7289C17.5294 12.5474 17.9234 12.311 18.2812 12.0258V13.4375C18.2812 14.1828 17.207 14.9844 15.4688 15.4305Z" fill="#C9A114"/>
</g>
</svg>
