<?xml version="1.0" encoding="utf-8"?>
<!-- Generator: Adobe Illustrator 24.2.3, SVG Export Plug-In . SVG Version: 6.00 Build 0)  -->
<svg version="1.1" id="Layer_1" xmlns="http://www.w3.org/2000/svg" xmlns:xlink="http://www.w3.org/1999/xlink" x="0px" y="0px"
	 viewBox="0 0 720 500" style="enable-background:new 0 0 720 500;" xml:space="preserve">
<style type="text/css">
	.st0{fill:#EBEBEB;}
	.st1{fill:#E0E0E0;}
	.st2{fill:#FFFFFF;}
	.st3{fill:#FAFAFA;}
	.st4{fill:#F5F5F5;}
	.st5{fill:#263238;}
	.st6{fill:#455A64;}
	.st7{fill:#4A8F73;}
	.st8{opacity:0.3;}
	.st9{opacity:0.6;}
	.st10{fill:#AE7461;}
	.st11{fill:#6F4439;}
	.st12{fill:#F6AE21;}
	.st13{fill:#FFB534;}
	.st14{fill:#FFBF9D;}
	.st15{fill:#FF9A6C;}
</style>
<path class="st0" d="M382,425.7c1.1,0.5,2,1.2,2.8,2.1c0.8,0.9,1.4,1.9,1.7,3c0.7,2.2,0.9,4.6,0.6,6.9c-0.5,4.5-3,9-5.8,12.6
	c-3.8-3.3-4.6-9-4.9-12C376,433.7,378.1,425,382,425.7"/>
<path class="st0" d="M385.7,457.7c-0.2-1.3-0.2-2.6,0.3-3.8c0.4-1.2,1.2-2.3,2.1-3.2c1-0.8,2.2-1.5,3.4-1.9c1.2-0.4,2.6-0.5,3.9-0.4
	c0.6,0,1.2,0.1,1.7,0.4c0.5,0.2,1,0.6,1.4,1.1c0.3,0.5,0.5,1,0.5,1.6s-0.1,1.1-0.4,1.6c-0.6,1-1.4,1.8-2.4,2.3
	C392.9,457.5,389.4,458.9,385.7,457.7"/>
<path class="st1" d="M380.8,471.4c0-0.3,0.1-0.6,0.1-0.9c0.1-0.7,0.3-1.5,0.5-2.5c0.4-2.8,1.3-5.4,2.6-7.9c1.3-2.5,3.3-4.6,5.7-6.1
	c0.7-0.4,1.5-0.8,2.3-1c0.3-0.1,0.5-0.1,0.7-0.2c0.1,0,0.2,0,0.2,0c-1.1,0.4-2.1,0.8-3.1,1.4c-2.3,1.5-4.2,3.6-5.5,6
	c-1.3,2.5-2.1,5.1-2.6,7.8c-0.2,1-0.4,1.9-0.6,2.5C381,470.9,380.9,471.1,380.8,471.4z"/>
<path class="st1" d="M381,432.5c0,0.1,0,0.3,0,0.4l0.1,1.2c0,1,0.1,2.5,0.2,4.3c0.1,3.6,0.2,8.5,0.2,14c0,5.5-0.2,10.4-0.3,14
	c-0.1,1.8-0.1,3.3-0.2,4.3c0,0.5-0.1,0.9-0.1,1.2c0,0.1,0,0.3,0,0.4c0-0.1,0-0.3,0-0.4c0-0.3,0-0.7,0-1.2c0-1,0.1-2.5,0.1-4.3
	c0.1-3.6,0.2-8.5,0.2-14c0-5.5,0-10.4-0.1-14c0-1.8,0-3.2-0.1-4.3c0-0.5,0-0.9,0-1.2C380.9,432.7,381,432.6,381,432.5z"/>
<path class="st0" d="M379.1,460.4c-0.5-2.7-1.6-5.3-3.2-7.5c-1.6-2.2-3.8-4-6.3-5.2c-1.3-0.6-2.9-1-3.9-0.1s-0.8,2.6-0.3,3.9
	c1.1,2.7,3,5,5.4,6.7c2.4,1.6,5.3,2.5,8.2,2.5"/>
<path class="st1" d="M370.3,452c0.3,0.1,0.5,0.2,0.8,0.4c0.3,0.1,0.6,0.3,0.9,0.5c0.4,0.2,0.8,0.5,1.1,0.7c0.5,0.3,0.9,0.6,1.3,1
	c0.5,0.4,1,0.8,1.4,1.3c1,1,1.9,2.2,2.7,3.4c0.7,1.3,1.3,2.6,1.8,4c0.2,0.6,0.3,1.2,0.4,1.8c0.1,0.5,0.2,1.1,0.2,1.6
	c0.1,0.5,0,1,0.1,1.4c0,0.3,0,0.7,0,1c0,0.3,0,0.6-0.1,0.9c-0.1,0,0.1-1.2-0.2-3.2c-0.1-0.5-0.2-1.1-0.3-1.6
	c-0.1-0.6-0.3-1.2-0.5-1.8c-0.4-1.4-1-2.7-1.8-3.9c-0.7-1.2-1.6-2.4-2.6-3.4c-0.4-0.4-0.9-0.9-1.4-1.3c-0.4-0.4-0.8-0.7-1.3-1
	C371.4,452.6,370.3,452,370.3,452z"/>
<path class="st1" d="M661.2,243.5c0,0.1-132.8,0.3-296.6,0.3s-296.7-0.1-296.7-0.3s132.8-0.3,296.7-0.3S661.2,243.3,661.2,243.5z"/>
<path class="st1" d="M57.1,197.1H9.3v46.4h47.8V197.1z"/>
<path class="st2" d="M40,221.5c-0.5-1-0.7-2.1-0.8-3.3c0.2-0.8,0.4-1.6,0.7-2.4c0.1-0.7,0-1.4-0.2-2.1s-0.6-1.3-1-1.8
	c-0.9-1.1-1.6-2-1.5-3.2h-2.9c0.1,1.2-0.7,2.1-1.5,3.2c-0.5,0.5-0.8,1.1-1,1.8c-0.2,0.7-0.3,1.4-0.2,2.1c0.3,0.8,0.5,1.6,0.7,2.4
	c0,1.1-0.3,2.2-0.8,3.3c-0.2,0.5-0.3,1.1-0.3,1.6v9.8c0.1,0.4,0.3,0.7,0.6,1c0.3,0.2,0.7,0.4,1.1,0.3h5.7c0.4,0,0.8-0.1,1.1-0.3
	c0.3-0.2,0.5-0.6,0.6-1v-9.8C40.2,222.6,40.2,222,40,221.5z"/>
<path class="st1" d="M36.9,206.8h-2.4c-0.4,0-0.7,0.3-0.7,0.7v0.8c0,0.4,0.3,0.7,0.7,0.7h2.4c0.4,0,0.7-0.3,0.7-0.7v-0.8
	C37.5,207.1,37.2,206.8,36.9,206.8z"/>
<path class="st1" d="M37.7,208.9h-3.9v0.3h3.9V208.9z"/>
<path class="st1" d="M39.2,218c-1.2,0.3-2.4,0.3-3.5,0.3c-1.2,0.1-2.4,0-3.5-0.3c1.2-0.3,2.4-0.3,3.5-0.3
	C36.8,217.7,38,217.7,39.2,218z"/>
<path class="st1" d="M39.2,219.4c-1.2,0.3-2.4,0.3-3.5,0.3c-1.2,0.1-2.4,0-3.5-0.3c1.2-0.3,2.4-0.3,3.5-0.3
	C36.8,219.1,38,219.2,39.2,219.4z"/>
<path class="st3" d="M40.2,224.2h-9v6.7h9V224.2z"/>
<path class="st0" d="M37.6,208.9c0,0.1-0.9,0.3-1.9,0.3s-1.9-0.1-1.9-0.3c0-0.2,0.9-0.3,1.9-0.3S37.6,208.7,37.6,208.9z"/>
<path class="st0" d="M34.5,208.8c-0.1,0-0.3-0.5-0.3-1c0-0.6,0.1-1,0.3-1c0.2,0,0.3,0.4,0.3,1C34.8,208.4,34.7,208.8,34.5,208.8z"/>
<path class="st0" d="M35.7,208.8c-0.1,0-0.3-0.5-0.3-1c0-0.6,0.1-1,0.3-1c0.1,0,0.3,0.4,0.3,1C35.9,208.4,35.8,208.8,35.7,208.8z"/>
<path class="st0" d="M36.8,208.8c-0.1,0-0.3-0.5-0.3-1c0-0.6,0.1-1,0.3-1s0.3,0.4,0.3,1C37.1,208.4,37,208.8,36.8,208.8z"/>
<path class="st0" d="M120.3,178.7H53.6v64.8h66.7V178.7z"/>
<path class="st2" d="M96.4,212.8c-0.7-1.4-1.1-3-1.1-4.6c0-0.9,0.6-1.7,1-3.3s-0.5-4-1.7-5.4c-1.2-1.4-2.2-2.8-2.1-4.4h-4
	c0.1,1.6-0.9,2.9-2.1,4.4c-1.2,1.5-2.2,3.9-1.7,5.4c0.4,1.1,0.8,2.2,1,3.3c0.1,1.9-0.7,3.3-1.1,4.6c-0.2,0.7-0.4,1.5-0.4,2.3v13.6
	c0.1,0.5,0.4,1,0.8,1.4c0.4,0.3,1,0.5,1.5,0.4h8c0.5,0.1,1.1-0.1,1.5-0.4c0.4-0.3,0.7-0.8,0.8-1.4v-13.6
	C96.7,214.3,96.6,213.5,96.4,212.8z"/>
<path class="st1" d="M92.3,192.3h-3.8c-0.4,0-0.7,0.3-0.7,0.7v1.6c0,0.4,0.3,0.7,0.7,0.7h3.8c0.4,0,0.7-0.3,0.7-0.7V193
	C93,192.6,92.7,192.3,92.3,192.3z"/>
<path class="st1" d="M93.1,195.2h-5.5v0.4h5.5V195.2z"/>
<path class="st1" d="M95.3,207.9c-1.7,0.3-3.3,0.4-5,0.3c-1.7,0.1-3.3,0-5-0.3c1.7-0.3,3.3-0.3,5-0.3
	C92,207.5,93.6,207.6,95.3,207.9z"/>
<path class="st1" d="M95.3,209.9c-1.7,0.3-3.3,0.3-5,0.3c-1.7,0.1-3.3,0-5-0.3c1.7-0.3,3.3-0.4,5-0.3
	C92,209.6,93.6,209.7,95.3,209.9z"/>
<path class="st3" d="M96.7,216.6H84.1v9.4h12.6V216.6z"/>
<path class="st0" d="M93,195.2c-0.9,0.3-1.8,0.4-2.7,0.3c-0.9,0.1-1.8,0-2.7-0.3c0.9-0.3,1.8-0.3,2.7-0.3
	C91.2,194.8,92.1,194.9,93,195.2z"/>
<path class="st0" d="M88.8,195.1c-0.1,0-0.3-0.6-0.3-1.4c0-0.8,0.1-1.4,0.3-1.4c0.2,0,0.3,0.6,0.3,1.4
	C89,194.5,88.9,195.1,88.8,195.1z"/>
<path class="st0" d="M90.4,195.1c-0.2,0-0.3-0.6-0.3-1.4c0-0.8,0.1-1.4,0.3-1.4c0.1,0,0.3,0.6,0.3,1.4
	C90.6,194.5,90.5,195.1,90.4,195.1z"/>
<path class="st0" d="M92,195.1c-0.2,0-0.3-0.6-0.3-1.4c0-0.8,0.1-1.4,0.3-1.4s0.3,0.6,0.3,1.4C92.3,194.5,92.1,195.1,92,195.1z"/>
<path class="st0" d="M657.8,175.7c1.6-2,3.5-3.7,5.7-5L650,159.6c-0.7-0.5-1.4-1.2-1.8-2c-0.2-0.4-0.3-0.9-0.2-1.3
	c0.1-0.5,0.3-0.9,0.6-1.2c0.4-0.2,0.8-0.3,1.2-0.4c0.4,0,0.9,0,1.3,0.2c2.9,0.7,5.7,1.8,8.3,3.3l-2.7-6.2c-0.4-0.9-0.7-2-0.1-2.6
	s1.8-0.4,2.7,0c1.8,0.9,3.4,2.2,4.5,3.9c1.1,1.7,1.9,3.6,2.1,5.6c0.5-4.2,1.7-8.3,3.4-12.1c0.5-1.1,1.1-2.3,2.3-2.6
	c0.6-0.1,1.2,0,1.8,0.3c0.5,0.3,1,0.7,1.2,1.3c0.5,1.1,0.7,2.3,0.7,3.5c0.1,7.3-1.8,14.5-5.4,20.8c3,0.7,5.6,2.8,7.9,5
	c8.4,8,15.1,17.7,19.7,28.4c0,0,8.9,23.1-8.7,32.2c-5.6,2.9-11,1.5-17.2,0.5c-6.2-1-13.1-0.7-18.9-3.4c-4.6-2.1-9.5-4.5-12-8.9
	c-3.3-5.7-1.8-12.9,0.5-19.1C644.9,194.1,650.6,184.3,657.8,175.7z"/>
<path class="st1" d="M698.3,216.4c-2.7-3.5-6.3-6.2-10.3-7.8c-4.1-1.7-8.5-2.2-12.9-1.6c1.2-3.5,1.3-7.4,0.2-11
	c-1.1-3.6-3.3-6.7-6.2-9c-3-2.3-6.6-3.6-10.3-3.7c-3.7-0.2-7.4,0.9-10.6,2.9c-5.9-14.3-20-25.7-35.5-25.5s-30.2,14.5-28.3,29.9
	c-14.1,4.3-23.8,20-21.2,34.6c-13.1-3.6-28.4,4.8-32.3,17.8l170.3,0.3C704.9,235.2,703.6,223.4,698.3,216.4z"/>
<path class="st4" d="M400.4,49.7c2.1-1.3,4.3-2.2,6.7-2.9l1.4-6.6l11.2-0.2l1.6,6.6c2.4,0.6,4.6,1.5,6.8,2.7l5.6-3.7l8,7.8l-3.4,5.8
	c1.3,2.1,2.2,4.3,2.9,6.7l6.6,1.4l0.2,11.2l-6.6,1.6c-0.6,2.4-1.5,4.6-2.7,6.8l3.7,5.6l-7.8,8l-5.8-3.5c-2.1,1.3-4.3,2.2-6.7,2.9
	l-1.4,6.6l-11.2,0.2L408,100c-2.4-0.6-4.6-1.5-6.8-2.7l-5.6,3.7l-8.1-7.8l3.5-5.8c-1.3-2.1-2.2-4.3-2.9-6.7l-6.6-1.4l-0.2-11.2
	l6.6-1.6c0.6-2.4,1.5-4.6,2.7-6.8l-3.7-5.6l7.8-8L400.4,49.7L400.4,49.7z M406.4,64.5c-1.6,1.7-2.7,3.9-3.2,6.2
	c-0.4,2.3-0.1,4.7,0.8,6.9c0.9,2.2,2.5,4,4.5,5.3c2,1.3,4.3,1.9,6.7,1.9c2.4,0,4.7-0.8,6.6-2.1s3.5-3.2,4.3-5.5
	c0.9-2.2,1.1-4.6,0.6-6.9c-0.5-2.3-1.7-4.4-3.4-6.1c-1.1-1.1-2.5-2-3.9-2.5c-1.5-0.6-3-0.9-4.6-0.8c-1.6,0-3.1,0.4-4.6,1
	C408.8,62.5,407.5,63.4,406.4,64.5z"/>
<path class="st4" d="M134.4,95.9c1.7-1,3.5-1.8,5.5-2.4l1.1-5.4l9.1-0.2l1.3,5.4c1.9,0.5,3.8,1.2,5.5,2.2l4.6-3l6.6,6.3l-2.9,4.7
	c1,1.7,1.8,3.6,2.4,5.5l5.4,1.1l0.2,9.1l-5.4,1.3c-0.5,1.9-1.2,3.8-2.2,5.5l3,4.6l-6.3,6.6l-4.7-2.9c-1.7,1-3.5,1.8-5.5,2.4
	l-1.1,5.4l-9.1,0.2l-1.3-5.4c-1.9-0.5-3.8-1.2-5.5-2.2l-4.6,3l-6.6-6.3l2.9-4.7c-1-1.7-1.8-3.5-2.4-5.5l-5.4-1.1l-0.2-9.1l5.4-1.3
	c0.5-1.9,1.2-3.8,2.2-5.5l-3-4.6l6.3-6.6L134.4,95.9L134.4,95.9z M139.2,108c-1.3,1.4-2.2,3.2-2.6,5.1c-0.3,1.9-0.1,3.9,0.7,5.6
	c0.8,1.8,2.1,3.3,3.7,4.3c1.6,1,3.5,1.6,5.5,1.5c1.9,0,3.8-0.6,5.4-1.7c1.6-1.1,2.8-2.7,3.5-4.5c0.7-1.8,0.9-3.8,0.5-5.7
	c-0.4-1.9-1.4-3.6-2.8-5c-0.9-0.9-2-1.6-3.2-2.1c-1.2-0.5-2.5-0.7-3.8-0.7c-1.3,0-2.6,0.3-3.7,0.8
	C141.2,106.3,140.1,107.1,139.2,108z"/>
<path class="st4" d="M190.2,59.8c1.1-0.7,2.4-1.2,3.6-1.6l0.8-3.6l6.1-0.1l0.9,3.6c1.3,0.3,2.5,0.8,3.7,1.5l3.1-2l4.4,4.2l-1.9,3.2
	c0.7,1.1,1.2,2.4,1.6,3.6l3.6,0.8l0.1,6.1l-3.6,0.9c-0.3,1.3-0.8,2.5-1.4,3.7l2,3.1l-4.2,4.4l-3.1-1.9c-1.1,0.7-2.4,1.2-3.6,1.6
	l-0.8,3.6l-6.1,0.1l-0.9-3.6c-1.3-0.3-2.5-0.8-3.7-1.4l-3.1,2l-4.4-4.2l1.9-3.1c-0.7-1.1-1.2-2.4-1.6-3.6l-3.6-0.8l-0.1-6l3.6-0.9
	c0.3-1.3,0.8-2.5,1.5-3.7l-2-3.1l4.2-4.4L190.2,59.8L190.2,59.8z M193.4,67.9c-0.9,0.9-1.5,2.1-1.7,3.4c-0.2,1.3-0.1,2.6,0.4,3.8
	c0.5,1.2,1.4,2.2,2.5,2.9c1.1,0.7,2.4,1.1,3.6,1c1.3,0,2.5-0.4,3.6-1.2c1.1-0.7,1.9-1.8,2.3-3c0.5-1.2,0.6-2.5,0.3-3.8
	c-0.3-1.3-0.9-2.4-1.8-3.3c-0.6-0.6-1.3-1.1-2.1-1.4c-0.8-0.3-1.6-0.5-2.5-0.5c-0.9,0-1.7,0.2-2.5,0.5
	C194.7,66.8,194,67.3,193.4,67.9z"/>
<path class="st3" d="M68.2,60.4c1.1-0.7,2.4-1.2,3.6-1.6l0.8-3.6l6.1-0.1l0.9,3.6c1.3,0.3,2.5,0.8,3.7,1.5l3.1-2l4.4,4.2l-1.9,3.1
	c0.7,1.1,1.2,2.4,1.6,3.6l3.6,0.8l0.1,6.1l-3.6,0.9c-0.3,1.3-0.8,2.5-1.5,3.7l2,3.1L86.8,88l-3.2-1.9c-1.1,0.7-2.4,1.2-3.6,1.6
	l-0.8,3.6l-6.1,0.1l-0.9-3.6c-1.3-0.3-2.5-0.8-3.7-1.4l-3.1,2l-4.4-4.2l1.9-3.1c-0.7-1.1-1.2-2.4-1.6-3.6l-3.6-0.8l-0.1-6.1l3.6-0.9
	c0.3-1.3,0.8-2.5,1.5-3.7l-2-3.1l4.2-4.4L68.2,60.4L68.2,60.4z M71.4,68.5c-0.9,0.9-1.5,2.1-1.7,3.4c-0.2,1.3-0.1,2.6,0.4,3.8
	c0.5,1.2,1.4,2.2,2.5,2.9c1.1,0.7,2.4,1.1,3.6,1c1.3,0,2.5-0.4,3.6-1.2c1.1-0.7,1.9-1.8,2.4-3c0.5-1.2,0.6-2.5,0.3-3.8
	c-0.3-1.3-0.9-2.4-1.8-3.3c-1.2-1.2-2.9-1.9-4.7-1.8S72.6,67.3,71.4,68.5z"/>
<path class="st3" d="M631.7,71.1c1.5-0.9,3.2-1.7,4.9-2.2l1-4.9l8.3-0.2l1.2,4.8c1.7,0.4,3.4,1.1,5,2l4.2-2.7l5.9,5.7l-2.6,4.3
	c0.9,1.5,1.7,3.2,2.2,4.9l4.9,1l0.2,8.3l-4.8,1.2c-0.4,1.7-1.1,3.4-2,5l2.7,4.2l-5.7,5.9l-4.3-2.6c-1.5,0.9-3.2,1.6-4.9,2.1l-1,4.9
	l-8.3,0.1l-1.2-4.8c-1.7-0.4-3.4-1.1-5-2l-4.2,2.8l-5.9-5.7l2.6-4.3c-0.9-1.5-1.6-3.2-2.1-4.9l-4.9-1l-0.1-8.3l4.8-1.2
	c0.4-1.8,1.1-3.4,2-5l-2.7-4.2l5.7-5.9L631.7,71.1L631.7,71.1z M636.1,82.1c-1.2,1.3-2,2.9-2.3,4.6c-0.3,1.7-0.1,3.5,0.6,5.1
	c0.7,1.6,1.9,3,3.3,3.9s3.2,1.4,4.9,1.4c1.8,0,3.5-0.6,4.9-1.6c1.4-1,2.5-2.4,3.2-4c0.6-1.6,0.8-3.4,0.4-5.1
	c-0.4-1.7-1.2-3.3-2.5-4.5c-0.8-0.8-1.8-1.4-2.9-1.9s-2.2-0.6-3.4-0.6s-2.3,0.3-3.4,0.7C637.9,80.6,636.9,81.2,636.1,82.1z"/>
<path class="st4" d="M480.4,50.1c1.3-0.8,2.7-1.4,4.2-1.8l0.9-4.2l7.1-0.1l1,4.2c1.5,0.4,2.9,0.9,4.3,1.7l3.6-2.4l5.1,4.9l-2.2,3.6
	c0.8,1.3,1.4,2.8,1.8,4.2l4.2,0.9l0.1,7.1l-4.2,1c-0.4,1.5-0.9,2.9-1.7,4.3l2.3,3.6l-4.9,5.1l-3.6-2.2c-1.3,0.8-2.7,1.4-4.2,1.8
	l-0.9,4.2l-7.1,0.1l-1-4.2c-1.5-0.4-2.9-0.9-4.3-1.7l-3.6,2.3l-5.1-4.9l2.2-3.7c-0.8-1.3-1.4-2.8-1.8-4.2l-4.2-0.8l-0.1-7.1l4.2-1
	c0.4-1.5,0.9-2.9,1.7-4.3l-2.3-3.6l4.9-5.1L480.4,50.1L480.4,50.1z M484.2,59.5c-1,1.1-1.7,2.5-2,3.9c-0.3,1.5-0.1,3,0.5,4.4
	c0.6,1.4,1.6,2.5,2.9,3.3c1.3,0.8,2.7,1.2,4.2,1.2c1.5,0,3-0.5,4.2-1.3s2.2-2.1,2.7-3.4c0.6-1.4,0.7-2.9,0.4-4.4
	c-0.3-1.5-1.1-2.8-2.1-3.9c-0.7-0.7-1.6-1.3-2.5-1.6c-0.9-0.4-1.9-0.6-2.9-0.5c-1,0-2,0.2-2.9,0.6C485.7,58.2,484.9,58.8,484.2,59.5
	z"/>
<path class="st4" d="M431.9,146.6c0-0.4-0.1-0.7-0.3-1.1c-0.2-0.3-0.5-0.6-0.8-0.7c0.2,0,0.4,0,0.5-0.1c0.2-0.1,0.3-0.2,0.4-0.3
	c0.1-0.1,0.2-0.3,0.3-0.5c0.1-0.2,0.1-0.3,0.1-0.5c0-0.4-0.1-0.8-0.2-1.1c-0.2-0.3-0.4-0.6-0.8-0.8c0.4-0.1,0.7-0.3,0.9-0.5
	s0.3-0.6,0.3-1c0-1.4-1.5-1.7-1.5-1.7s1.4,0,1.5-1.3c0.1-1.3-1.3-1.7-1.3-1.7l1.3-1.3v-4.7c0-0.3-0.1-0.5-0.2-0.7
	c-0.1-0.2-0.3-0.4-0.5-0.6l-4.1-3.6h-5.5h-0.8l-4.1,3.7c-0.2,0.2-0.3,0.4-0.5,0.6c-0.1,0.2-0.2,0.5-0.1,0.7v4.7l1.3,1.3
	c0,0-1.4,0.4-1.3,1.7c0.1,1.3,1.5,1.3,1.5,1.3c-0.4,0.1-0.8,0.3-1,0.6c-0.3,0.3-0.4,0.7-0.5,1.1c0,0.4,0.1,0.7,0.3,1
	c0.2,0.3,0.5,0.5,0.9,0.5c-0.3,0.2-0.6,0.5-0.7,0.8c-0.2,0.3-0.2,0.7-0.2,1.1c0,0.2,0,0.4,0.1,0.5s0.1,0.3,0.3,0.5
	c0.1,0.1,0.3,0.2,0.4,0.3c0.2,0.1,0.3,0.1,0.5,0.1c-0.3,0.1-0.6,0.4-0.8,0.7c-0.2,0.3-0.3,0.7-0.3,1.1c0,0.4,0.1,0.7,0.2,1
	c0.2,0.3,0.5,0.5,0.8,0.7l-1.5,1.6v10c0.2,0.6,0.6,1.2,1.2,1.5c0.5,0.4,1.2,0.5,1.8,0.5c0.6,0,1.3-0.2,1.8-0.6
	c0.5-0.4,0.8-1,0.9-1.6c0,0,0,2.2,2.1,2.2h0.3c2-0.1,2-2.2,2-2.2c0.1,0.6,0.4,1.2,0.9,1.6c0.5,0.4,1.1,0.6,1.8,0.6
	c0.7,0,1.3-0.1,1.8-0.5c0.5-0.4,0.9-0.9,1.1-1.5v-10l-1.5-1.6c0.3-0.1,0.6-0.4,0.8-0.7C431.8,147.3,431.9,147,431.9,146.6z"/>
<path class="st5" d="M430.9,135.3c-2.2,0.2-4.5,0.3-6.8,0.2c-2.3,0.1-4.5,0-6.8-0.2c2.2-0.2,4.5-0.3,6.8-0.2
	C426.4,135.1,428.6,135.2,430.9,135.3z"/>
<path class="st5" d="M432.1,134c0,0.1-3.5,0.2-7.8,0.2s-7.8-0.1-7.8-0.1c0-0.1,3.5-0.2,7.8-0.2C428.6,133.8,432.1,133.9,432.1,134z"
	/>
<path class="st5" d="M431.1,138.4c-2.2,0.2-4.5,0.3-6.7,0.2c-2.2,0.1-4.5,0-6.7-0.2c2.2-0.2,4.5-0.3,6.7-0.2
	C426.6,138.1,428.8,138.2,431.1,138.4z"/>
<path class="st5" d="M431.1,141.4c-2.2,0.2-4.5,0.3-6.7,0.2c-2.2,0.1-4.5,0-6.7-0.1c2.2-0.2,4.5-0.3,6.7-0.2
	C426.6,141.2,428.8,141.2,431.1,141.4z"/>
<path class="st5" d="M431.1,144.8c-2.2,0.2-4.5,0.3-6.7,0.2c-2.2,0.1-4.5,0-6.7-0.2c2.2-0.2,4.5-0.3,6.7-0.2
	C426.6,144.5,428.9,144.6,431.1,144.8z"/>
<path class="st5" d="M431.1,148.1c-2.2,0.2-4.5,0.3-6.7,0.2c-2.2,0.1-4.5,0-6.7-0.2c2.2-0.2,4.5-0.3,6.7-0.2
	C426.6,147.9,428.9,147.9,431.1,148.1z"/>
<path class="st5" d="M432.3,150c0,0.1-3.5,0.2-7.9,0.2s-7.9-0.1-7.9-0.1c0-0.1,3.5-0.2,7.9-0.2C428.8,149.8,432.3,149.9,432.3,150z"
	/>
<path class="st6" d="M427.1,120.9l-5.5,0c-0.5,0-0.9,0.4-0.9,0.9l0,1.7c0,0.5,0.4,0.9,0.9,0.9l5.5,0c0.5,0,0.9-0.4,0.9-0.9l0-1.7
	C427.9,121.3,427.5,120.9,427.1,120.9z"/>
<path class="st5" d="M421.8,124.3c-0.2-0.5-0.3-1.1-0.2-1.7c-0.1-0.6,0-1.1,0.2-1.7c0.2,0.5,0.3,1.1,0.2,1.7
	C422,123.2,422,123.8,421.8,124.3z"/>
<path class="st5" d="M423,124.3c-0.2-0.5-0.3-1.1-0.2-1.7c-0.1-0.6,0-1.1,0.2-1.7c0.2,0.5,0.3,1.1,0.2,1.7
	C423.2,123.1,423.2,123.7,423,124.3z"/>
<path class="st5" d="M424.3,124.3c-0.2-0.5-0.3-1.1-0.2-1.7c-0.1-0.6,0-1.1,0.2-1.7c0.2,0.5,0.3,1.1,0.2,1.7
	C424.5,123.2,424.4,123.8,424.3,124.3z"/>
<path class="st5" d="M425.6,124.3c-0.2-0.5-0.3-1.1-0.2-1.7c-0.1-0.6,0-1.1,0.2-1.7c0.2,0.5,0.3,1.1,0.2,1.7
	C425.8,123.1,425.8,123.7,425.6,124.3z"/>
<path class="st5" d="M426.9,124.2c-0.2-0.5-0.3-1.1-0.2-1.7c-0.1-0.6,0-1.1,0.2-1.7c0.2,0.5,0.3,1.1,0.2,1.7
	C427.1,123.1,427,123.7,426.9,124.2z"/>
<path class="st1" d="M418.6,153.1c0.4-2.1,1.3-4.1,2.5-5.8c1.3-1.7,2.9-3.1,4.8-4.1c1.9-1,4-1.5,6.1-1.6c2.1-0.1,4.2,0.4,6.2,1.3
	c0.7-3.9,2.7-7.4,5.7-10c3-2.6,6.8-4.1,10.7-4.2c3.9-0.1,7.8,1.1,11,3.4c3.2,2.4,5.4,5.7,6.4,9.6c5.8-2.8,13.6,1.6,14.4,7.9
	c5.4-3.4,13.6-1,16.1,4.9c0.4-1.6,1.3-3,2.4-4.1c1.2-1.1,2.6-2,4.1-2.4c1.6-0.4,3.2-0.4,4.8,0c1.6,0.4,3,1.2,4.2,2.3
	c1.7-1.2,3.7-1.8,5.7-1.8c2,0,4,0.6,5.7,1.7c3.3,2.3,5.3,8.7,4.2,12.6l-126.4-0.5c0.1-1.4,0.5-2.7,1.2-3.9c0.6-1.2,1.5-2.3,2.6-3.1
	c1.1-0.9,2.3-1.5,3.6-1.9S417.3,153,418.6,153.1z"/>
<path class="st7" d="M468.6,127.2l12,4l-3.6,14.9l-14.5-4.9L468.6,127.2z"/>
<path class="st7" d="M460.7,141.4l17.6,5.9l0.7-2l-17.6-5.9L460.7,141.4z"/>
<path class="st5" d="M461.5,139.3c5.9,1.6,11.7,3.5,17.3,5.8c-3-0.7-5.9-1.6-8.7-2.6C467.1,141.6,464.3,140.5,461.5,139.3z"/>
<path class="st6" d="M524.9,128.2l-11.4-7.3c-0.5-0.3-1-0.5-1.6-0.5l-8.5,0.1c-0.5,0-0.9,0.1-1.3,0.3s-0.8,0.5-1,0.9l-5.9,8.2
	c-0.4,0.5-0.6,1.1-0.6,1.8l0.2,27.6c0,0.8,0.3,1.6,0.9,2.1c0.6,0.6,1.3,0.9,2.1,0.9l25.8-0.3c0.8,0,1.5-0.3,2.1-0.9
	c0.5-0.6,0.9-1.3,0.9-2.1l-0.2-28.4c0-0.5-0.1-1-0.4-1.4C525.7,128.8,525.4,128.4,524.9,128.2z M521.7,132.6
	c-0.3,0.5-0.8,0.8-1.4,0.9c-0.6,0.1-1.1,0-1.6-0.3l-7.3-4.6c-0.5-0.3-0.8-0.8-1-1.4c-0.1-0.6,0-1.1,0.3-1.6c0.3-0.5,0.8-0.8,1.4-0.9
	c0.6-0.1,1.1,0,1.6,0.3l7.3,4.6c0.5,0.3,0.8,0.8,0.9,1.4C522.1,131.5,522,132.1,521.7,132.6z"/>
<path class="st6" d="M511.5,117.6l-8,0.1l0,2.8l8-0.1L511.5,117.6z"/>
<path class="st5" d="M512.1,115.4l-9.3,0.1c-0.6,0-1.1,0.5-1.1,1.1l0,1.6c0,0.6,0.5,1.1,1.1,1.1l9.3-0.1c0.6,0,1.1-0.5,1.1-1.1
	l0-1.6C513.2,115.9,512.7,115.4,512.1,115.4z"/>
<path class="st4" d="M451.1,160.9c0.3,0,0.7-0.1,0.9-0.2c0.3-0.2,0.5-0.4,0.6-0.8c0,0.2,0,0.3,0.1,0.4c0.1,0.1,0.2,0.3,0.3,0.4
	c0.1,0.1,0.3,0.2,0.4,0.2c0.1,0,0.3,0.1,0.5,0.1c0.3,0,0.6,0,0.9-0.2c0.3-0.1,0.5-0.4,0.7-0.6c0.1,0.3,0.2,0.6,0.5,0.8
	c0.2,0.2,0.6,0.3,0.9,0.3c1.2,0,1.5-1.3,1.5-1.3s0,1.2,1.1,1.3c1.1,0.1,1.5-1.1,1.5-1.1l1.1,1.2h4.1c0.2,0,0.4,0,0.6-0.1
	c0.2-0.1,0.4-0.2,0.5-0.4l3.1-3.6v-5.5l-3.1-3.6c-0.1-0.2-0.3-0.3-0.5-0.4c-0.2-0.1-0.4-0.1-0.6-0.1h-4.1l-1.1,1.2
	c0,0-0.4-1.3-1.5-1.2c-1.1,0.1-1.1,1.3-1.1,1.3s-0.3-1.3-1.5-1.3c-0.3,0-0.6,0.1-0.9,0.2c-0.2,0.2-0.4,0.5-0.5,0.8
	c-0.2-0.3-0.4-0.5-0.7-0.6c-0.3-0.1-0.6-0.2-0.9-0.2c-0.2,0-0.3,0-0.5,0.1c-0.1,0-0.3,0.1-0.4,0.2c-0.1,0.1-0.2,0.2-0.3,0.4
	c-0.1,0.1-0.1,0.3-0.1,0.5c-0.1-0.3-0.3-0.6-0.6-0.8c-0.3-0.2-0.6-0.3-0.9-0.2c-0.3,0-0.6,0-0.9,0.2c-0.3,0.2-0.5,0.4-0.6,0.7
	l-1.4-1.3h-8.6c-0.5,0.2-1,0.5-1.3,1c-0.3,0.5-0.5,1-0.4,1.6c0,0.6,0.1,1.1,0.5,1.6c0.4,0.4,0.9,0.7,1.4,0.8c0,0-1.9,0-1.9,1.8v0.2
	c0,1.8,1.9,1.8,1.9,1.8c-0.6,0.1-1.1,0.4-1.4,0.8c-0.4,0.4-0.5,1-0.5,1.6c0,0.6,0.1,1.1,0.4,1.6c0.3,0.5,0.8,0.8,1.3,1h8.7l1.4-1.3
	c0.1,0.3,0.3,0.6,0.5,0.8C450.5,160.8,450.8,160.9,451.1,160.9z"/>
<path class="st7" d="M473.5,156.9l0-5.1c0-0.4-0.3-0.6-0.6-0.6l-1.7,0c-0.4,0-0.6,0.3-0.6,0.6l0,5.1c0,0.4,0.3,0.6,0.6,0.6l1.7,0
	C473.2,157.6,473.5,157.3,473.5,156.9z"/>
<path class="st5" d="M460.9,160.1c-0.2-2-0.2-3.9-0.2-5.9c-0.1-2,0-3.9,0.2-5.9c0.2,2,0.2,3.9,0.2,5.9
	C461.2,156.2,461.1,158.1,460.9,160.1z"/>
<path class="st5" d="M462.1,161.1c-0.2-2.3-0.2-4.5-0.2-6.8c-0.1-2.3,0-4.5,0.2-6.8c0.2,2.3,0.2,4.5,0.2,6.8
	C462.3,156.6,462.3,158.9,462.1,161.1z"/>
<path class="st5" d="M458.3,160.2c-0.2-1.9-0.2-3.9-0.2-5.8c-0.1-1.9,0-3.9,0.2-5.8c0.2,1.9,0.2,3.9,0.2,5.8
	C458.5,156.3,458.5,158.3,458.3,160.2z"/>
<path class="st5" d="M455.7,160.2c-0.2-1.9-0.2-3.9-0.2-5.8c-0.1-1.9,0-3.9,0.2-5.8c0.2,1.9,0.2,3.9,0.2,5.8
	C455.9,156.3,455.8,158.3,455.7,160.2z"/>
<path class="st5" d="M452.8,160.2c-0.2-1.9-0.2-3.9-0.2-5.8c-0.1-1.9,0-3.9,0.2-5.8c0.2,1.9,0.2,3.9,0.2,5.8
	C453,156.3,452.9,158.3,452.8,160.2z"/>
<path class="st5" d="M449.8,160.2c-0.2-1.9-0.2-3.9-0.2-5.8c-0.1-1.9,0-3.9,0.2-5.8c0.2,1.9,0.2,3.9,0.2,5.8
	C450.1,156.3,450,158.3,449.8,160.2z"/>
<path class="st5" d="M448.2,161.2c-0.2-2.3-0.2-4.6-0.2-6.8c-0.1-2.3,0-4.6,0.2-6.8c0.2,2.3,0.2,4.6,0.2,6.8
	C448.4,156.7,448.4,158.9,448.2,161.2z"/>
<path class="st1" d="M239,141.4c-0.4-1.5-1.2-2.9-1.1-5.4c0-1.1,0.6-2,1.1-3.9c0.5-1.9-0.5-4.7-1.8-6.5s-2.4-3.3-2.3-5.3h-4.2
	c0.1,2-1,3.5-2.3,5.3c-1.3,1.8-2.3,4.6-1.8,6.5c0.5,1.9,1,2.7,1.1,3.9c0.2,2.2-0.7,3.9-1.1,5.4c-0.3,0.9-0.4,1.8-0.4,2.7v16.3
	c0,0.6,0.3,1.2,0.8,1.6c0.5,0.4,1.1,0.6,1.7,0.6h8.5c0.6,0,1.2-0.2,1.7-0.6c0.5-0.4,0.7-1,0.8-1.6v-16.3
	C239.4,143.2,239.3,142.3,239,141.4z"/>
<path class="st7" d="M234.8,117h-4.2c-0.4,0-0.7,0.3-0.7,0.7v2.2c0,0.4,0.3,0.7,0.7,0.7h4.2c0.4,0,0.7-0.3,0.7-0.7v-2.2
	C235.4,117.3,235.1,117,234.8,117z"/>
<path class="st7" d="M235.6,120.4h-5.8v0.5h5.8V120.4z"/>
<path class="st5" d="M237.9,135.5c-1.7,0.3-3.5,0.4-5.3,0.3c-1.8,0.1-3.5,0-5.3-0.3c1.7-0.3,3.5-0.3,5.3-0.3
	C234.4,135.2,236.2,135.3,237.9,135.5z"/>
<path class="st5" d="M237.9,138c-1.7,0.3-3.5,0.3-5.3,0.3c-1.8,0.1-3.5,0-5.3-0.3c1.7-0.3,3.5-0.4,5.3-0.3
	C234.4,137.6,236.2,137.7,237.9,138z"/>
<path class="st0" d="M239.4,146H226v11.2h13.4V146z"/>
<path class="st5" d="M235.5,120.4c-1.9,0.3-3.8,0.3-5.7,0C231.7,120.1,233.6,120.1,235.5,120.4z"/>
<path class="st5" d="M231,120.3c-0.1,0-0.3-0.7-0.3-1.7s0.1-1.7,0.3-1.7s0.3,0.7,0.3,1.7C231.3,119.6,231.1,120.3,231,120.3z"/>
<path class="st5" d="M232.7,120.3c-0.1,0-0.3-0.7-0.3-1.7s0.1-1.7,0.3-1.7c0.1,0,0.3,0.7,0.3,1.7
	C232.9,119.6,232.8,120.3,232.7,120.3z"/>
<path class="st5" d="M234.4,120.3c-0.1,0-0.3-0.7-0.3-1.7s0.1-1.7,0.3-1.7s0.3,0.7,0.3,1.7C234.6,119.6,234.5,120.3,234.4,120.3z"/>
<path class="st1" d="M259.8,141.4c-0.4-1.5-1.2-2.9-1.1-5.4c0-1.1,0.6-2,1.1-3.9c0.4-1.9-0.5-4.7-1.8-6.5s-2.4-3.3-2.3-5.3h-4.3
	c0.1,2-1,3.5-2.3,5.3s-2.3,4.6-1.8,6.5c0.5,1.9,1,2.7,1.1,3.9c0.2,2.2-0.7,3.9-1.1,5.4c-0.3,0.9-0.4,1.8-0.4,2.7v16.3
	c0,0.6,0.3,1.2,0.8,1.6c0.5,0.4,1.1,0.6,1.7,0.6h8.5c0.6,0,1.2-0.2,1.7-0.6c0.5-0.4,0.7-1,0.8-1.6v-16.3
	C260.2,143.2,260,142.3,259.8,141.4z"/>
<path class="st7" d="M255.5,117h-4.2c-0.4,0-0.7,0.3-0.7,0.7v2.2c0,0.4,0.3,0.7,0.7,0.7h4.2c0.4,0,0.7-0.3,0.7-0.7v-2.2
	C256.2,117.3,255.9,117,255.5,117z"/>
<path class="st7" d="M256.4,120.4h-5.8v0.5h5.8V120.4z"/>
<path class="st5" d="M258.6,135.5c-3.5,0.3-7,0.3-10.5,0C251.6,135.2,255.1,135.2,258.6,135.5z"/>
<path class="st5" d="M258.6,138c-3.5,0.3-7,0.3-10.5,0C251.6,137.7,255.1,137.7,258.6,138z"/>
<path class="st0" d="M260.1,146h-13.4v11.2h13.4V146z"/>
<path class="st5" d="M256.2,120.4c-1.9,0.3-3.8,0.3-5.7,0C252.4,120.1,254.4,120.1,256.2,120.4z"/>
<path class="st5" d="M251.7,120.3c-0.1,0-0.3-0.7-0.3-1.7s0.1-1.7,0.3-1.7s0.3,0.7,0.3,1.7C252,119.6,251.9,120.3,251.7,120.3z"/>
<path class="st5" d="M253.4,120.3c-0.1,0-0.3-0.7-0.3-1.7s0.1-1.7,0.3-1.7s0.3,0.7,0.3,1.7C253.7,119.6,253.6,120.3,253.4,120.3z"/>
<path class="st5" d="M255.1,120.3c-0.1,0-0.3-0.7-0.3-1.7s0.1-1.7,0.3-1.7s0.3,0.7,0.3,1.7C255.4,119.6,255.3,120.3,255.1,120.3z"/>
<path class="st1" d="M215.8,141.4c-0.4-1.5-1.2-2.9-1.1-5.4c0.1-1.1,0.6-2,1.1-3.9c0.4-1.9-0.5-4.7-1.8-6.5
	c-1.3-1.8-2.3-3.3-2.3-5.3h-4.3c0.1,2-1,3.5-2.3,5.3s-2.3,4.6-1.8,6.5c0.4,1.9,1,2.7,1.1,3.9c0.2,2.2-0.7,3.9-1.1,5.4
	c-0.3,0.9-0.4,1.8-0.4,2.7v16.3c0,0.6,0.3,1.2,0.8,1.6c0.5,0.4,1.1,0.6,1.7,0.6h8.5c0.6,0,1.2-0.2,1.7-0.6c0.5-0.4,0.7-1,0.8-1.6
	v-16.3C216.2,143.2,216.1,142.3,215.8,141.4z"/>
<path class="st7" d="M211.5,117h-4.2c-0.4,0-0.7,0.3-0.7,0.7v2.2c0,0.4,0.3,0.7,0.7,0.7h4.2c0.4,0,0.7-0.3,0.7-0.7v-2.2
	C212.2,117.3,211.9,117,211.5,117z"/>
<path class="st7" d="M212.4,120.4h-5.8v0.5h5.8V120.4z"/>
<path class="st5" d="M214.7,135.5c-1.7,0.3-3.5,0.4-5.3,0.3c-1.8,0.1-3.5,0-5.3-0.3c1.7-0.3,3.5-0.3,5.3-0.3
	C211.2,135.2,213,135.3,214.7,135.5z"/>
<path class="st5" d="M214.7,138c-1.7,0.3-3.5,0.3-5.3,0.3c-1.8,0.1-3.5,0-5.3-0.3c1.7-0.3,3.5-0.4,5.3-0.3
	C211.2,137.6,213,137.7,214.7,138z"/>
<path class="st0" d="M216.2,146h-13.4v11.2h13.4V146z"/>
<path class="st5" d="M212.3,120.4c-1.9,0.3-3.8,0.3-5.7,0C208.5,120.1,210.4,120.1,212.3,120.4z"/>
<path class="st5" d="M207.8,120.3c-0.2,0-0.3-0.7-0.3-1.7s0.1-1.7,0.3-1.7c0.1,0,0.3,0.7,0.3,1.7C208,119.6,207.9,120.3,207.8,120.3
	z"/>
<path class="st5" d="M209.5,120.3c-0.1,0-0.3-0.7-0.3-1.7s0.1-1.7,0.3-1.7s0.3,0.7,0.3,1.7C209.7,119.6,209.6,120.3,209.5,120.3z"/>
<path class="st5" d="M211.2,120.3c-0.1,0-0.3-0.7-0.3-1.7s0.1-1.7,0.3-1.7s0.3,0.7,0.3,1.7C211.4,119.6,211.3,120.3,211.2,120.3z"/>
<path class="st6" d="M210.8,243.1h309.9V220H210.8V243.1z"/>
<path class="st5" d="M200.3,220.4h330.9v-9.3H200.3V220.4z"/>
<path class="st1" d="M185.4,210.9h349.2c3.2,0,6.4-0.6,9.3-1.8c3-1.2,5.6-3,7.9-5.3c2.3-2.3,4-4.9,5.3-7.9s1.8-6.1,1.8-9.3
	c0-3.2-0.6-6.4-1.9-9.3c-1.2-2.9-3-5.6-5.3-7.9c-2.3-2.3-4.9-4-7.9-5.3c-2.9-1.2-6.1-1.8-9.3-1.8H185.4c-3.2,0-6.4,0.6-9.3,1.8
	c-2.9,1.2-5.6,3-7.9,5.3c-2.3,2.3-4,4.9-5.3,7.9c-1.2,2.9-1.9,6.1-1.9,9.3c0,3.2,0.6,6.4,1.8,9.3c1.2,2.9,3,5.6,5.3,7.9
	c2.3,2.3,4.9,4,7.9,5.3C179.1,210.3,182.2,210.9,185.4,210.9z"/>
<path class="st5" d="M534.6,211.4H185.4c-3.3,0.1-6.6-0.5-9.6-1.7c-3.1-1.2-5.9-3-8.2-5.3c-2.4-2.3-4.2-5.1-5.5-8.1
	c-1.3-3-1.9-6.3-1.9-9.6c0-3.3,0.7-6.6,1.9-9.6c1.3-3,3.2-5.8,5.5-8.1c2.4-2.3,5.1-4.1,8.2-5.3c3.1-1.2,6.3-1.8,9.6-1.7h349.2
	c3.3-0.1,6.6,0.5,9.6,1.7c3.1,1.2,5.9,3,8.2,5.3c2.4,2.3,4.2,5.1,5.5,8.1c1.3,3,1.9,6.3,1.9,9.6c0,3.3-0.7,6.6-1.9,9.6
	c-1.3,3-3.2,5.8-5.5,8.1c-2.4,2.3-5.1,4.1-8.2,5.3C541.2,210.9,537.9,211.5,534.6,211.4z M185.4,162.8c-3.2-0.1-6.3,0.5-9.3,1.7
	c-2.9,1.2-5.6,2.9-7.9,5.1s-4.1,4.9-5.3,7.8c-1.2,2.9-1.9,6.1-1.9,9.2s0.6,6.3,1.9,9.2c1.2,2.9,3,5.6,5.3,7.8c2.3,2.2,4.9,4,7.9,5.1
	c2.9,1.2,6.1,1.7,9.3,1.7h349.2c3.2,0.1,6.3-0.5,9.3-1.7c2.9-1.2,5.6-2.9,7.9-5.1c2.3-2.2,4.1-4.9,5.3-7.8c1.2-2.9,1.9-6.1,1.9-9.2
	s-0.6-6.3-1.9-9.2c-1.2-2.9-3-5.6-5.3-7.8s-4.9-4-7.9-5.1c-2.9-1.2-6.1-1.7-9.3-1.7H185.4z"/>
<path class="st7" d="M269.2,244.1h136.5V64.9H269.2V244.1z"/>
<path class="st5" d="M346.3,209.1h34.5c0.3,0,0.7-0.1,0.9-0.4c0.2-0.2,0.4-0.6,0.4-0.9c0-0.3-0.1-0.7-0.4-0.9
	c-0.2-0.2-0.6-0.4-0.9-0.4h-34.5c-0.2,0-0.3,0-0.5,0.1c-0.2,0.1-0.3,0.2-0.4,0.3c-0.1,0.1-0.2,0.3-0.3,0.4c-0.1,0.2-0.1,0.3-0.1,0.5
	c0,0.3,0.1,0.7,0.4,0.9C345.7,209,346,209.1,346.3,209.1z"/>
<path class="st5" d="M346.3,214.6h34.5c0.3,0,0.7-0.1,0.9-0.4c0.2-0.2,0.4-0.6,0.4-0.9c0-0.3-0.1-0.7-0.4-0.9
	c-0.2-0.2-0.6-0.4-0.9-0.4h-34.5c-0.2,0-0.3,0-0.5,0.1c-0.2,0.1-0.3,0.2-0.4,0.3c-0.1,0.1-0.2,0.3-0.3,0.4c-0.1,0.2-0.1,0.3-0.1,0.5
	c0,0.3,0.1,0.7,0.4,0.9C345.7,214.4,346,214.6,346.3,214.6z"/>
<path class="st5" d="M346.3,220h34.5c0.3,0,0.7-0.1,0.9-0.4c0.2-0.2,0.4-0.6,0.4-0.9c0-0.3-0.1-0.7-0.4-0.9
	c-0.2-0.2-0.6-0.4-0.9-0.4h-34.5c-0.2,0-0.3,0-0.5,0.1c-0.2,0.1-0.3,0.2-0.4,0.3c-0.1,0.1-0.2,0.3-0.3,0.4c-0.1,0.2-0.1,0.3-0.1,0.5
	c0,0.3,0.1,0.6,0.4,0.9C345.7,219.9,346,220,346.3,220z"/>
<path class="st5" d="M346.3,225.5h34.5c0.3,0,0.7-0.1,0.9-0.4c0.2-0.2,0.4-0.6,0.4-0.9c0-0.3-0.1-0.7-0.4-0.9
	c-0.2-0.2-0.6-0.4-0.9-0.4h-34.5c-0.2,0-0.3,0-0.5,0.1c-0.2,0.1-0.3,0.2-0.4,0.3c-0.1,0.1-0.2,0.3-0.3,0.4c-0.1,0.2-0.1,0.3-0.1,0.5
	c0,0.3,0.1,0.6,0.4,0.9C345.7,225.4,346,225.5,346.3,225.5z"/>
<path class="st2" d="M314.7,122.9c0,0-3.2,3.2-1.7,6.6c1.5,3.4,6.3,9.9,6.3,9.9c0.8-4,2.5-7.8,5.1-11l2.9,1.6l-3.1-12.1l-11.6,3.4
	L314.7,122.9z"/>
<path class="st2" d="M320.7,141.9c0.5,0.8,1.2,1.5,1.9,2c0.8,0.5,1.7,0.9,2.6,1c3.3,0.6,10.4,0.1,10.4,0.1l-0.1-10.7l-12.5,0.1
	C321.5,136.7,320.7,139.2,320.7,141.9z"/>
<path class="st2" d="M350.2,106.3c0,0-1-4.4-4.6-4.9c-3.6-0.6-11.7,0-11.7,0c3,2.8,5.2,6.3,6.6,10.1l-2.9,1.6l11.8,3.8l3.3-11.6
	L350.2,106.3z"/>
<path class="st2" d="M331,101.3c-1,0-1.9,0.2-2.8,0.6c-0.9,0.4-1.6,1-2.3,1.7c-2.2,2.5-5.6,8.7-5.6,8.7l9.2,5.6l6.5-10.6
	C334.9,104.8,333.2,102.8,331,101.3z"/>
<path class="st2" d="M348.6,145c0,0,4.4,1.1,6.5-2s5.1-10.5,5.1-10.5c-3.8,1.4-7.9,1.9-12,1.4l-0.2-3.3l-8.6,8.9l9,8.1L348.6,145z"
	/>
<path class="st2" d="M361.6,130c0.4-0.8,0.7-1.8,0.7-2.7c0-1-0.1-1.9-0.5-2.8c-1.2-3.1-5.3-8.9-5.3-8.9l-9.1,5.7l6.7,10.5
	C356.8,132,359.4,131.3,361.6,130z"/>
<path class="st7" d="M284.5,65.1h42.7V49.3h-42.7V65.1z"/>
<path class="st5" d="M402.8,65c0,0.2-29.8,0.3-66.6,0.3s-66.6-0.1-66.6-0.3s29.8-0.3,66.6-0.3S402.8,64.9,402.8,65z"/>
<path class="st4" d="M522.2,177.6l2.2-1.3l3,3.1l-1.4,2.2c0.4,0.8,0.8,1.7,1,2.6l2.5,0.6l-0.1,4.3l-2.5,0.5
	c-0.3,0.9-0.6,1.8-1.1,2.6l1.3,2.2l-3.1,3l-2.2-1.4c-0.8,0.4-1.7,0.8-2.6,1l-0.6,2.5l-4.3-0.1l-0.5-2.5c-0.9-0.3-1.8-0.6-2.6-1.1
	l-2.2,1.3l-3-3.1l1.4-2.2c-0.4-0.8-0.8-1.7-1-2.6l-2.5-0.6l0.1-4.3l2.5-0.5c0.3-0.9,0.6-1.8,1.1-2.6l-1.4-2.2l3.1-3l2.2,1.4
	c0.8-0.4,1.7-0.8,2.6-1l0.6-2.5l4.3,0.1l0.5,2.5C520.5,176.8,521.4,177.1,522.2,177.6L522.2,177.6z M513.4,183.2
	c-0.7,0.6-1.1,1.4-1.3,2.3c-0.2,0.9-0.1,1.8,0.2,2.7c0.3,0.8,0.9,1.6,1.7,2.1c0.7,0.5,1.6,0.8,2.5,0.8c0.9,0,1.8-0.2,2.6-0.7
	c0.8-0.5,1.4-1.2,1.7-2s0.5-1.8,0.3-2.6c-0.2-0.9-0.6-1.7-1.2-2.4c-0.4-0.4-0.9-0.8-1.5-1c-0.6-0.2-1.1-0.4-1.8-0.4
	c-0.6,0-1.2,0.1-1.8,0.3C514.4,182.4,513.9,182.8,513.4,183.2z"/>
<path class="st4" d="M477.2,183.3l2.6,0.4l0.3,4.3l-2.5,0.7c-0.2,0.9-0.5,1.8-0.9,2.6l1.5,2.1l-2.8,3.2l-2.3-1.2
	c-0.8,0.5-1.6,0.9-2.5,1.2l-0.4,2.6l-4.3,0.3l-0.7-2.5c-0.9-0.2-1.8-0.5-2.6-0.9l-2.1,1.5l-3.2-2.8l1.2-2.3
	c-0.5-0.8-0.9-1.6-1.2-2.5l-2.6-0.4l-0.3-4.3l2.5-0.7c0.2-0.9,0.5-1.8,0.9-2.6l-1.5-2.1l2.8-3.2l2.3,1.2c0.8-0.5,1.6-0.9,2.5-1.2
	l0.4-2.5l4.3-0.3l0.7,2.5c0.9,0.2,1.8,0.5,2.6,0.9l2.1-1.5l3.2,2.8l-1.3,2.3C476.5,181.6,476.9,182.4,477.2,183.3L477.2,183.3z
	 M467.7,181.9c-1-0.1-1.9,0.1-2.8,0.6c-0.8,0.5-1.5,1.2-1.9,2.1c-0.4,0.9-0.5,1.9-0.3,2.8c0.2,1,0.7,1.8,1.4,2.5
	c0.7,0.6,1.6,1.1,2.6,1.1c1,0.1,1.9-0.1,2.8-0.6c0.8-0.5,1.5-1.2,1.9-2.1s0.5-1.9,0.3-2.8c-0.2-0.9-0.7-1.8-1.4-2.4
	C469.5,182.4,468.6,182,467.7,181.9z"/>
<path class="st4" d="M429.3,183.3l2.5,0.4l0.3,4.3l-2.5,0.7c-0.2,0.9-0.5,1.8-0.9,2.6l1.5,2.1l-2.8,3.2l-2.3-1.2
	c-0.8,0.5-1.6,0.9-2.5,1.2l-0.4,2.6l-4.3,0.3l-0.7-2.5c-0.9-0.2-1.8-0.5-2.6-0.9l-2.1,1.5l-3.2-2.8l1.2-2.3
	c-0.5-0.8-0.9-1.6-1.2-2.5l-2.6-0.4l-0.3-4.3l2.5-0.7c0.2-0.9,0.5-1.8,0.9-2.6l-1.5-2.1l2.8-3.2l2.3,1.2c0.8-0.5,1.6-0.9,2.5-1.2
	l0.4-2.5l4.3-0.3l0.7,2.5c0.9,0.2,1.8,0.5,2.6,0.9l2.1-1.5l3.2,2.8l-1.3,2.3C428.5,181.6,428.9,182.4,429.3,183.3L429.3,183.3z
	 M419.7,181.9c-1-0.1-1.9,0.1-2.8,0.6c-0.8,0.5-1.5,1.2-1.9,2.1c-0.4,0.9-0.5,1.9-0.3,2.8s0.7,1.8,1.4,2.5c0.7,0.6,1.6,1.1,2.6,1.1
	c1,0.1,1.9-0.1,2.8-0.6c0.8-0.5,1.5-1.2,1.9-2.1s0.5-1.9,0.3-2.8c-0.2-0.9-0.7-1.8-1.4-2.4C421.5,182.4,420.6,182,419.7,181.9z"/>
<path class="st4" d="M262.3,183.3l2.6,0.4l0.3,4.3l-2.5,0.7c-0.2,0.9-0.5,1.8-0.9,2.6l1.5,2.1l-2.8,3.2l-2.3-1.2
	c-0.8,0.5-1.6,0.9-2.5,1.2l-0.4,2.6l-4.3,0.3l-0.7-2.5c-0.9-0.2-1.8-0.5-2.6-0.9l-2.1,1.5l-3.2-2.8l1.2-2.3
	c-0.5-0.8-0.9-1.6-1.2-2.5l-2.5-0.4l-0.3-4.3l2.5-0.7c0.2-0.9,0.5-1.8,0.9-2.6l-1.5-2.1l2.8-3.2l2.3,1.2c0.8-0.5,1.6-0.9,2.5-1.2
	l0.4-2.6l4.3-0.3l0.7,2.5c0.9,0.2,1.8,0.5,2.6,0.9l2.1-1.5l3.2,2.8l-1.2,2.3C261.6,181.6,262,182.4,262.3,183.3L262.3,183.3z
	 M252.7,181.9c-1-0.1-1.9,0.1-2.8,0.6c-0.8,0.5-1.5,1.2-1.9,2.1c-0.4,0.9-0.5,1.9-0.3,2.8s0.7,1.8,1.4,2.5c0.7,0.6,1.6,1.1,2.6,1.1
	c1,0.1,1.9-0.1,2.8-0.6c0.8-0.5,1.5-1.2,1.9-2.1s0.5-1.9,0.3-2.8c-0.2-0.9-0.7-1.8-1.4-2.4C254.6,182.4,253.7,182,252.7,181.9z"/>
<path class="st4" d="M213.5,183.3l2.6,0.4l0.3,4.3l-2.5,0.7c-0.2,0.9-0.5,1.8-0.9,2.6l1.5,2.1l-2.8,3.2l-2.3-1.2
	c-0.8,0.5-1.6,0.9-2.5,1.2l-0.4,2.6l-4.3,0.3l-0.7-2.5c-0.9-0.2-1.8-0.5-2.6-0.9l-2.1,1.5l-3.2-2.8l1.3-2.3
	c-0.5-0.8-0.9-1.6-1.2-2.5l-2.6-0.4l-0.3-4.3l2.5-0.7c0.2-0.9,0.5-1.8,0.9-2.6l-1.5-2.1l2.8-3.2l2.3,1.2c0.8-0.5,1.6-0.9,2.5-1.2
	l0.4-2.5l4.3-0.3l0.7,2.5c0.9,0.2,1.8,0.5,2.6,0.9l2.1-1.5l3.2,2.8l-1.2,2.3C212.8,181.6,213.2,182.4,213.5,183.3L213.5,183.3z
	 M203.9,181.9c-1-0.1-1.9,0.1-2.8,0.6c-0.8,0.5-1.5,1.2-1.9,2.1c-0.4,0.9-0.5,1.9-0.3,2.8s0.7,1.8,1.4,2.5c0.7,0.6,1.6,1.1,2.6,1.1
	c1,0.1,1.9-0.1,2.8-0.6c0.8-0.5,1.5-1.2,1.9-2.1s0.5-1.9,0.3-2.8c-0.2-0.9-0.7-1.8-1.4-2.4C205.8,182.4,204.9,182,203.9,181.9z"/>
<path class="st1" d="M485.2,279.1c0,0.4-0.1,0.9-0.4,1.2c-0.3,0.4-0.6,0.6-1,0.8c0.2,0,0.4,0.1,0.6,0.2c0.2,0.1,0.4,0.2,0.5,0.4
	c0.1,0.2,0.2,0.4,0.3,0.6c0.1,0.2,0.1,0.4,0,0.6c0,0.4-0.1,0.9-0.3,1.3c-0.2,0.4-0.5,0.7-0.9,0.9c0.4,0.1,0.8,0.4,1,0.7
	c0.2,0.4,0.4,0.8,0.3,1.2c-0.1,1.6-1.9,1.9-1.9,1.9s1.6,0.1,1.7,1.6c0,1.5-1.7,1.9-1.7,1.9l1.5,1.7l-0.3,5.6c0,0.3-0.1,0.6-0.2,0.9
	c-0.1,0.3-0.3,0.5-0.6,0.7l-5.1,4l-6.5-0.4l-0.9-0.1l-4.6-4.6c-0.2-0.2-0.4-0.5-0.5-0.8c-0.1-0.3-0.2-0.6-0.1-0.9l0.3-5.6l1.7-1.5
	c0,0-1.7-0.6-1.5-2.1c0.2-1.5,1.9-1.4,1.9-1.4c-0.5-0.1-0.9-0.4-1.2-0.8c-0.3-0.4-0.5-0.9-0.5-1.3c0-0.4,0.2-0.8,0.4-1.2
	c0.3-0.3,0.7-0.5,1.1-0.6c-0.4-0.3-0.6-0.6-0.8-1c-0.2-0.4-0.2-0.9-0.2-1.3c0-0.2,0-0.4,0.1-0.6c0.1-0.2,0.2-0.4,0.3-0.5
	c0.2-0.2,0.3-0.3,0.5-0.3c0.2-0.1,0.4-0.1,0.6-0.1c-0.4-0.2-0.7-0.5-1-0.9c-0.2-0.4-0.3-0.8-0.2-1.3c0-0.4,0.1-0.9,0.4-1.2
	c0.3-0.4,0.6-0.6,1-0.7l-1.7-2l0.7-11.8c0.3-0.7,0.8-1.3,1.4-1.8c0.7-0.4,1.4-0.6,2.2-0.5c0.8,0,1.5,0.3,2.1,0.8
	c0.6,0.5,0.9,1.2,1,2c0,0,0.2-2.6,2.6-2.5h0.3c2.4,0.2,2.3,2.8,2.3,2.8c0.2-0.8,0.6-1.4,1.2-1.9c0.6-0.5,1.4-0.7,2.2-0.6
	c0.8,0,1.5,0.3,2.1,0.7c0.6,0.5,1,1.2,1.2,1.9l-0.7,11.8L484,277c0.4,0.2,0.7,0.5,0.9,0.9C485.2,278.3,485.3,278.7,485.2,279.1z"/>
<path class="st5" d="M483.3,292.4c-2.7-0.4-5.3-0.6-8-0.7c-2.7-0.2-5.3-0.3-8-0.3c2.7,0.4,5.3,0.6,8,0.7
	C478,292.4,480.7,292.5,483.3,292.4z"/>
<path class="st5" d="M484.7,294.1c0-0.1-4.1-0.5-9.3-0.8c-5.1-0.3-9.3-0.4-9.3-0.3s4.1,0.5,9.3,0.8
	C480.5,294.1,484.7,294.2,484.7,294.1z"/>
<path class="st5" d="M483.7,288.9c-2.6-0.4-5.3-0.6-7.9-0.7c-2.7-0.2-5.3-0.3-8-0.2c2.6,0.4,5.3,0.6,7.9,0.7
	C478.4,288.8,481.1,288.9,483.7,288.9z"/>
<path class="st5" d="M483.9,285.2c-2.6-0.4-5.3-0.6-7.9-0.7c-2.7-0.2-5.3-0.3-8-0.3c2.7,0.4,5.3,0.6,8,0.7
	C478.6,285.2,481.3,285.3,483.9,285.2z"/>
<path class="st5" d="M484.2,281.3c-5.3-0.6-10.6-0.9-15.9-0.9c2.6,0.4,5.3,0.6,7.9,0.7C478.9,281.2,481.5,281.3,484.2,281.3z"/>
<path class="st5" d="M484.4,277.3c-2.7-0.4-5.3-0.6-8-0.7c-2.7-0.2-5.3-0.3-8-0.3c2.6,0.4,5.3,0.6,7.9,0.7
	C479,277.3,481.7,277.4,484.4,277.3z"/>
<path class="st5" d="M485.9,275.1c0-0.1-4.2-0.5-9.3-0.8c-5.2-0.3-9.3-0.4-9.4-0.3s4.2,0.5,9.3,0.8
	C481.7,275.1,485.9,275.3,485.9,275.1z"/>
<path class="st6" d="M478.3,305.2l-6.9-0.4c-0.5,0-0.9,0.3-0.9,0.8l-0.1,2.3c0,0.5,0.3,0.9,0.8,0.9l6.9,0.4c0.5,0,0.9-0.3,0.9-0.8
	l0.1-2.3C479.1,305.7,478.8,305.2,478.3,305.2z"/>
<path class="st5" d="M471.8,304.9c-0.3,0.6-0.4,1.3-0.4,2c-0.1,0.7-0.1,1.3,0.1,2c0.3-0.6,0.4-1.3,0.4-2
	C472,306.2,472,305.5,471.8,304.9z"/>
<path class="st5" d="M473.3,305.1c-0.3,0.6-0.4,1.3-0.4,2c-0.1,0.7-0.1,1.3,0.1,2c0.3-0.6,0.4-1.3,0.3-2
	C473.5,306.4,473.5,305.7,473.3,305.1z"/>
<path class="st5" d="M474.8,305.1c-0.4,1.3-0.5,2.7-0.3,4C474.9,307.8,475,306.4,474.8,305.1z"/>
<path class="st5" d="M476.4,305.2c-0.3,0.6-0.4,1.3-0.3,2c-0.1,0.7-0.1,1.3,0.1,2C476.5,307.9,476.6,306.6,476.4,305.2z"/>
<path class="st5" d="M477.8,305.3c-0.4,1.3-0.5,2.7-0.3,4C478,308,478,306.7,477.8,305.3z"/>
<path class="st1" d="M438,294.7c1.2-2.2,2.8-4.2,4.8-5.9l-15.2-8.7c-0.8-0.4-1.6-1-2.1-1.7c-0.3-0.4-0.4-0.8-0.4-1.3
	c0-0.5,0.2-0.9,0.4-1.3c0.3-0.3,0.7-0.5,1.2-0.6c0.4-0.1,0.9-0.1,1.3,0c3,0.2,5.9,0.8,8.7,1.9c-1.2-1.9-2.4-3.8-3.6-5.7
	c-0.5-0.8-1-1.8-0.5-2.6c0.5-0.8,1.7-0.7,2.6-0.5c1.9,0.6,3.7,1.7,5.1,3.1c1.4,1.4,2.4,3.2,2.9,5.2c-0.2-4.2,0.3-8.4,1.3-12.5
	c0.3-1.1,0.7-2.4,1.8-2.9c0.6-0.2,1.2-0.2,1.8,0c0.6,0.2,1.1,0.5,1.4,1c0.7,1,1.1,2.1,1.2,3.3c1.3,7.2,0.6,14.6-1.9,21.5
	c3,0.2,6,1.9,8.6,3.6c9.6,6.5,17.8,14.9,24.1,24.7c0,0,12.6,21.3-3.3,33.2c-5.1,3.8-10.6,3.3-16.9,3.4s-13.1,1.4-19.2-0.2
	c-4.9-1.3-10.1-2.9-13.3-6.8c-4.2-5.1-3.9-12.4-2.7-18.9C428.2,314.9,432.2,304.4,438,294.7z"/>
<path class="st6" d="M478.3,279.6l-27,27.8c-0.7,0.8-1.2,1.8-1.1,2.9c0,1.1,0.5,2.1,1.2,2.9l25.3,24.6c0.8,0.7,1.8,1.2,2.9,1.1
	s2.1-0.5,2.9-1.2l26.3-27c0.6-0.6,1-1.4,1.1-2.3l1.9-13.7c0.1-0.6,0-1.3-0.2-1.9c-0.2-0.6-0.6-1.1-1-1.6l-8.3-8.1
	c-0.6-0.5-1.2-0.9-2-1.1l-18.3-3.6c-0.7-0.1-1.3-0.1-2,0.1C479.4,278.8,478.8,279.2,478.3,279.6z M484.6,283.6l11.6,2.3
	c0.8,0.2,1.5,0.6,1.9,1.3c0.4,0.7,0.6,1.5,0.5,2.2c-0.2,0.8-0.6,1.5-1.3,1.9c-0.7,0.4-1.5,0.6-2.2,0.5l-11.6-2.3
	c-0.7-0.2-1.3-0.7-1.7-1.3s-0.5-1.4-0.4-2.1c0.1-0.7,0.6-1.4,1.1-1.8C483.1,283.7,483.9,283.5,484.6,283.6z"/>
<path class="st6" d="M502.5,283.5l7.8,7.6l2.7-2.8l-7.8-7.6L502.5,283.5z"/>
<path class="st6" d="M502.8,281.6l9.7,9.4c0.4,0.4,1.1,0.4,1.5,0l2.1-2.1c0.4-0.4,0.4-1.1,0-1.5l-9.7-9.4c-0.4-0.4-1.1-0.4-1.5,0
	l-2.1,2.1C502.4,280.4,502.4,281.1,502.8,281.6z"/>
<g class="st8">
	<path d="M480.2,322.1c0,0,0.3-0.3,0.8-0.9l2.2-2.3l7.7-8v0.3l-11.1-10.7h0.4l0,0.1l-0.1,0.1l-0.2,0.2l-0.4,0.4l-0.7,0.8
		c-0.5,0.5-1,1-1.4,1.5l-2.8,2.8l-5.1,5.2v-0.3l7.9,7.8l2.2,2.2C480,321.7,480.2,322,480.2,322.1c-0.3-0.2-0.5-0.5-0.8-0.7l-2.3-2.1
		l-8.2-7.8l-0.2-0.2l0.2-0.2l5-5.2l2.8-2.9l1.4-1.5l0.7-0.7l0.4-0.4l0.2-0.2l0.1-0.1v0c-0.3,0,0.4,0,0.4,0l11,10.8l0.2,0.2l-0.2,0.2
		l-7.9,8l-2.1,2.1C480.8,321.6,480.5,321.8,480.2,322.1z"/>
</g>
<g class="st8">
	<path d="M498.1,310.8c-1.2,0.3-2.4,0.4-3.5,0.4c-1.2,0.1-2.4,0-3.5-0.2c1.2-0.3,2.4-0.4,3.5-0.4
		C495.7,310.5,496.9,310.6,498.1,310.8z"/>
</g>
<g class="st8">
	<path d="M480,293.1c0.4,2.4,0.4,4.8,0,7.1c-0.2-1.2-0.3-2.4-0.2-3.6C479.7,295.5,479.8,294.3,480,293.1z"/>
</g>
<g class="st8">
	<path d="M462,311.5c1.2-0.3,2.4-0.4,3.6-0.4c1.2-0.1,2.4-0.1,3.6,0.2c-1.2,0.3-2.4,0.4-3.6,0.4C464.4,311.8,463.2,311.7,462,311.5z
		"/>
</g>
<g class="st8">
	<path d="M480.2,329.2c-0.2-1.2-0.3-2.4-0.2-3.6c-0.1-1.2,0-2.4,0.3-3.6C480.6,324.4,480.6,326.8,480.2,329.2L480.2,329.2z"/>
</g>
<path class="st5" d="M424.8,460.8h92.6v-3.3h-92.6V460.8z"/>
<path class="st7" d="M532.5,301l-0.2,14.5H411.7V301H532.5z"/>
<path class="st7" d="M526.3,310.6l-14,148.3c-0.2,1.5-0.9,2.8-2,3.8c-1.1,1-2.5,1.5-4,1.5H435c-1.5,0-2.9-0.6-3.9-1.6
	s-1.7-2.4-1.7-3.8l-11.5-148.2H526.3z"/>
<path class="st2" d="M494.1,375c0,0,3.2,3.2,1.8,6.6c-1.5,3.4-6.3,10-6.3,10c-0.8-4-2.6-7.8-5.1-11.1l-2.9,1.6l3.1-12.2l11.7,3.5
	L494.1,375z"/>
<path class="st2" d="M488.1,394.2c-0.5,0.8-1.2,1.5-2,2.1c-0.8,0.5-1.7,0.9-2.7,1.1c-3.3,0.6-10.5,0.1-10.5,0.1l0.1-10.9l12.6,0.1
	C487.2,388.9,488,391.5,488.1,394.2z"/>
<path class="st2" d="M458.2,358.2c0,0,1-4.4,4.7-5c3.7-0.6,11.8,0.1,11.8,0.1c-3,2.8-5.3,6.4-6.7,10.3l2.9,1.6l-12,3.9l-3.3-11.8
	L458.2,358.2z"/>
<path class="st2" d="M477.6,353.1c1,0,1.9,0.2,2.8,0.6c0.9,0.4,1.7,1,2.3,1.7c2.2,2.5,5.7,8.8,5.7,8.8l-9.3,5.7l-6.6-10.8
	C473.7,356.6,475.4,354.6,477.6,353.1z"/>
<path class="st2" d="M459.8,397.3c0,0-4.4,1.1-6.6-2c-2.1-3.1-5.2-10.6-5.2-10.6c3.9,1.4,8,1.9,12.1,1.4l0.1-3.3l8.8,9.1l-9.1,8.2
	L459.8,397.3z"/>
<path class="st2" d="M446.6,382.2c-0.4-0.9-0.7-1.8-0.7-2.8c0-1,0.1-1.9,0.5-2.8c1.2-3.1,5.4-9,5.4-9l9.2,5.8l-6.7,10.6
	C451.5,384.1,448.9,383.5,446.6,382.2z"/>
<g class="st8">
	<path d="M420.2,315.4c15,1,30.4,3.5,45.4,4.5c19.6,1.3,40,2.5,58.4-4.5H420.2z"/>
</g>
<path class="st5" d="M411.6,315.4c0-0.2,27.1-0.3,60.5-0.3s60.5,0.1,60.5,0.3c0,0.1-27.1,0.3-60.5,0.3S411.6,315.6,411.6,315.4z"/>
<path class="st5" d="M517.4,473.2c1,0,1.9-0.4,2.6-1.1c0.7-0.7,1.1-1.7,1.1-2.6v-20.6c0-1-0.4-1.9-1.1-2.6c-0.7-0.7-1.7-1.1-2.6-1.1
	c-0.5,0-1,0.1-1.4,0.3c-0.5,0.2-0.9,0.5-1.2,0.8c-0.3,0.3-0.6,0.8-0.8,1.2c-0.2,0.5-0.3,0.9-0.3,1.4v20.6c0,1,0.4,1.9,1.1,2.6
	C515.5,472.8,516.4,473.2,517.4,473.2z"/>
<path class="st5" d="M423.7,473.2c1,0,1.9-0.4,2.6-1.1c0.7-0.7,1.1-1.7,1.1-2.6v-20.6c0-0.5-0.1-1-0.3-1.4c-0.2-0.5-0.5-0.9-0.8-1.2
	c-0.3-0.3-0.8-0.6-1.2-0.8c-0.5-0.2-0.9-0.3-1.4-0.3c-0.5,0-1,0.1-1.4,0.3c-0.5,0.2-0.9,0.5-1.2,0.8c-0.3,0.3-0.6,0.8-0.8,1.2
	c-0.2,0.5-0.3,0.9-0.3,1.4v20.6c0,1,0.4,1.9,1.1,2.6C421.8,472.8,422.7,473.2,423.7,473.2z"/>
<path class="st5" d="M614.2,443.6l0.7,18.8c0,0-18.9,7-19.1,10.5l36.5-0.1l0.1-29.4L614.2,443.6z"/>
<path class="st1" d="M626.3,460.8c0.3,0.1,0.6,0.3,0.8,0.7c0.2,0.3,0.2,0.7,0.2,1c-0.1,0.3-0.3,0.6-0.6,0.8c-0.3,0.2-0.7,0.2-1,0.2
	c-0.4-0.1-0.7-0.4-0.9-0.7c-0.2-0.3-0.3-0.7-0.2-1.1c0.1-0.4,0.4-0.7,0.8-0.8C625.6,460.7,626,460.7,626.3,460.8"/>
<path class="st6" d="M632.4,472.9l-0.1-3l-35,1.2c0,0-1.6,0.7-1.4,1.9L632.4,472.9z"/>
<path class="st2" d="M614.4,462.2c0,0.2,0.9,0.3,1.8,0.8s1.3,1.3,1.5,1.3c0.2-0.1-0.1-1.1-1.2-1.8
	C615.4,461.8,614.3,462,614.4,462.2z"/>
<path class="st2" d="M610.5,463.8c0,0.2,0.7,0.5,1.3,1.2s0.8,1.6,1,1.6c0.2,0,0.3-1-0.5-1.9C611.6,463.7,610.5,463.6,610.5,463.8z"
	/>
<path class="st2" d="M608.4,468.4c0.2,0,0.4-0.9,0-1.8c-0.4-1-1.3-1.4-1.4-1.2s0.5,0.7,0.8,1.5S608.2,468.4,608.4,468.4z"/>
<path class="st2" d="M614.7,457.9c0.1,0.2,0.9-0.1,1.9,0c1,0.1,1.8,0.4,1.9,0.2c0.1-0.2-0.7-0.8-1.8-0.9S614.6,457.8,614.7,457.9z"
	/>
<path class="st5" d="M657.6,441.2l2,22.7l-3.6,18.4c-0.1,0.3-0.1,0.6,0,1c0.1,0.3,0.2,0.6,0.4,0.9c0.2,0.3,0.4,0.5,0.7,0.6
	c0.3,0.2,0.6,0.3,0.9,0.3c0.4,0,0.7,0,1.1-0.1c0.3-0.1,0.7-0.3,0.9-0.6c3.3-3.6,15.2-16.7,14.9-18.3c-0.3-1.9-0.5-24.1-0.5-24.1
	L657.6,441.2z"/>
<path class="st6" d="M658,485.1l16.8-20.6l0.1,1c0.1,0.8-0.2,1.7-0.7,2.3c-1.3,1.8-5.1,6.6-14.1,16.6c-0.3,0.3-0.6,0.5-0.9,0.6
	S658.4,485.2,658,485.1L658,485.1z"/>
<g class="st9">
	<path class="st2" d="M669.7,457.5c-0.3,0.2-0.4,0.5-0.5,0.9c0,0.3,0,0.7,0.2,1c0.2,0.3,0.5,0.5,0.9,0.5c0.3,0.1,0.7,0,1-0.2
		c0.3-0.2,0.5-0.6,0.5-0.9c0-0.4,0-0.7-0.3-1.1c-0.3-0.3-0.6-0.4-1-0.4c-0.4,0-0.7,0.1-1,0.4"/>
</g>
<path class="st2" d="M662.5,474.8c-0.6-0.7-1.3-1.2-2.1-1.6c-0.9-0.3-1.8-0.4-2.7-0.3c0,0,0.3-0.3,0.8-0.4c0.7-0.1,1.4,0,2.1,0.2
	c0.7,0.3,1.2,0.7,1.6,1.3C662.5,474.5,662.6,474.8,662.5,474.8z"/>
<path class="st2" d="M661.1,478c-0.7-0.3-1.4-0.6-2.1-0.9c-0.7-0.1-1.5-0.1-2.2-0.1c0.3-0.2,0.7-0.4,1.1-0.5c0.4-0.1,0.8,0,1.2,0.1
	C660.5,476.9,661.2,477.9,661.1,478z"/>
<path class="st2" d="M665.3,470.7c-1-0.6-2-1.1-3.1-1.5c-1.1-0.3-2.3-0.5-3.4-0.6c1.2-0.3,2.4-0.3,3.6,0.1
	C663.5,469.1,664.5,469.8,665.3,470.7z"/>
<path class="st2" d="M665.3,463.8c0,0.1-1.3-0.3-3-0.3c-1.7,0-2.9,0.5-3,0.4c0.9-0.6,1.9-1,3-0.9
	C663.3,462.9,664.4,463.2,665.3,463.8z"/>
<path class="st2" d="M664.9,457.1c-1-0.3-2.1-0.4-3.1-0.4c-1,0.2-2.1,0.5-3,1c0-0.1,0.2-0.4,0.7-0.7c0.7-0.4,1.4-0.7,2.2-0.8
	c0.8-0.1,1.6,0,2.3,0.3C664.6,456.8,664.9,457,664.9,457.1z"/>
<path class="st2" d="M661.7,455.5c-0.1-0.3-0.1-0.6-0.1-0.9c0-0.8,0.2-1.6,0.5-2.3c0.2-0.5,0.5-1,1-1.3c0.2-0.1,0.4-0.1,0.6-0.1
	c0.2,0,0.4,0.1,0.5,0.2c0.3,0.3,0.4,0.6,0.4,1c0,0.8-0.3,1.5-0.8,2.1c-0.5,0.6-1.2,1-1.9,1.1c-0.7,0.1-1.5,0-2.2-0.3
	c-0.7-0.3-1.3-0.8-1.7-1.5c-0.1-0.2-0.2-0.3-0.2-0.5c0-0.2,0-0.4,0.1-0.6c0.1-0.2,0.2-0.3,0.4-0.4c0.2-0.1,0.4-0.1,0.6-0.1
	c0.6,0.1,1.1,0.3,1.5,0.7c0.6,0.5,1.2,1,1.7,1.7c0.3,0.5,0.4,0.8,0.4,0.8c-0.6-0.8-1.4-1.5-2.3-2.1c-0.4-0.3-0.9-0.5-1.4-0.6
	c-0.1,0-0.2,0-0.3,0.1c-0.1,0.1-0.2,0.1-0.2,0.2c0,0.1,0,0.3,0,0.4c0,0.1,0.1,0.2,0.1,0.3c0.4,0.5,0.9,1,1.5,1.2
	c0.6,0.3,1.3,0.3,1.9,0.2c0.6-0.1,1.2-0.5,1.6-0.9c0.4-0.5,0.7-1.1,0.7-1.8c0-0.3-0.1-0.5-0.3-0.7c-0.1-0.1-0.2-0.1-0.3-0.1
	c-0.1,0-0.2,0-0.3,0.1c-0.4,0.3-0.7,0.7-0.9,1.1C662.1,453.4,661.8,454.4,661.7,455.5z"/>
<path class="st5" d="M597.2,290.1c-1.8,7.8-2.4,15.8-1.8,23.8c0.4,5.1,17.5,145,17.5,145H636l-6.5-131.5l1.9,0.4
	c0,0,12.6,56.1,13.6,65.2c0.9,8.2,11.5,67.5,11.5,67.5l21.1,0.2l-6.7-78.5L663,307l-3-21.9L597.2,290.1z"/>
<path class="st6" d="M630.3,318.5c0,0,0,0.1-0.2,0.2c-0.2,0.1-0.4,0.2-0.6,0.3c-0.4,0.1-0.8,0.1-1.2,0c-0.4-0.1-0.7-0.3-1-0.5
	c-0.4-0.4-0.8-0.8-1-1.3c-0.3-0.5-0.4-1.1-0.4-1.7c-0.2-1.3-0.2-2.6-0.3-4c-0.2-2.8-0.3-5.4-0.3-7.3c-0.1-1-0.1-2,0-3
	c0.2,1,0.3,2,0.3,3c0.1,1.9,0.3,4.4,0.5,7.3c0.1,1.4,0.1,2.8,0.3,4c0.1,1.1,0.5,2.1,1.3,2.8c0.3,0.2,0.6,0.4,0.9,0.5
	c0.3,0.1,0.7,0.1,1.1,0.1C629.9,318.7,630.1,318.6,630.3,318.5z"/>
<path class="st5" d="M606.9,152.7c-1.1,0.1-2.1-0.3-2.9-0.9s-1.4-1.6-1.5-2.6c-0.2-1,0-2.1,0.6-3c0.6-0.9,1.4-1.5,2.5-1.8
	c-0.6-0.7-1-1.6-1.1-2.5c-0.1-0.9,0.1-1.9,0.6-2.7c0.5-0.8,1.2-1.4,2-1.8s1.8-0.5,2.7-0.3c0.1-0.9,0.4-1.8,0.9-2.5
	c0.5-0.8,1.2-1.4,2.1-1.8c0.8-0.4,1.7-0.6,2.7-0.5c0.9,0.1,1.8,0.4,2.6,0.9c1.1-0.8,2.4-1.2,3.7-1.1c1.3,0,2.6,0.5,3.6,1.4
	c0.9-0.1,1.8,0.1,2.6,0.5s1.4,1.1,1.8,1.9c0.4,0.8,0.5,1.8,0.3,2.6c-0.2,0.9-0.7,1.7-1.3,2.3"/>
<path class="st10" d="M626,137.6h-0.9c-4.5-0.2-9,1.3-12.5,4.2c-3.5,2.9-5.8,7-6.3,11.5c-1.1,8.7-2.3,18.3-2.5,23
	C603.4,186,613,188,613,188l-0.4,12.2l22.5-0.1l4.2-42.1C640.7,147.9,636,138.7,626,137.6z"/>
<path class="st11" d="M612.9,187.9c4.5,0.2,9-0.9,12.9-3.1c0,0-3.3,6.8-13,5.5L612.9,187.9z"/>
<path class="st5" d="M608.6,162.2c0,0.4,0.1,0.7,0.3,1c0.2,0.3,0.6,0.4,0.9,0.5c0.2,0,0.4,0,0.5,0c0.2,0,0.3-0.1,0.5-0.2
	s0.3-0.2,0.3-0.4c0.1-0.2,0.1-0.3,0.2-0.5c0-0.4-0.1-0.7-0.3-1c-0.2-0.3-0.6-0.4-0.9-0.5c-0.2,0-0.4,0-0.5,0c-0.2,0-0.3,0.1-0.5,0.2
	c-0.1,0.1-0.3,0.2-0.3,0.4C608.6,161.9,608.6,162,608.6,162.2z"/>
<path class="st5" d="M608.1,158.1c0.2,0.2,1.3-0.5,2.7-0.4s2.5,0.9,2.7,0.7c0.2-0.2-0.1-0.4-0.5-0.8c-0.6-0.5-1.4-0.8-2.2-0.8
	c-0.8,0-1.5,0.2-2.2,0.6C608.2,157.7,608,158,608.1,158.1z"/>
<path class="st5" d="M622.3,162.6c0,0.4,0.1,0.7,0.3,1c0.2,0.3,0.6,0.4,0.9,0.5c0.2,0,0.4,0,0.5,0c0.2,0,0.3-0.1,0.5-0.2
	c0.1-0.1,0.3-0.2,0.3-0.4c0.1-0.2,0.1-0.3,0.2-0.5c0-0.4-0.1-0.7-0.3-1s-0.6-0.4-0.9-0.5c-0.2,0-0.4,0-0.5,0c-0.2,0-0.3,0.1-0.5,0.2
	c-0.1,0.1-0.3,0.2-0.3,0.4C622.4,162.2,622.4,162.4,622.3,162.6z"/>
<path class="st5" d="M622.7,159.1c0.2,0.2,1.3-0.5,2.7-0.5c1.5,0.1,2.5,0.9,2.7,0.7c0.2-0.2-0.1-0.4-0.5-0.8
	c-0.6-0.5-1.4-0.7-2.2-0.8c-0.8,0-1.5,0.2-2.2,0.6C622.8,158.7,622.6,159,622.7,159.1z"/>
<path class="st5" d="M616.7,169.9c-0.8-0.3-1.6-0.5-2.4-0.6c-0.4-0.1-0.7-0.1-0.8-0.4c0-0.4,0.1-0.8,0.3-1.1
	c0.4-0.9,0.8-1.8,1.3-2.8c1.8-4,3.1-7.4,2.9-7.4c-0.2-0.1-1.7,3.1-3.5,7.2l-1.2,2.9c-0.3,0.4-0.4,1-0.3,1.5c0,0.1,0.1,0.3,0.2,0.4
	c0.1,0.1,0.2,0.2,0.4,0.2c0.2,0.1,0.4,0.1,0.6,0.1C615.1,169.9,615.9,170,616.7,169.9z"/>
<path class="st5" d="M621.7,153.3c0.2,0.4,1.5,0,3,0.1c1.5,0.1,2.9,0.3,3,0c0.1-0.2-0.2-0.5-0.7-0.9c-0.7-0.4-1.5-0.6-2.3-0.6
	c-0.8,0-1.6,0.2-2.3,0.6C621.8,152.8,621.6,153.1,621.7,153.3z"/>
<path class="st5" d="M608.3,152c0.3,0.4,1.5,0.1,3,0.1c1.5,0.1,2.7,0.4,3,0c0.1-0.2,0-0.5-0.6-0.9c-0.7-0.4-1.6-0.7-2.4-0.7
	c-0.8,0-1.7,0.2-2.5,0.6C608.4,151.5,608.2,151.8,608.3,152z"/>
<path class="st5" d="M607.4,148.9c0,0,2.9-5.9,5.9-7.2c3.6-1.5,5,2.4,8.4,1.7c3.4-0.8,6.9-2.3,10.2,0.5c3.6,3,1.8,4.9,1.8,9.3
	c0.1,17.5,3,22.6,4.3,14.4c0.1-0.9,2.7-1.5,3.2-5.3c0.7-4.9,1.2-10.9,0.3-14.4c-0.8-3-2.4-5.1-5.3-7.5c-4.6-3.8-11.1-4.2-15.6-4
	C616.2,136.6,607.3,141.3,607.4,148.9z"/>
<path class="st10" d="M637.3,167.2c0-0.4,0.1-0.7,0.3-1c0.2-0.3,0.4-0.6,0.7-0.8c0.3-0.2,0.6-0.4,0.9-0.5c0.3-0.1,0.7-0.1,1.1-0.1
	c1.8,0.3,3.8,1.4,3.5,5.1c-0.5,6.6-7.1,4.7-7.1,4.5C636.7,174.3,637.1,170,637.3,167.2z"/>
<path class="st11" d="M638.3,172.1c0,0,0.1,0.1,0.3,0.2c0.3,0.1,0.6,0.2,0.9,0.1c0.4-0.2,0.8-0.6,1.1-1c0.3-0.4,0.4-0.9,0.4-1.4
	c0.1-0.6,0-1.1-0.2-1.7c0-0.2-0.1-0.4-0.3-0.6c-0.1-0.2-0.3-0.3-0.5-0.4c-0.1,0-0.3,0-0.4,0c-0.1,0-0.2,0.1-0.3,0.3
	c-0.1,0.2-0.1,0.3-0.1,0.3c0,0-0.1-0.1-0.1-0.4c0-0.2,0.2-0.3,0.3-0.4c0.2-0.1,0.4-0.2,0.7-0.1c0.3,0.1,0.5,0.2,0.7,0.4
	c0.2,0.2,0.3,0.4,0.4,0.7c0.2,0.6,0.3,1.2,0.3,1.9c0,0.6-0.2,1.2-0.5,1.6c-0.3,0.5-0.8,0.9-1.4,1.1c-0.2,0-0.4,0-0.5,0
	c-0.2,0-0.3-0.1-0.5-0.2C638.3,172.3,638.3,172.1,638.3,172.1z"/>
<path class="st5" d="M637.8,154.4c-0.8,0.6-1.8,1-2.9,1.1c-0.5,0.1-1-0.1-1.5-0.4c-0.4-0.3-0.7-0.7-0.9-1.3c0-0.5,0.1-1-0.2-1.4
	s-1-0.3-1.6-0.3c-1.9,0.1-4.1-2.1-4.5-4c-0.3,0.3-0.7,0.6-1.1,0.6s-0.9,0-1.2-0.3c-0.6-0.4-1.1-0.9-1.5-1.5c-0.2-0.4-0.6-0.7-1-0.9
	c-0.4-0.2-0.8-0.3-1.3-0.3c-0.5,0.1-1,0.2-1.5,0.2c-0.9-0.1-1.2-1.2-1.3-2c-0.1-0.8-0.1-1.9-0.9-2.4c-0.7-0.3-1.6-0.4-2.4-0.2
	c-0.8,0.1-1.8-0.2-2-1c0-0.2,0-0.4,0.1-0.6c0.1-0.2,0.2-0.4,0.3-0.6c0.6-0.8,1.4-1.3,2.3-1.6c0.9-0.2,1.9-0.2,2.8,0.2
	c0.4-1.1,1.1-2,2-2.7c0.9-0.7,2-1.1,3.2-1.2c1.1-0.1,2.3,0.2,3.3,0.8c1,0.6,1.8,1.4,2.3,2.5c0.7-0.6,1.6-1,2.5-1.2
	c0.9-0.2,1.9-0.2,2.8,0.1c0.9,0.3,1.8,0.7,2.4,1.4c0.7,0.7,1.2,1.5,1.5,2.4c0.8-0.2,1.7-0.1,2.5,0.2c0.8,0.3,1.5,0.8,1.9,1.5
	c0.5,0.7,0.7,1.5,0.8,2.3c0,0.8-0.2,1.7-0.7,2.4c0.6,0.3,1.1,0.8,1.5,1.4c0.4,0.6,0.6,1.3,0.6,1.9c0,1.4-1.5,2.7-2.8,2.2
	c0.2,0.6,0.3,1.2,0.1,1.7c-0.2,0.6-0.6,1-1.2,1.3c-0.5,0.3-1.2,0.3-1.7,0.2s-1.1-0.6-1.4-1.1"/>
<path class="st6" d="M617.2,139.9c0,0,0,0,0,0.1c0,0.1,0,0.2,0,0.4c0.1,0.5,0.2,0.9,0.4,1.3c0.3,0.6,0.8,1.2,1.4,1.6
	c0.8,0.6,1.7,0.9,2.7,0.9l-0.1-0.2c-0.1,0.3-0.2,0.6-0.2,0.9c0,0.3,0.1,0.6,0.2,0.9c0.3,0.6,0.6,1.2,1.1,1.7
	c0.2,0.3,0.4,0.6,0.7,0.8c0.3,0.2,0.6,0.4,1,0.4c0.4,0.1,0.8,0.1,1.2-0.1c0.4-0.1,0.7-0.3,1-0.6l-0.2-0.1c0.1,0.7,0.3,1.4,0.6,2
	c0.3,0.6,0.8,1.1,1.3,1.6c0.6,0.5,1.4,0.8,2.1,0.8c0.7,0,1.5-0.1,2.2-0.4l-0.2-0.1c0.3,0.8,0.8,1.5,1.5,2.1c0.3,0.3,0.7,0.5,1.1,0.6
	c0.4,0.1,0.8,0.2,1.2,0.1c0.7-0.1,1.4-0.4,1.9-0.9c0.5-0.5,0.9-1.1,1.1-1.8l-0.2,0.1c0.7,0.4,1.5,0.6,2.3,0.5
	c0.6-0.1,1.1-0.3,1.6-0.6c0.3-0.2,0.6-0.5,0.8-0.8c0.1-0.1,0.1-0.2,0.2-0.3c-0.3,0.4-0.6,0.7-1,1c-0.5,0.3-1,0.5-1.6,0.6
	c-0.7,0.1-1.5-0.1-2.1-0.5l-0.1-0.1v0.1c-0.2,0.6-0.5,1.2-1,1.7c-0.5,0.4-1.1,0.7-1.8,0.8c-0.4,0-0.8,0-1.1-0.1
	c-0.4-0.1-0.7-0.3-1-0.6c-0.6-0.5-1.1-1.2-1.4-2l0-0.1h-0.1c-0.7,0.2-1.4,0.3-2.1,0.4c-0.7,0-1.4-0.3-2-0.8c-0.5-0.4-1-0.9-1.3-1.5
	c-0.3-0.6-0.5-1.2-0.6-1.9v-0.3l-0.2,0.2c-0.2,0.2-0.6,0.4-0.9,0.5c-0.3,0.1-0.7,0.1-1,0.1c-0.3,0-0.6-0.2-0.9-0.4
	c-0.3-0.2-0.5-0.5-0.7-0.8c-0.4-0.5-0.7-1-1-1.6c-0.2-0.5-0.3-1.1-0.1-1.7l0.1-0.2h-0.2c-0.9,0-1.8-0.3-2.6-0.8
	c-0.6-0.4-1-0.9-1.4-1.6C617.5,141,617.3,140.5,617.2,139.9z"/>
<path class="st5" d="M616.8,175c0-0.3,1.7,0.2,3.2-0.9c1.5-1.1,1.8-2.8,2-2.8c0.2,0,0.2,0.5,0,1.2c-0.2,0.9-0.8,1.8-1.6,2.4
	c-0.8,0.5-1.7,0.8-2.6,0.7C617.1,175.4,616.8,175.1,616.8,175z"/>
<path class="st6" d="M598.2,199.5l14.7-5.9c0,0,0,5.5,5.5,5.9c9.1,0.7,18.1-8.5,18.1-8.5s16.2,4.3,20.5,6.8
	c4.3,2.5-0.2,65.1-0.2,65.1l1,18.7c1.4,1.7,2.3,3.8,2.7,6c0.4,3.2,0.8,5.3,0.8,5.3c-23.2,9.7-46.4,18.4-69.1,14.5
	c0,0-0.8-11,0.1-14.1c0.9-3.1,0.7-3.4,0.7-3.4l-0.3-32.9l-0.3-32L598.2,199.5z"/>
<path class="st6" d="M598.2,199.5c0,0-5.5,2.4-8.4,6.5c-2.9,4-16.6,25.2-16.6,25.2l16.8,12.3l8.7-5.6L598.2,199.5z"/>
<path class="st3" d="M592.5,265.5c0-18,0-36,0.1-53.9L592.5,265.5z"/>
<path class="st5" d="M592.6,211.6c-0.1,0-0.3,12.1-0.3,27c0,14.9,0.1,27,0.2,27s0.3-12.1,0.3-27
	C592.8,223.6,592.7,211.6,592.6,211.6z"/>
<path class="st6" d="M668.4,210.5c0,0-2.8-10.8-14.4-13.3c0,0-7.2,8.2-6.7,17.2c0.5,9.1,1.5,21.7,1.5,21.7l26.8-4.6L668.4,210.5z"/>
<path class="st10" d="M580.9,231.9l-3.5-2.7l-13.7,22.7l-23.4,5.9v14c0,0,23.4-1.5,27.7-4.2s22.7-26.1,22.7-26.1L580.9,231.9z"/>
<path class="st6" d="M542.8,229.7l5.4,29.1c0.1,0.4,0.2,0.8,0.4,1.1c0.2,0.3,0.5,0.6,0.8,0.9c0.3,0.2,0.7,0.4,1.1,0.5
	c0.4,0.1,0.8,0.1,1.2,0l26.5-4.9c0.4-0.1,0.8-0.2,1.1-0.4c0.3-0.2,0.6-0.5,0.9-0.8c0.2-0.3,0.4-0.7,0.5-1.1c0.1-0.4,0.1-0.8,0-1.2
	l-5.2-28.3c-0.1-0.6-0.4-1.2-0.9-1.7l-7.7-7.3c-0.4-0.3-0.8-0.6-1.2-0.7c-0.5-0.1-1-0.2-1.4-0.1l-8.7,1.6c-0.6,0.1-1.1,0.4-1.6,0.8
	l-10.3,9.7c-0.4,0.4-0.7,0.8-0.8,1.3C542.8,228.7,542.7,229.2,542.8,229.7z M548,227.5l6.5-6.2c0.4-0.4,1-0.6,1.6-0.6
	c0.6,0,1.2,0.3,1.6,0.7c0.4,0.4,0.6,1,0.6,1.6c0,0.6-0.3,1.2-0.7,1.6l-6.5,6.2c-0.2,0.2-0.5,0.4-0.8,0.5c-0.3,0.1-0.6,0.2-0.9,0.2
	c-0.3,0-0.6-0.1-0.9-0.2c-0.3-0.1-0.5-0.3-0.7-0.5c-0.2-0.2-0.4-0.5-0.5-0.8s-0.2-0.6-0.1-0.9c0-0.3,0.1-0.6,0.2-0.9
	C547.6,228,547.8,227.7,548,227.5z"/>
<path class="st6" d="M555.9,216.3l8.2-1.5l-0.5-2.9l-8.2,1.5L555.9,216.3z"/>
<path class="st5" d="M557.4,215.1l9.6-1.8c0.6-0.1,1-0.7,0.9-1.3l-0.3-1.7c-0.1-0.6-0.7-1-1.3-0.9l-9.6,1.8c-0.6,0.1-1,0.7-0.9,1.3
	l0.3,1.7C556.2,214.8,556.8,215.2,557.4,215.1z"/>
<path class="st1" d="M581.2,250.4c0-0.3,0.2-0.7,0.4-0.9c0.2-0.3,0.5-0.4,0.9-0.5c-0.2,0-0.3-0.1-0.4-0.2c-0.1-0.1-0.2-0.2-0.3-0.3
	c-0.1-0.1-0.1-0.3-0.2-0.5c0-0.2,0-0.3,0-0.5c0-0.3,0.2-0.7,0.4-0.9c0.2-0.3,0.5-0.5,0.8-0.6c-0.3-0.1-0.6-0.3-0.7-0.6
	c-0.2-0.3-0.2-0.6-0.1-0.9c0.1-0.4,0.3-0.7,0.6-0.9c0.3-0.2,0.6-0.4,1-0.4c-0.3,0-0.6-0.2-0.8-0.5c-0.2-0.3-0.3-0.6-0.3-0.9
	c0.1-1.2,1.4-1.3,1.4-1.3l-1-1.4l0.7-4.2c0-0.2,0.1-0.4,0.3-0.6c0.1-0.2,0.3-0.4,0.5-0.5l4.2-2.6l4.9,0.8l0.7,0.1l3.1,3.8
	c0.1,0.2,0.3,0.4,0.3,0.6c0.1,0.2,0.1,0.5,0,0.7l-0.7,4.2l-1.4,1c0,0,1.2,0.6,0.9,1.7c-0.1,0.3-0.3,0.6-0.6,0.7
	c-0.3,0.2-0.6,0.2-0.9,0.2c0.3,0.1,0.6,0.4,0.8,0.7c0.2,0.3,0.3,0.7,0.2,1.1c0,0.3-0.2,0.6-0.4,0.9s-0.6,0.3-0.9,0.3
	c0.3,0.2,0.4,0.5,0.5,0.8c0.1,0.3,0.1,0.7,0,1c0,0.2-0.1,0.3-0.1,0.5c-0.1,0.1-0.2,0.3-0.3,0.4c-0.1,0.1-0.3,0.2-0.4,0.2
	c-0.2,0-0.3,0.1-0.5,0c0.3,0.2,0.5,0.4,0.6,0.8c0.1,0.3,0.2,0.7,0.1,1c0,0.3-0.2,0.6-0.4,0.9c-0.2,0.2-0.5,0.4-0.8,0.5l1.1,1.7
	l-1.5,8.9c-0.3,0.5-0.7,1-1.2,1.2c-0.5,0.3-1.1,0.3-1.7,0.2c-0.6-0.1-1.1-0.3-1.5-0.8c-0.4-0.4-0.6-1-0.6-1.6c0,0-0.4,1.9-2.2,1.7
	h-0.2c-0.5-0.1-0.9-0.4-1.2-0.8c-0.3-0.4-0.4-0.9-0.3-1.4c-0.2,0.6-0.6,1-1.1,1.3c-0.5,0.3-1.1,0.4-1.7,0.3
	c-0.6-0.1-1.1-0.3-1.6-0.7c-0.4-0.4-0.7-1-0.8-1.5l1.5-8.9l1.6-1.2c-0.3-0.2-0.5-0.4-0.7-0.7C581.1,251.1,581.1,250.8,581.2,250.4z"
	/>
<path class="st7" d="M588.6,231.2l5.3,0.9c0.3,0.1,0.7-0.2,0.7-0.5l0.3-1.8c0.1-0.3-0.2-0.7-0.5-0.7l-5.3-0.9
	c-0.3-0.1-0.7,0.2-0.7,0.5l-0.3,1.8C588,230.8,588.2,231.1,588.6,231.2z"/>
<path class="st5" d="M583.7,240.5c2,0.5,4,0.9,6,1.2c2,0.4,4,0.7,6.1,0.8c-2-0.5-4-0.9-6-1.2C587.8,241,585.7,240.7,583.7,240.5z"/>
<path class="st5" d="M582.8,239.1c2.3,0.6,4.6,1,7,1.4c2.3,0.5,4.7,0.8,7,1C592.2,240.5,587.5,239.7,582.8,239.1L582.8,239.1z"/>
<path class="st5" d="M583.1,243.2c2,0.5,4,0.9,6,1.2c2,0.4,4,0.7,6,0.8c-2-0.5-4-0.9-6-1.2C587.1,243.6,585.1,243.4,583.1,243.2z"/>
<path class="st5" d="M582.6,245.9c2,0.5,4,0.9,6,1.2c2,0.4,4,0.7,6,0.8c-2-0.5-4-0.9-6-1.2C586.7,246.3,584.7,246.1,582.6,245.9z"/>
<path class="st5" d="M582.1,248.9c2,0.5,4,0.9,6,1.2c2,0.4,4,0.7,6,0.8c-2-0.5-4-0.9-6-1.2C586.2,249.3,584.2,249.1,582.1,248.9z"/>
<path class="st5" d="M581.6,251.9c2,0.5,4,0.9,6,1.2c2,0.4,4,0.7,6,0.8c-2-0.5-4-0.9-6-1.2C585.6,252.3,583.6,252.1,581.6,251.9z"/>
<path class="st5" d="M580.3,253.4c2.3,0.6,4.6,1,7,1.4c2.3,0.5,4.7,0.8,7.1,1c-2.3-0.6-4.6-1-7-1.4C585,254,582.7,253.6,580.3,253.4
	z"/>
<path class="st1" d="M566,238.3c0-0.4,0.1-0.8,0.4-1.1c0.2-0.3,0.6-0.5,0.9-0.7c-0.2,0-0.4-0.1-0.5-0.2c-0.2-0.1-0.3-0.2-0.4-0.4
	c-0.1-0.1-0.2-0.3-0.2-0.5c0-0.2,0-0.4,0-0.6c0-0.4,0.1-0.8,0.3-1.1c0.2-0.3,0.5-0.6,0.9-0.8c-0.4-0.1-0.7-0.3-0.9-0.6
	c-0.2-0.3-0.3-0.7-0.2-1.1c0.1-1.4,1.7-1.6,1.7-1.6s-1.4-0.1-1.4-1.5s1.5-1.6,1.5-1.6l-1.3-1.5l0.5-4.9c0-0.3,0.1-0.5,0.2-0.8
	c0.1-0.2,0.3-0.4,0.5-0.6l4.6-3.3l5.7,0.5l0.8,0.1l3.9,4.2c0.2,0.2,0.3,0.4,0.4,0.7s0.1,0.5,0.1,0.8l-0.5,4.9l-1.5,1.3
	c0,0,1.5,0.6,1.2,1.9c-0.1,0.4-0.3,0.7-0.6,0.9c-0.3,0.2-0.7,0.3-1.1,0.3c0.4,0.1,0.8,0.4,1,0.7c0.3,0.3,0.4,0.8,0.4,1.2
	c0,0.4-0.2,0.7-0.4,1c-0.3,0.3-0.6,0.4-1,0.5c0.3,0.2,0.5,0.6,0.7,0.9c0.1,0.4,0.2,0.8,0.1,1.1c0,0.2,0,0.4-0.1,0.5
	c-0.1,0.2-0.2,0.3-0.3,0.5c-0.1,0.1-0.3,0.2-0.5,0.3c-0.2,0.1-0.4,0.1-0.5,0.1c0.4,0.2,0.7,0.5,0.8,0.8c0.2,0.4,0.2,0.8,0.2,1.2
	c0,0.4-0.1,0.7-0.3,1.1c-0.2,0.3-0.6,0.5-0.9,0.6l1.4,1.8l-1,10.4c-0.3,0.6-0.7,1.2-1.3,1.5c-0.6,0.3-1.3,0.5-2,0.4
	c-0.7,0-1.3-0.3-1.8-0.8c-0.5-0.5-0.8-1.1-0.8-1.8c0,0-0.3,2.3-2.4,2.1h-0.3c-2.1-0.2-1.9-2.5-1.9-2.5c-0.2,0.6-0.6,1.2-1.1,1.6
	c-0.6,0.4-1.2,0.5-1.9,0.4c-0.7,0-1.3-0.3-1.9-0.7c-0.5-0.4-0.9-1-1-1.7l1-10.4l1.7-1.5c-0.4-0.2-0.7-0.4-0.9-0.8
	C566,239.1,565.9,238.7,566,238.3z"/>
<path class="st5" d="M568,226.7c2.3,0.4,4.7,0.7,7,0.9c2.3,0.3,4.7,0.4,7,0.5c-2.3-0.4-4.7-0.7-7-0.9
	C572.7,226.9,570.3,226.7,568,226.7z"/>
<path class="st5" d="M566.9,225.2c0,0.1,3.6,0.5,8.1,1s8.1,0.7,8.1,0.6c0-0.1-3.6-0.5-8.1-1C570.5,225.3,566.9,225.1,566.9,225.2z"
	/>
<path class="st5" d="M567.6,229.8c2.3,0.4,4.6,0.7,7,0.9c2.3,0.3,4.7,0.4,7,0.5c-2.3-0.4-4.7-0.7-7-0.9
	C572.2,230,569.9,229.8,567.6,229.8z"/>
<path class="st5" d="M567.3,233c4.6,0.7,9.3,1.1,14,1.3c-2.3-0.4-4.7-0.7-7-0.9C571.9,233.2,569.6,233,567.3,233z"/>
<path class="st5" d="M566.9,236.4c2.3,0.4,4.6,0.7,7,0.9c2.3,0.3,4.7,0.4,7,0.5C576.3,237.1,571.6,236.6,566.9,236.4z"/>
<path class="st5" d="M566.6,239.9c2.3,0.4,4.6,0.7,7,0.9c2.3,0.3,4.7,0.4,7,0.5c-2.3-0.4-4.7-0.7-7-0.9
	C571.3,240.1,568.9,239.9,566.6,239.9z"/>
<path class="st5" d="M565.2,241.8c0,0.1,3.6,0.5,8.2,1c4.5,0.5,8.2,0.7,8.2,0.6s-3.7-0.5-8.2-1C568.9,241.9,565.2,241.6,565.2,241.8
	z"/>
<path class="st6" d="M573,215.6l5.8,0.6c0.5,0,0.9-0.3,1-0.8l0.2-1.8c0-0.5-0.3-0.9-0.8-1l-5.8-0.6c-0.5,0-0.9,0.3-1,0.8l-0.2,1.8
	C572.2,215.1,572.5,215.5,573,215.6z"/>
<path class="st5" d="M578.5,216.1c0.2-0.5,0.4-1.1,0.4-1.7c0.1-0.6,0.1-1.2,0-1.8c-0.2,0.5-0.4,1.1-0.4,1.7
	C578.4,214.9,578.4,215.5,578.5,216.1z"/>
<path class="st5" d="M577.3,215.9c0.2-0.5,0.4-1.1,0.4-1.7c0.1-0.6,0.1-1.2,0-1.8c-0.3,0.5-0.4,1.1-0.4,1.7
	C577.1,214.7,577.1,215.3,577.3,215.9z"/>
<path class="st5" d="M576,215.8c0.4-1.1,0.5-2.3,0.4-3.5c-0.2,0.5-0.4,1.1-0.4,1.7C575.9,214.6,575.9,215.2,576,215.8z"/>
<path class="st5" d="M574.6,215.6c0.2-0.5,0.4-1.1,0.4-1.7c0.1-0.6,0.1-1.2,0-1.8c-0.2,0.5-0.4,1.1-0.4,1.7
	C574.4,214.5,574.4,215.1,574.6,215.6z"/>
<path class="st5" d="M573.3,215.5c0.2-0.5,0.4-1.1,0.4-1.7c0.1-0.6,0.1-1.2,0-1.8c-0.3,0.5-0.4,1.1-0.4,1.7
	C573.1,214.3,573.1,214.9,573.3,215.5z"/>
<path class="st12" d="M540.3,283.1h65v-43.8h-65V283.1z"/>
<g class="st8">
	<path d="M540.3,283.1l28.5,0v-43.8h-28.5V283.1z"/>
</g>
<path class="st10" d="M540.4,254c0,0-5.1,0.5-4.4,7.2c0,0-2.7,5.6,0,8.1c2.7,2.5,0.9,8.1,3.7,9.9c2.2,1.1,4.5,1.9,6.9,2.4
	c0.3,0.1,0.7,0,0.9-0.1c0.3-0.2,0.5-0.4,0.6-0.7c0.1-0.3,0.1-0.6,0-1c-0.1-0.3-0.3-0.6-0.6-0.7c-0.3-0.2-0.5-0.3-0.8-0.4l-3.5-2
	l-1.8-5.7l6.6,1.4c0.5,0.1,0.9,0.1,1.4-0.1c0.4-0.2,0.8-0.5,1.1-0.9c0.5-0.7,0.5-1.6-1.3-2.6c-2.6-1.2-5.3-2.1-8.1-2.7l-0.4-5.9
	c0,0,1.9,2.1,2.7,0C544.4,258,540.4,254,540.4,254z"/>
<path class="st11" d="M539,257c0,0.3,0,0.7,0.2,1c0.3,0.8,0.7,1.6,1.3,2.2c0.3,0.4,0.7,0.7,1.2,0.9c0.4,0.2,0.8,0.2,1.2,0
	c0.3-0.1,0.5-0.3,0.6-0.5c0.1-0.2,0.1-0.3,0.1-0.3c-0.2,0.3-0.5,0.5-0.8,0.6c-0.3,0.1-0.7,0-1-0.1c-0.4-0.2-0.7-0.5-1-0.8
	C540,259.1,539.4,258.1,539,257z"/>
<path class="st11" d="M536,268.2c0,0,0.1,0.2,0.3,0.4c0.3,0.3,0.7,0.6,1.2,0.9c1.4,0.7,2.9,1.2,4.5,1.5c1.8,0.4,3.4,0.8,4.6,1.1
	c0.6,0.2,1.3,0.3,1.9,0.3c-0.6-0.3-1.2-0.5-1.9-0.6c-1.2-0.3-2.8-0.8-4.6-1.2c-1.5-0.3-3-0.7-4.4-1.3C537,269,536.5,268.6,536,268.2
	z"/>
<path class="st13" d="M570.2,239.4l-19.2,10.7h-28l17-10.7"/>
<path class="st5" d="M539.9,239.4c-0.1,0.1-0.2,0.2-0.3,0.2l-0.9,0.6l-3.5,2.3l-12.3,7.8l-0.1-0.4h15H551h-0.1l13.9-7.6l4-2.2
	l1.1-0.6c0.1-0.1,0.3-0.1,0.4-0.2c-0.1,0.1-0.2,0.2-0.3,0.2l-1,0.6l-3.9,2.3l-13.8,7.8H551H551h-13.1h-15h-0.8l0.7-0.4l12.3-7.7
	l3.5-2.1l0.9-0.6C539.7,239.4,539.8,239.4,539.9,239.4z"/>
<path class="st13" d="M608.5,239.4l14.3,10.1h-43.2l-10.8-10.1H608.5z"/>
<path class="st5" d="M608.5,239.4c0,0-0.1,0-0.2,0h-0.6h-2.2l-8.2,0.1l-28.5,0.1l0.2-0.4l10.8,10.1l-0.2-0.1h3.1l40.1,0.1l-0.1,0.3
	l-10.4-7.4l-2.8-2.1l-0.7-0.5C608.6,239.4,608.5,239.3,608.5,239.4l0.3,0.1l0.8,0.5l2.9,2l10.6,7.3l0.5,0.3h-0.6l-40.1,0.1h-3.2
	l-0.1-0.1l-10.8-10.1l-0.5-0.4h0.6l28.5,0.1l8.2,0.1h2.2h0.6L608.5,239.4z"/>
<path class="st4" d="M634.7,285.7c0.4-0.1,0.8-0.1,1.1,0.1c0.4,0.1,0.7,0.4,0.9,0.7c0-0.2,0-0.4,0-0.6c0-0.2,0.1-0.4,0.2-0.5
	c0.1-0.1,0.3-0.3,0.4-0.4c0.2-0.1,0.3-0.1,0.5-0.2c0.4-0.1,0.8-0.1,1.2,0c0.4,0.1,0.7,0.3,1,0.6c0-0.4,0.1-0.7,0.4-1
	c0.2-0.3,0.6-0.5,1-0.5c0.4,0,0.8,0.1,1.2,0.3c0.4,0.2,0.6,0.5,0.8,0.9c-0.1-0.4,0-0.8,0.2-1.1c0.2-0.3,0.5-0.6,0.8-0.7
	c1.3-0.4,2,1,2,1l1.1-1.6l4.8-0.9c0.3-0.1,0.5,0,0.8,0c0.3,0.1,0.5,0.2,0.7,0.3l4.5,3.5l1.1,5.6l0.2,0.8l-2.9,4.9
	c-0.1,0.2-0.3,0.4-0.5,0.6c-0.2,0.2-0.5,0.3-0.7,0.3l-4.8,0.9l-1.6-1.1c0,0-0.1,1.5-1.5,1.7c-0.4,0-0.7-0.1-1-0.3
	c-0.3-0.2-0.5-0.6-0.6-0.9c0,0.4-0.1,0.8-0.4,1.2c-0.3,0.3-0.6,0.6-1,0.7c-0.4,0.1-0.8,0.1-1.1-0.1c-0.3-0.2-0.6-0.5-0.7-0.8
	c-0.1,0.4-0.4,0.7-0.7,0.9c-0.3,0.2-0.7,0.4-1.1,0.4c-0.2,0.1-0.4,0.1-0.5,0c-0.2,0-0.4-0.1-0.5-0.2c-0.2-0.1-0.3-0.2-0.4-0.4
	c-0.1-0.2-0.2-0.3-0.2-0.5c-0.1,0.4-0.3,0.7-0.6,1c-0.3,0.3-0.7,0.4-1,0.5c-0.4,0.1-0.8,0.1-1.1,0c-0.4-0.1-0.7-0.4-0.9-0.7
	l-1.4,1.8l-10.2,2c-0.7-0.1-1.3-0.4-1.8-0.8c-0.5-0.5-0.8-1.1-0.9-1.8c-0.2-0.7-0.1-1.4,0.2-2c0.3-0.6,0.9-1.1,1.5-1.3
	c0,0-2.2,0.4-2.7-1.7l-0.1-0.3c-0.3-2.1,1.9-2.5,1.9-2.5c-0.7,0-1.3-0.2-1.9-0.6c-0.5-0.4-0.9-1.1-0.9-1.7c-0.2-0.7-0.1-1.4,0.2-2
	c0.3-0.6,0.8-1.1,1.4-1.4l10.2-1.9l2,1.2c0.1-0.4,0.2-0.8,0.5-1C633.9,285.9,634.3,285.7,634.7,285.7z"/>
<path class="st5" d="M646.4,284.4c0.2,2.4,0.6,4.7,1.1,7c0.4,2.3,0.9,4.6,1.5,6.9c-0.3-2.4-0.6-4.7-1.1-7
	C647.6,289,647.1,286.7,646.4,284.4z"/>
<path class="st5" d="M647.6,282.9c-0.1,0,0.5,3.6,1.3,8c0.8,4.4,1.6,8,1.7,8c0.1,0-0.5-3.6-1.3-8
	C648.4,286.6,647.7,282.9,647.6,282.9z"/>
<path class="st5" d="M643.3,284.8c0.3,2.3,0.6,4.6,1.1,6.9c0.4,2.3,0.9,4.6,1.5,6.9c-0.2-2.3-0.6-4.6-1.1-6.9
	C644.4,289.4,643.9,287.1,643.3,284.8z"/>
<path class="st5" d="M640.2,285.4c0.3,2.3,0.6,4.6,1.1,6.9c0.4,2.3,0.9,4.6,1.5,6.9c-0.3-2.3-0.6-4.6-1.1-6.9
	C641.3,290,640.8,287.7,640.2,285.4z"/>
<path class="st5" d="M636.8,286.1c0.3,2.3,0.6,4.6,1.1,6.9c0.4,2.3,0.9,4.6,1.5,6.8c-0.3-2.3-0.6-4.6-1.1-6.9
	C637.9,290.6,637.4,288.3,636.8,286.1z"/>
<path class="st5" d="M633.3,286.7c0.3,2.3,0.6,4.6,1.1,6.9c0.4,2.3,0.9,4.6,1.5,6.9c-0.3-2.3-0.6-4.6-1.1-6.9
	C634.4,291.3,633.9,289,633.3,286.7z"/>
<path class="st5" d="M631.2,285.9c-0.1,0,0.5,3.6,1.3,8.1c0.8,4.5,1.6,8.1,1.7,8c0.1-0.1-0.5-3.7-1.3-8.1S631.3,285.9,631.2,285.9z"
	/>
<path class="st6" d="M658.5,286.1l1.1,5.7c0.1,0.5,0.6,0.8,1,0.7l1.8-0.3c0.5-0.1,0.8-0.6,0.7-1l-1.1-5.7c-0.1-0.5-0.6-0.8-1-0.7
	l-1.8,0.3C658.7,285.1,658.4,285.6,658.5,286.1z"/>
<path class="st5" d="M659.5,291.5c0.6,0.1,1.2,0,1.8-0.1c0.6,0,1.2-0.2,1.7-0.5c-0.6-0.1-1.2,0-1.8,0.1
	C660.6,291.1,660,291.3,659.5,291.5z"/>
<path class="st5" d="M659.4,290.3c0.6,0.1,1.2,0,1.8-0.1c0.6,0,1.2-0.2,1.7-0.5c-0.6-0.1-1.2,0-1.8,0.1
	C660.5,289.8,659.9,290,659.4,290.3z"/>
<path class="st5" d="M659.1,289c0.6,0.1,1.2,0,1.8-0.1c0.6,0,1.2-0.2,1.7-0.5c-0.6-0.1-1.2,0-1.8,0.1
	C660.2,288.5,659.6,288.7,659.1,289z"/>
<path class="st5" d="M658.8,287.6c0.6,0.1,1.2,0,1.8-0.1c0.6,0,1.2-0.2,1.7-0.5C661.1,286.9,659.9,287.2,658.8,287.6z"/>
<path class="st5" d="M658.6,286.3c0.6,0.1,1.2,0,1.8-0.1c0.6,0,1.2-0.2,1.7-0.5c-0.6-0.1-1.2,0-1.8,0.1
	C659.7,285.9,659.1,286,658.6,286.3z"/>
<path class="st1" d="M623.9,274.2c0,0.4-0.2,0.8-0.4,1.1c-0.2,0.3-0.6,0.5-1,0.6c0.2,0,0.4,0.1,0.5,0.2c0.2,0.1,0.3,0.2,0.4,0.4
	c0.1,0.2,0.2,0.3,0.2,0.5c0,0.2,0,0.4,0,0.6c0,0.4-0.1,0.8-0.3,1.1c-0.2,0.3-0.5,0.6-0.9,0.8c0.4,0.1,0.7,0.3,0.9,0.7
	c0.2,0.3,0.3,0.7,0.2,1.1c-0.1,0.4-0.3,0.8-0.6,1.1c-0.3,0.3-0.7,0.5-1.1,0.5c0,0,1.4,0.2,1.4,1.5c0,1.3-1.6,1.6-1.6,1.6l1.2,1.5
	l-0.6,4.9c0,0.3-0.1,0.5-0.3,0.7c-0.1,0.2-0.3,0.4-0.5,0.6l-4.7,3.2l-5.7-0.7l-0.8-0.1l-3.8-4.2c-0.2-0.2-0.3-0.4-0.4-0.7
	c-0.1-0.3-0.1-0.5-0.1-0.8l0.6-4.9l1.5-1.2c0,0-1.4-0.6-1.2-1.9c0.1-0.4,0.3-0.7,0.6-0.9c0.3-0.2,0.7-0.3,1.1-0.2
	c-0.4-0.1-0.8-0.4-1-0.8c-0.2-0.4-0.4-0.8-0.4-1.2c0-0.4,0.2-0.7,0.4-1s0.6-0.4,1-0.4c-0.3-0.2-0.5-0.6-0.7-0.9
	c-0.1-0.4-0.2-0.8-0.1-1.1c0-0.2,0-0.4,0.1-0.5c0.1-0.2,0.2-0.3,0.3-0.4s0.3-0.2,0.5-0.3c0.2-0.1,0.4-0.1,0.6-0.1
	c-0.3-0.2-0.6-0.5-0.8-0.8c-0.2-0.4-0.2-0.8-0.1-1.2c0-0.4,0.1-0.7,0.4-1c0.2-0.3,0.6-0.5,0.9-0.6l-1.3-1.9l1.2-10.3
	c0.3-0.6,0.7-1.1,1.3-1.5c0.6-0.3,1.3-0.4,2-0.3c0.7,0,1.3,0.3,1.8,0.8c0.5,0.5,0.7,1.1,0.8,1.8c0,0,0.3-2.3,2.4-2h0.3
	c2.1,0.3,1.9,2.6,1.9,2.6c0.2-0.7,0.6-1.2,1.2-1.6c0.6-0.4,1.3-0.5,1.9-0.4c0.7,0,1.3,0.3,1.8,0.8c0.5,0.5,0.9,1.1,1,1.7l-1.2,10.3
	l-1.8,1.5c0.3,0.2,0.6,0.5,0.8,0.8C624,273.5,624,273.9,623.9,274.2z"/>
<path class="st5" d="M621.7,285.8c-2.3-0.5-4.7-0.8-7-1c-2.3-0.3-4.7-0.6-7-0.6c2.3,0.5,4.6,0.8,7,1
	C617,285.5,619.3,285.7,621.7,285.8z"/>
<path class="st5" d="M622.8,287.4c0-0.1-3.6-0.6-8.1-1.1c-4.5-0.5-8.1-0.9-8.1-0.8c0,0.1,3.6,0.6,8.1,1.1
	C619.1,287.1,622.7,287.5,622.8,287.4z"/>
<path class="st5" d="M622.2,282.7c-2.3-0.5-4.6-0.8-6.9-1c-2.3-0.3-4.7-0.6-7-0.6C612.9,281.9,617.5,282.4,622.2,282.7L622.2,282.7z
	"/>
<path class="st5" d="M622.6,279.6c-2.3-0.5-4.6-0.8-6.9-1c-2.3-0.3-4.7-0.6-7-0.6C613.2,278.7,617.9,279.3,622.6,279.6L622.6,279.6z
	"/>
<path class="st5" d="M623,276.1c-4.6-0.8-9.3-1.3-13.9-1.6C613.7,275.2,618.3,275.8,623,276.1z"/>
<path class="st5" d="M623.4,272.6c-2.3-0.5-4.6-0.8-6.9-1c-2.3-0.3-4.7-0.5-7-0.6C614,271.8,618.7,272.3,623.4,272.6L623.4,272.6z"
	/>
<path class="st5" d="M624.8,270.8c0-0.1-3.6-0.6-8.1-1.1c-4.5-0.5-8.2-0.9-8.2-0.8c0,0.1,3.6,0.6,8.1,1.2
	C621.2,270.6,624.8,270.9,624.8,270.8z"/>
<path class="st6" d="M616.4,296.8l-5.8-0.7c-0.5-0.1-0.9,0.3-1,0.8l-0.2,1.8c-0.1,0.5,0.3,0.9,0.8,1l5.8,0.7c0.5,0.1,0.9-0.3,1-0.8
	l0.2-1.8C617.2,297.3,616.9,296.9,616.4,296.8z"/>
<path class="st5" d="M610.9,296.1c-0.3,0.5-0.4,1.1-0.4,1.7c-0.1,0.6-0.1,1.2,0,1.8c0.3-0.5,0.4-1.1,0.4-1.7
	C611,297.3,611,296.7,610.9,296.1z"/>
<path class="st5" d="M612.2,296.4c-0.3,0.5-0.4,1.1-0.4,1.7c-0.1,0.6-0.1,1.2,0,1.8c0.3-0.5,0.4-1.1,0.4-1.7
	C612.3,297.6,612.3,297,612.2,296.4z"/>
<path class="st5" d="M613.5,296.5c-0.3,0.5-0.4,1.1-0.4,1.7c-0.1,0.6-0.1,1.2,0,1.8c0.3-0.5,0.4-1.1,0.4-1.7
	C613.6,297.7,613.6,297.1,613.5,296.5z"/>
<path class="st5" d="M614.9,296.7c-0.3,0.5-0.4,1.1-0.4,1.7c-0.1,0.6-0.1,1.2,0,1.8c0.3-0.5,0.4-1.1,0.4-1.7
	C615,297.9,615,297.3,614.9,296.7z"/>
<path class="st5" d="M616.2,296.9c-0.2,0.5-0.4,1.1-0.4,1.7c-0.1,0.6-0.1,1.2,0,1.8c0.3-0.5,0.4-1.1,0.4-1.7
	C616.3,298,616.3,297.4,616.2,296.9z"/>
<path class="st7" d="M624,280.3l8.8,5.3l7.3-10.1l-10.6-6.4L624,280.3z"/>
<path class="st7" d="M626.2,266.1l12.9,7.8l0.9-1.5l-12.9-7.8L626.2,266.1z"/>
<path class="st5" d="M627.7,269.5c2.2,1.1,4.4,2.3,6.5,3.6c2.2,1.2,4.2,2.5,6.2,4c-2.2-1-4.4-2.2-6.5-3.6
	C631.7,272.4,629.6,271,627.7,269.5z"/>
<path class="st4" d="M632.8,236.1l-12.7,5.1l4.9,16l15.5-6.2L632.8,236.1z"/>
<path class="st4" d="M641.5,248.9l-18.7,7.5l0.8,2.1l18.7-7.5L641.5,248.9z"/>
<path class="st5" d="M641.4,248.8c-3,1.5-6,2.8-9.1,3.9c-3,1.3-6.2,2.5-9.3,3.4c3-1.5,6-2.8,9.1-3.9
	C635.1,250.9,638.2,249.7,641.4,248.8z"/>
<path class="st0" d="M647.5,249.2l6.7,21.4l-10.7,5.4l-13.1-18.2L647.5,249.2z"/>
<path class="st7" d="M655.9,278.3l-7.2,3.6c-0.5,0.2-1,0.3-1.5,0.1c-0.5-0.2-0.9-0.5-1.1-0.9l-2.6-5.1l10.6-5.4l2.6,5.1
	c0.2,0.4,0.3,1,0.1,1.5C656.6,277.6,656.3,278,655.9,278.3z"/>
<path class="st7" d="M639.5,265.6c0.4,0.9,1.1,1.6,1.9,2c0.8,0.5,1.8,0.7,2.7,0.6c1-0.1,1.9-0.4,2.6-1c0.8-0.6,1.3-1.4,1.6-2.3
	c0.3-0.9,0.3-1.9,0.1-2.8c-0.3-0.9-0.8-1.7-1.5-2.4c-0.7-0.6-1.6-1-2.6-1.1c-0.9-0.1-1.9,0.1-2.8,0.5c-1.1,0.6-2,1.6-2.4,2.8
	C638.9,263.1,639,264.4,639.5,265.6z"/>
<path class="st5" d="M631.4,259c2.6-1.6,5.4-3.1,8.2-4.4c2.7-1.5,5.5-2.8,8.4-4c-2.6,1.6-5.4,3.1-8.2,4.4
	C637.1,256.6,634.2,257.9,631.4,259z"/>
<path class="st5" d="M644.2,277.5c3.4-2.1,7-3.9,10.7-5.4c-1.7,1.1-3.4,2.1-5.2,2.9C647.9,276,646.1,276.9,644.2,277.5z"/>
<g class="st9">
	<path class="st2" d="M626.9,227.3c1.8-1.9-1.6-10.9-1.6-10.9l-13.5-12c-0.8-0.6-1.4-1.3-1.8-2.2c-0.2-0.4-0.3-0.9-0.2-1.4
		c0.1-0.5,0.3-0.9,0.7-1.2c0.4-0.2,0.8-0.3,1.3-0.3c0.4,0,0.9,0.1,1.3,0.2c3,0.8,5.8,2.1,8.4,3.7l-2.5-6.5c-0.3-0.9-0.6-2,0-2.7
		c0.7-0.7,1.9-0.4,2.7,0.1c1.8,1,3.4,2.4,4.5,4.2c1.1,1.7,1.8,3.8,1.9,5.8c0.7-4.3,2-8.4,3.9-12.4c0.5-1.1,1.3-2.3,2.5-2.6
		c0.6-0.1,1.2,0,1.8,0.4c0.5,0.3,1,0.8,1.2,1.3c0.5,1.1,0.7,2.4,0.6,3.6c-0.2,7.5-2.5,14.9-6.4,21.3c3,0.9,1.4,10.3,3.7,12.6
		c8.3,8.6,21.6,34.1,25.9,45.2c0,0,8.3,24.1-10.2,32.8c-5.9,2.8-11.4,1.2-17.8-0.1c-6.4-1.3-13.5-1.3-19.2-4.2
		c-4.7-2.4-9.6-5-12-9.6c-3.2-6-1.3-13.4,1.3-19.6C607.6,262,619.1,235.8,626.9,227.3z"/>
</g>
<path class="st5" d="M626.9,227.3l-0.6,0.7c-0.4,0.5-1,1.1-1.6,2.1c-2,2.8-3.7,5.6-5.3,8.6c-5.9,10.9-11.2,22.2-15.8,33.7
	c-1.7,3.7-2.7,7.7-3.1,11.8c-0.1,2.2,0.2,4.3,0.9,6.4c0.8,2.1,2.1,4,3.7,5.5c1.7,1.6,3.7,2.9,5.7,4c2.1,1.2,4.3,2.3,6.5,3.1
	c4.7,1.5,9.8,1.8,14.9,2.7c2.6,0.5,5.1,1.1,7.7,1.5c2.6,0.5,5.3,0.5,7.9-0.1c2.7-0.7,5.1-2,7.3-3.7c2.1-1.7,3.9-3.9,5.2-6.3
	c2.6-5,2.9-11,2.2-16.7c-0.2-1.4-0.5-2.9-0.8-4.3c-0.2-0.7-0.3-1.4-0.6-2.1c-0.2-0.7-0.5-1.4-0.8-2.1c-1.1-2.7-2.3-5.4-3.6-8.1
	c-4.1-8.5-8.6-16.8-13.6-24.8c-2.4-3.9-5.1-7.5-8.2-10.9c-0.6-1-0.9-2.1-1-3.3c-0.2-1.1-0.2-2.2-0.3-3.3c-0.1-1.1-0.2-2.2-0.4-3.2
	c-0.1-0.5-0.3-1-0.5-1.5c-0.1-0.2-0.2-0.4-0.4-0.6c-0.2-0.2-0.4-0.3-0.6-0.4l-0.3-0.1l0.2-0.3c4.3-6.9,6.5-14.9,6.3-23
	c-0.1-0.9-0.4-1.8-1.1-2.5c-0.3-0.3-0.7-0.6-1.1-0.7c-0.4-0.1-0.9-0.1-1.3,0c-0.8,0.4-1.5,1-1.8,1.9c-0.4,0.8-0.8,1.7-1.2,2.5
	c-1.4,3.3-2.4,6.8-3,10.3l-0.3,1.9L628,204c-0.1-2.2-0.9-4.3-2.1-6c-1.2-1.8-2.9-3.2-4.9-4.1c-0.4-0.2-0.9-0.2-1.4-0.1
	c-0.2,0.1-0.4,0.2-0.5,0.4c-0.1,0.2-0.2,0.4-0.2,0.6c0,1,0.3,1.9,0.7,2.8c0.7,1.9,1.4,3.7,2.1,5.5l0.2,0.5l-0.5-0.3
	c-1.6-1-3.3-1.9-5-2.6c-0.9-0.4-1.7-0.6-2.5-0.9c-0.8-0.3-1.6-0.5-2.5-0.4c-0.4,0.1-0.7,0.3-1,0.6c-0.2,0.3-0.4,0.7-0.3,1.1
	c0,0.8,0.3,1.5,0.9,2.1c1.1,1.1,2.3,2.1,3.4,3.1l11.1,9.9c1,2.7,1.7,5.4,2,8.2c0.1,0.7,0,1.4-0.2,2.1c-0.1,0.2-0.2,0.4-0.4,0.6
	c0.1-0.2,0.2-0.4,0.3-0.6c0.2-0.7,0.2-1.4,0.1-2.1c-0.4-2.8-1.1-5.5-2.1-8.2l-11.1-9.8c-1.1-1-2.3-2-3.4-3.1c-0.6-0.6-1-1.4-1-2.3
	c0-0.5,0.1-0.9,0.4-1.3c0.3-0.4,0.7-0.6,1.2-0.7c0.9-0.1,1.8,0.1,2.7,0.4c0.8,0.3,1.7,0.6,2.6,0.9c1.8,0.7,3.5,1.6,5.1,2.6l-0.3,0.2
	l-2.1-5.4c-0.5-0.9-0.7-2-0.8-3c0-0.3,0.1-0.6,0.3-0.8c0.2-0.2,0.4-0.4,0.7-0.5c0.5-0.2,1.1-0.1,1.7,0.1c2,0.9,3.8,2.4,5.1,4.2
	c1.3,1.8,2,4,2.2,6.3H628c0.6-3.6,1.6-7.1,3-10.4c0.4-0.9,0.8-1.7,1.2-2.5c0.4-0.9,1.1-1.7,2.1-2.1c0.5-0.2,1-0.2,1.5,0
	c0.5,0.1,1,0.4,1.3,0.8c0.7,0.8,1.1,1.7,1.2,2.7c0.2,8.2-2,16.3-6.4,23.3l-0.1-0.4c0.3,0.1,0.6,0.3,0.8,0.5c0.2,0.2,0.4,0.5,0.5,0.7
	c0.2,0.5,0.4,1,0.5,1.6c0.2,1.1,0.4,2.2,0.5,3.3c0.1,1.1,0.2,2.2,0.3,3.3c0.1,1.1,0.4,2.1,0.9,3.1c3.1,3.4,5.8,7,8.2,10.9
	c5,8,9.6,16.3,13.7,24.9c1.3,2.7,2.5,5.4,3.6,8.2c0.3,0.7,0.6,1.4,0.8,2.1c0.2,0.7,0.4,1.4,0.6,2.1c0.3,1.4,0.6,2.9,0.8,4.4
	c0.7,5.8,0.3,11.9-2.3,17c-1.3,2.5-3.1,4.7-5.3,6.5c-2.2,1.8-4.7,3.1-7.5,3.8c-2.7,0.5-5.4,0.6-8.1,0.1c-2.7-0.4-5.2-1.1-7.8-1.5
	c-5.1-0.9-10.2-1.2-15-2.7c-2.3-0.8-4.5-1.9-6.6-3.1c-2.1-1.1-4-2.5-5.8-4.1c-1.7-1.6-3-3.5-3.8-5.7c-0.7-2.1-1-4.3-0.9-6.5
	c0.4-4.1,1.4-8.2,3.2-11.9c4.7-11.5,10-22.7,16-33.6c1.6-3,3.4-5.8,5.4-8.5c0.5-0.7,1.1-1.4,1.6-2.1
	C626.7,227.5,626.9,227.3,626.9,227.3z"/>
<path class="st10" d="M638.6,211.6c0,0,3.4,1.5,3.4,3.1s2.6,12.3,2.6,12.3l13.9,8.7v-1.3l14.7-2.5c0,0,4.1,16.7,4.8,21
	c0.5,3.3-0.7,13.9-5.1,14.5c-9.1,1.3-13-5.2-17.2-9.8c-7-7.7-17.9-22.1-19-24.3c-1.3-2.8-2.2-5.8-2.5-8.8L638.6,211.6z"/>
<path class="st11" d="M654.4,233.5c0.9,0.7,1.8,1.3,2.7,1.8l6.7,4.2l6.6,4.3c0.9,0.6,1.8,1.2,2.8,1.7c-0.8-0.7-1.7-1.4-2.6-2
	c-1.6-1.2-4-2.8-6.6-4.4c-2.6-1.7-5-3.1-6.8-4.1C656.4,234.4,655.4,233.9,654.4,233.5z"/>
<path class="st10" d="M638.6,211.6c0,0-8.5-2.8-9.1-2.4s-4.6,4.4-4.7,5.2c0.1,0.9,0.4,1.8,0.9,2.6c0,0-1.5,3.7,1.3,5.2
	c0,0-2.3,1.4-1.7,3.4c0.3,0.8,0.8,1.5,1.5,2.1l0.7-2.4l4.6-1.1l2.3,0.9l4.2-5.5L638.6,211.6z"/>
<path class="st11" d="M627.3,222.4c0.1-0.4,0.3-0.8,0.5-1.2c0.8-0.7,1.8-1.1,2.9-1.1c1.6-0.2,3.1-0.5,4.6-1.1
	c-1.6,0-3.2,0.2-4.7,0.6c-0.6,0.1-1.2,0.2-1.8,0.4c-0.5,0.2-0.9,0.5-1.3,0.9C627,221.7,627.2,222.4,627.3,222.4z"/>
<path class="st11" d="M626.6,221.8c0.2-0.6,0.3-1.2,0.3-1.9c0-0.6,0.1-1.3,0.3-1.9c0.3-0.6,1.2-0.6,2-0.7c2.1-0.2,4.2-0.6,6.3-1.1
	c-2.1,0-4.2,0.2-6.3,0.6c-0.4,0.1-0.9,0.1-1.3,0.2c-0.2,0-0.4,0.1-0.6,0.3c-0.2,0.1-0.3,0.3-0.5,0.5c-0.2,0.4-0.2,0.7-0.2,1.1v0.9
	C626.4,220.5,626.5,221.2,626.6,221.8z"/>
<path class="st11" d="M625.6,217.1c0.1,0.1,0.5-0.5,0.8-1.5c0.2-0.6,0.4-1.1,0.7-1.6c0.2-0.3,0.5-0.5,0.8-0.6c0.3-0.1,0.6-0.2,1-0.2
	c1.9,0.2,3.8,0.2,5.7,0.2c-1.9-0.4-3.8-0.6-5.8-0.7c-0.4,0-0.8,0.1-1.2,0.2c-0.4,0.2-0.7,0.4-0.9,0.8c-0.3,0.5-0.6,1.1-0.7,1.8
	C625.8,216.5,625.5,217,625.6,217.1z"/>
<path class="st6" d="M319.7,273.8l4.6,14.2l-117.6,39.8l-4.8-14.1L319.7,273.8z"/>
<path class="st6" d="M316.9,285.2l35.3,149.3c0.3,1.5,0.1,3-0.6,4.4c-0.7,1.3-1.9,2.3-3.4,2.8l-69.7,23.6c-1.4,0.5-3,0.4-4.3-0.2
	c-1.4-0.6-2.4-1.8-3-3.2L211,321.1L316.9,285.2z"/>
<path class="st2" d="M311.7,338c0,0-0.5-4.6,2.9-6.4s11.6-3.9,11.6-3.9c-2,3.8-3.1,7.9-3.1,12.2l3.4,0.6l-10.5,7.7l-7.1-10.4
	L311.7,338z"/>
<path class="st2" d="M326.3,375.6c0,0-4,2.5-7.1,0.2c-3.1-2.3-8.6-8.7-8.6-8.7c4.3,0.1,8.5-0.8,12.3-2.6l-0.9-3.3l11.6,5.9l-6.2,11
	L326.3,375.6z"/>
<path class="st2" d="M308.4,365.2c-0.7-0.7-1.3-1.5-1.6-2.5c-0.4-0.9-0.5-1.9-0.4-2.9c0.2-3.4,2.3-10.6,2.3-10.6l10.9,2.6l-3.1,12.6
	C313.8,365.5,311.1,365.7,308.4,365.2z"/>
<g class="st8">
	<path d="M214.9,325c14.9-4,30.8-6.6,45.8-10.6c19.6-5.2,39.9-10.8,55.5-23.7L214.9,325z"/>
</g>
<path class="st5" d="M206.5,327.8c0-0.1,26.4-9.2,59-20.3s59.1-19.9,59.1-19.8c0,0.1-26.4,9.2-59,20.3
	C233,319.1,206.6,328,206.5,327.8z"/>
<path class="st5" d="M289.6,465.3c4.3-8.8,0.7-19.4-8.1-23.7c-8.8-4.3-19.4-0.7-23.7,8.1c-4.3,8.8-0.7,19.4,8.1,23.7
	C274.6,477.7,285.3,474.1,289.6,465.3z"/>
<path class="st6" d="M275.8,467.8c5.7-1.2,9.4-6.7,8.2-12.4c-1.2-5.7-6.7-9.4-12.4-8.2c-5.7,1.2-9.4,6.7-8.2,12.4
	C264.5,465.3,270.1,469,275.8,467.8z"/>
<path class="st6" d="M208.2,311.5l25.8-25l45.5-15.4l35.6,4.2L208.2,311.5z"/>
<path class="st5" d="M319.7,273.8c0.1,0.1-26.3,9.2-58.8,20.2s-59,19.8-59,19.7c0-0.1,26.3-9.2,58.8-20.2S319.7,273.6,319.7,273.8z"
	/>
<path class="st6" d="M107.4,443.2l-3.6,18.8c0,0-20.9,6.7-21,10.6l39.7,0.7l3.1-30L107.4,443.2z"/>
<g class="st9">
	<path class="st2" d="M119.2,461.5c0.4,0.1,0.7,0.4,0.9,0.7s0.3,0.8,0.2,1.2c-0.1,0.4-0.3,0.7-0.7,1c-0.3,0.2-0.8,0.3-1.2,0.2
		c-0.4-0.1-0.8-0.4-1-0.8c-0.2-0.4-0.3-0.8-0.2-1.2c0.1-0.4,0.4-0.7,0.8-0.9c0.4-0.2,0.8-0.2,1.2-0.1"/>
</g>
<g class="st9">
	<path class="st2" d="M122.4,473.3l0.6-2.9l-39,0.3c-0.4,0.2-0.8,0.5-1,0.9c-0.3,0.4-0.4,0.8-0.5,1.3L122.4,473.3z"/>
</g>
<path class="st5" d="M103.1,461.8c0,0.2,1,0.3,2,0.9s1.5,1.4,1.7,1.4c0.2-0.1-0.1-1.2-1.3-2S103,461.6,103.1,461.8z"/>
<path class="st5" d="M98.8,463.6c0,0.2,0.8,0.5,1.5,1.3c0.7,0.8,0.9,1.7,1.1,1.7c0.2,0,0.3-1.1-0.6-2.1S98.8,463.5,98.8,463.6z"/>
<path class="st5" d="M96.5,468.8c0.2,0,0.4-1-0.1-2s-1.5-1.5-1.6-1.3s0.5,0.7,0.9,1.6S96.3,468.8,96.5,468.8z"/>
<path class="st5" d="M104.8,457.4c0.1,0.2,1-0.1,2.1-0.1c1.1,0.1,2,0.4,2.1,0.2c0.1-0.2-0.8-0.9-2.1-0.9
	C105.6,456.6,104.7,457.3,104.8,457.4z"/>
<path class="st6" d="M203.9,438.7l16.6,11.5c0,0-11.8,18.5-9.4,21.6l31.7-25.4l-25.3-20.9L203.9,438.7z"/>
<g class="st9">
	<path class="st2" d="M228.8,440.6c0.4-0.2,0.8-0.2,1.2-0.1c0.4,0.1,0.7,0.4,0.9,0.7c0.2,0.4,0.2,0.8,0.1,1.2
		c-0.1,0.4-0.4,0.7-0.7,0.9c-0.4,0.2-0.8,0.2-1.3,0.1c-0.4-0.1-0.8-0.4-1-0.8c-0.1-0.4-0.1-0.8,0-1.2c0.2-0.4,0.5-0.7,0.9-0.9"/>
</g>
<g class="st9">
	<path class="st2" d="M242.8,446.3l-2.6-2.1l-29.4,25.3c-0.2,0.4-0.3,0.9-0.2,1.4c0,0.5,0.2,0.9,0.4,1.3L242.8,446.3z"/>
</g>
<path class="st5" d="M219.8,450.4c0.1,0.1,0.9-0.4,2.1-0.6c1.1-0.2,2.1,0.1,2.2,0c0.1-0.1-0.9-0.9-2.3-0.6
	C220.4,449.4,219.7,450.3,219.8,450.4z"/>
<path class="st5" d="M217.7,454.6c0.1,0.2,1-0.1,2,0.1s1.8,0.7,1.9,0.6c0.1-0.1-0.5-1.1-1.8-1.3
	C218.5,453.7,217.6,454.4,217.7,454.6z"/>
<path class="st5" d="M219.3,460c0.2-0.1-0.3-1-1.4-1.5c-1.1-0.5-2.1-0.2-2,0s0.9,0.2,1.8,0.7C218.5,459.6,219.1,460.1,219.3,460z"/>
<path class="st5" d="M217,446.6c0.2,0.1,0.7-0.7,1.6-1.4c0.9-0.7,1.8-1,1.8-1.2c0-0.2-1.1-0.2-2.2,0.6
	C217.1,445.5,216.8,446.5,217,446.6z"/>
<path class="st5" d="M184.5,307.5c0.1,1.5,0.1,3-0.2,4.5c-0.9,4.6-0.1,12.1-4,17.8c-6,8.8-16.2,19.4-16.2,19.4l-20,48.8l-17.8,63.7
	l-24.4-3.6l12.6-77.8l20.3-73.2L184.5,307.5z"/>
<path class="st5" d="M232.4,432.9l-43.3-55.4l-8.6-51.6l-33.3,15.3l10.7,45.7c1.3,5.6,4.3,10.8,8.5,14.7l47.3,49.4L232.4,432.9z"/>
<path class="st6" d="M149.7,384.2c0-0.1,0.1-0.1,0.1-0.2l0.3-0.6c0.3-0.6,0.7-1.4,1.1-2.4c1-2.1,2.2-5.3,3.6-9.2
	c1.4-3.9,2.9-8.7,4.9-13.8c2-5.1,4.8-10.6,9.3-15.1c2.2-2.3,4.4-4.5,6.4-6.7c0.5-0.6,1-1.1,1.4-1.7c0.4-0.6,0.9-1.2,1.3-1.8
	c0.4-0.6,0.8-1.2,1.2-1.8l0.5-0.9l0.5-0.9c1.3-2.3,2.3-4.7,3-7.3c0.5-2.2,0.8-4.5,0.7-6.8c0-1-0.2-2-0.3-3s-0.3-1.8-0.5-2.6
	c-0.2-0.8-0.4-1.6-0.6-2.2c-0.2-0.7-0.4-1.3-0.6-1.9c-0.4-1.1-0.7-2-0.9-2.5l-0.3-0.7c0-0.1-0.1-0.1-0.1-0.2c0,0.1,0,0.2,0.1,0.2
	c0.1,0.2,0.1,0.4,0.2,0.7c0.2,0.6,0.5,1.4,0.8,2.5c0.2,0.6,0.4,1.2,0.5,1.9c0.2,0.7,0.4,1.4,0.6,2.2c0.2,0.8,0.3,1.7,0.5,2.6
	c0.2,0.9,0.2,1.9,0.2,3c0.1,2.3-0.2,4.5-0.7,6.7c-0.7,2.5-1.7,4.9-3,7.2l-0.5,0.9l-0.6,0.9c-0.4,0.6-0.7,1.2-1.2,1.8l-1.3,1.8
	c-0.5,0.6-0.9,1.1-1.4,1.7c-2,2.2-4.2,4.4-6.4,6.7c-4.6,4.5-7.4,10.1-9.4,15.3s-3.5,9.9-4.9,13.8c-1.4,3.9-2.6,7.1-3.5,9.2
	c-0.4,1.1-0.8,1.9-1.1,2.5l-0.3,0.6C149.7,384.1,149.7,384.2,149.7,384.2z"/>
<path class="st14" d="M75.1,297.2l31.3-20.1l5.5-38.8l12.4,16.2l-1,29.4c-0.1,1.7-0.6,3.3-1.5,4.6c-0.9,1.4-2.2,2.5-3.7,3.2
	L81,308.9L75.1,297.2z"/>
<path class="st1" d="M70.5,314.8c-0.3,0.2-3.3,2.7-4.7,2.4c-0.4-0.1-0.8-0.4-1.1-0.7c-0.3-0.3-0.5-0.7-0.7-1.1c-1,0.1-2-0.2-2.8-0.7
	c-0.7-0.7-1.2-1.6-1.3-2.6l-1.2-0.6c-1.7-0.9-1.6-2.2-1.6-2.2c0.2-1,0.1-2-0.3-2.9c-0.7-1.3,2-4.6,3.2-6.4s2.8-4.1,6.1-3.7
	c4.5,0.5,9.2,0.6,9.2,0.6l6.4-5.1l8.9,14.3l-7.8,2.8c0,0-0.7,1.4-4.3,3.5C76,313.8,73.3,314.6,70.5,314.8z"/>
<path class="st5" d="M67.2,311.3c-2.1,1.3-4,3.1-5.5,5.1c-7.1,8.7-12.6,18.5-16.2,29.1c-2.1,6.2-3.5,13.4-0.1,19
	c2.6,4.3,7.5,6.6,12.2,8.6c5.8,2.5,11.7,5,18,5.9c6.3,0.9,12.5-0.8,18.1-3.8c17.4-9.5,8-32.3,8-32.3c-4.8-10.6-11.7-20-20.2-27.9
	c-2.3-2.1-5-4.2-8-4.8l-4.6-9.6c0,0-5.5-0.4-5.8-0.4c-0.3,0-2.8,5.4-2.8,5.4L67.2,311.3z"/>
<path class="st1" d="M59.2,309.8c1.4-0.5,2.7-1.1,3.9-1.9c0.6-0.4,1.1-0.8,1.7-1.1c0.6-0.3,1.3-0.5,2-0.6c0.3,0,0.7,0.1,1,0.2
	c0.3,0.1,0.6,0.3,0.8,0.6c0.2,0.3,0.4,0.6,0.4,0.9c0,0.3,0,0.7-0.2,1c0.4-0.1,0.7,0,1,0.1c0.3,0.2,0.6,0.4,0.7,0.8
	c0.1,0.3,0.2,0.7,0.1,1.1c0,0.4-0.1,0.7-0.3,1c-0.4,0.6-0.9,1.2-1.4,1.6c-0.8,0.7-1.7,1.3-2.6,1.8c-0.8,0.5-1.7,0.7-2.6,0.6
	c-0.5-0.1-0.9-0.3-1.2-0.7s-0.5-0.8-0.5-1.2c-0.7,0-1.5-0.3-2-0.8"/>
<path class="st1" d="M66.4,304.8c0.2-0.4,0.3-0.8,0.2-1.2c-0.1-0.4-0.2-0.8-0.5-1.1c-0.4-0.3-0.9-0.4-1.3-0.5c-0.5,0-1,0-1.4,0.2
	c-2.1,0.8-4.1,2-5.9,3.5l-0.4,1.3c0.1,0.5,0.3,1,0.5,1.4c0.1,0.2,0.3,0.4,0.5,0.6c0.2,0.2,0.4,0.3,0.7,0.3c0.5,0,1-0.1,1.4-0.3
	c1.4-0.5,2.7-1.2,4-2C65,306.4,65.8,305.7,66.4,304.8z"/>
<path class="st5" d="M62,314c0.5-0.6,1.1-1.1,1.7-1.5c1.1-0.9,2.7-2.1,4.4-3.5c0.2-0.2,0.4-0.3,0.7-0.5c0.1-0.1,0.1-0.1,0.2-0.1
	c0.1,0,0.2,0,0.3,0c0.2,0,0.3,0.1,0.5,0.2c0.4,0.3,0.7,0.8,0.9,1.3c0.2,0.5,0.3,1,0.1,1.5c-0.1,0.4-0.3,0.8-0.6,1.1
	c-0.3,0.5-0.8,0.9-1.2,1.2c-0.3,0.2-0.5,0.4-0.5,0.3c0,0,0.7-0.6,1.5-1.8c0.2-0.3,0.4-0.7,0.5-1c0.1-0.4,0-0.8-0.1-1.1
	c-0.2-0.4-0.5-0.8-0.8-1.1c-0.1-0.1-0.2-0.1-0.2-0.1c-0.1,0,0,0-0.2,0.1l-0.6,0.5c-1.7,1.3-3.3,2.5-4.5,3.3
	C63.3,313.3,62.7,313.7,62,314z"/>
<path class="st5" d="M58.2,310.3c0.5-0.4,1-0.8,1.6-1.1c1-0.6,2.5-1.5,4.1-2.4l0.2-0.1c0.7-0.6,1.6-1,2.5-1.1c0.4,0,0.8,0,1.2,0.2
	c0.4,0.2,0.7,0.4,0.9,0.7c0.3,0.4,0.5,0.9,0.5,1.4c0,0.4,0,0.5-0.1,0.5c-0.1-0.2-0.1-0.3-0.1-0.5c-0.1-0.5-0.3-0.9-0.6-1.3
	c-0.2-0.2-0.5-0.4-0.8-0.6c-0.3-0.1-0.6-0.2-1-0.1c-0.8,0.1-1.6,0.5-2.3,1l-0.2,0.1c-1.6,0.9-3.1,1.7-4.2,2.2
	C59.4,309.8,58.8,310.1,58.2,310.3z"/>
<path class="st5" d="M55.7,307.3c0.9-0.4,1.8-0.7,2.8-0.9h-0.1c1.2-1,2.8-2.3,4.6-3.8l1.2-0.9l0.1-0.1h0.1c0.5,0.1,1.1,0.3,1.5,0.5
	c0.5,0.2,0.8,0.6,1,1.1c0.1,0.2,0.1,0.5,0.1,0.7c0,0.2-0.1,0.5-0.2,0.7c-0.2,0.3-0.4,0.6-0.7,0.9c-0.4,0.4-0.8,0.7-1.3,0.9
	c-0.2,0.1-0.3,0.2-0.5,0.2c0-0.1,0.7-0.5,1.6-1.4c0.4-0.5,1-1.2,0.6-1.9c-0.2-0.4-0.6-0.7-0.9-0.9c-0.4-0.2-0.8-0.4-1.3-0.4h0.2
	l-1.2,0.9c-1.8,1.4-3.5,2.7-4.7,3.7C57.6,307,56.6,307.2,55.7,307.3z"/>
<path class="st5" d="M60.5,302.1l-13.7-10.8c-0.8-0.5-1.4-1.2-1.9-2c-0.2-0.4-0.3-0.9-0.2-1.3c0.1-0.5,0.3-0.9,0.6-1.2
	c0.4-0.2,0.8-0.4,1.2-0.4c0.4,0,0.9,0,1.3,0.2c2.9,0.6,5.7,1.7,8.3,3.1c-0.9-2.1-1.8-4.1-2.8-6.1c-0.4-0.9-0.7-1.9-0.1-2.6
	c0.6-0.7,1.8-0.5,2.6-0.1c1.8,0.9,3.4,2.2,4.6,3.8c1.2,1.6,1.9,3.5,2.2,5.5c0.5-4.2,1.5-8.2,3.1-12.1c0.4-1.1,1.1-2.3,2.2-2.6
	c0.6-0.1,1.2,0,1.7,0.2c0.5,0.3,1,0.7,1.3,1.2c0.5,1.1,0.8,2.3,0.7,3.5c0.2,7.3-1.5,14.5-5,20.9"/>
<path class="st1" d="M76.5,297.1c0,0-11-1-11.3-0.9c-0.3,0.1-7.4,4.5-8.4,6.4c-1,1.9-2,4.3-2,4.3s1.2,1.8,3.8-0.1
	c2.7-2,5.3-4.2,5.3-4.2l3.1,0.9c0,0,3.9,6,10.1,3.6"/>
<path class="st5" d="M77.1,306.9c-0.2,0.1-0.5,0.2-0.8,0.3c-0.3,0.1-0.7,0.2-1,0.3c-0.4,0.1-0.9,0.1-1.4,0.1c-1.2,0-2.5-0.4-3.6-0.9
	c-1.4-0.8-2.6-1.9-3.6-3.2l0.1,0.1l-3.1-0.9H64c-1.2,1-2.5,2.1-4,3.2c-0.7,0.6-1.5,1.1-2.3,1.6c-0.4,0.2-0.9,0.4-1.4,0.4
	c-0.5,0-1.1-0.1-1.5-0.5c-0.1-0.1-0.3-0.2-0.4-0.4l-0.1-0.1v-0.1l1.1-2.3l0.5-1.1c0.2-0.4,0.3-0.8,0.6-1.1c0.5-0.6,1.1-1.2,1.8-1.7
	c0.6-0.5,1.2-1,1.8-1.4c1.2-0.9,2.4-1.6,3.5-2.3l0.9-0.5l0.2-0.1l0.1-0.1h0.2l0.5,0.1l1.7,0.5c2.2,0.6,3.9,1.2,5.1,1.6l1.4,0.5
	c0.2,0,0.3,0.1,0.5,0.2c-0.2,0-0.3,0-0.5-0.1l-1.4-0.4l-5.1-1.4l-1.7-0.5l-0.4-0.1c0,0,0,0,0-0.1c0,0.1,0,0.1,0,0.1h-0.1l-0.2,0.1
	l-0.8,0.5c-1.1,0.7-2.3,1.5-3.5,2.4c-0.6,0.4-1.2,0.9-1.8,1.4c-0.6,0.5-1.2,1-1.7,1.6c-0.2,0.3-0.4,0.7-0.5,1.1
	c-0.2,0.4-0.4,0.8-0.5,1.1c-0.4,0.8-0.7,1.5-1.1,2.3v-0.2c0.1,0.1,0.2,0.2,0.3,0.3c0.4,0.2,0.8,0.4,1.2,0.4s0.8-0.1,1.2-0.4
	c0.8-0.5,1.5-1,2.2-1.5c1.4-1.1,2.7-2.2,4-3.2l0.1-0.1h0.1l3.1,0.9h0.1v0.1c0.9,1.3,2.1,2.4,3.4,3.1c1,0.6,2.2,0.9,3.4,1
	C75.1,307.3,76.1,307.2,77.1,306.9z"/>
<path class="st14" d="M140.1,210l-8.4-40.8c-1.7-10.2-9.1-17.7-19.3-15.7l-0.9,0.2c-4.5,1.2-8.4,4-10.9,7.9
	c-2.5,3.9-3.5,8.7-2.6,13.2c1.6,8.8,3.4,18.6,4.7,23.2c2.6,9.6,12.6,8.6,12.6,8.6s1.3,5.9,2,8.7l-0.8,7.2l7.5-3.7L140.1,210z"/>
<path class="st15" d="M115.2,206.8c4.4-1.2,8.4-3.6,11.6-7c0,0-1.1,8-11,9.7L115.2,206.8z"/>
<path class="st5" d="M104.6,182.4c0.1,0.4,0.3,0.7,0.6,0.8c0.3,0.2,0.7,0.2,1,0.2c0.2,0,0.3-0.1,0.5-0.2c0.2-0.1,0.3-0.2,0.4-0.4
	c0.1-0.1,0.2-0.3,0.2-0.5s0-0.4,0-0.5c-0.1-0.4-0.3-0.6-0.6-0.8c-0.3-0.2-0.7-0.2-1-0.2c-0.2,0-0.3,0.1-0.5,0.2
	c-0.2,0.1-0.3,0.2-0.4,0.4c-0.1,0.2-0.2,0.3-0.2,0.5C104.6,182,104.6,182.2,104.6,182.4z"/>
<path class="st5" d="M101.1,178.7c0.2,0.1,1.1-0.9,2.5-1.3c1.5-0.4,2.8,0.1,2.9-0.2c0.1-0.2-0.2-0.4-0.8-0.6
	c-0.8-0.3-1.6-0.3-2.3-0.1c-0.8,0.2-1.5,0.6-2,1.3C101,178.3,101,178.6,101.1,178.7z"/>
<path class="st5" d="M119.4,178.8c0.1,0.4,0.3,0.7,0.6,0.8s0.7,0.2,1,0.2c0.2,0,0.3-0.1,0.5-0.2c0.2-0.1,0.3-0.2,0.4-0.4
	s0.2-0.3,0.2-0.5c0-0.2,0-0.4,0-0.5c-0.1-0.4-0.3-0.7-0.6-0.8c-0.3-0.2-0.7-0.2-1-0.2c-0.2,0-0.3,0.1-0.5,0.2
	c-0.2,0.1-0.3,0.2-0.4,0.4c-0.1,0.1-0.2,0.3-0.2,0.5C119.3,178.4,119.3,178.6,119.4,178.8z"/>
<path class="st5" d="M115.7,175.3c0.2,0.1,1.1-0.9,2.5-1.3s2.8,0.1,2.9-0.1c0.1-0.2-0.2-0.4-0.8-0.6c-0.8-0.3-1.6-0.3-2.3-0.1
	c-0.8,0.2-1.5,0.6-2,1.3C115.6,174.8,115.6,175.2,115.7,175.3z"/>
<path class="st5" d="M113.3,188c-0.8,0-1.7,0-2.5,0.2c-0.4,0.1-0.8,0.1-0.9-0.2c-0.1-0.4-0.1-0.8,0-1.2c0.1-1,0.2-2.1,0.4-3.2
	c0.5-4.5,0.7-8.1,0.6-8.2c-0.2,0-0.7,3.6-1.2,8.1c-0.1,1.1-0.2,2.2-0.3,3.2c-0.1,0.5-0.1,1.1,0.2,1.5c0.1,0.1,0.2,0.2,0.3,0.3
	c0.1,0.1,0.3,0.1,0.4,0.1c0.2,0,0.4,0,0.7-0.1C111.7,188.5,112.5,188.3,113.3,188z"/>
<path class="st5" d="M114,170.8c0.3,0.3,1.6-0.4,3.4-0.9c1.7-0.5,3.3-0.6,3.3-1c0-0.2-0.3-0.5-1-0.6c-0.9-0.2-1.8-0.1-2.7,0.2
	c-0.9,0.3-1.7,0.7-2.4,1.4C114,170.2,113.8,170.6,114,170.8z"/>
<path class="st5" d="M99.9,174.4c0.4,0.3,1.5-0.4,3-0.8c1.5-0.4,2.7-0.4,2.9-0.9c0.1-0.2-0.2-0.5-0.8-0.7c-0.8-0.2-1.7-0.2-2.6,0
	c-0.8,0.2-1.6,0.6-2.2,1.3C99.8,173.9,99.7,174.2,99.9,174.4z"/>
<path class="st14" d="M132.8,176.6c0.1-0.1,6.1-3.7,7.6,3c1.5,6.7-5.5,6.8-5.5,6.6C134.8,186,132.8,176.6,132.8,176.6z"/>
<path class="st15" d="M136.3,183.2c0,0,0.1,0.1,0.3,0.1c0.2,0,0.3,0,0.5,0c0.1,0,0.3-0.1,0.4-0.2c0.4-0.4,0.6-0.8,0.7-1.3
	c0.1-0.5,0.1-1,0-1.5c-0.1-0.6-0.4-1.1-0.7-1.6c-0.1-0.2-0.3-0.4-0.5-0.5c-0.2-0.1-0.4-0.2-0.6-0.2c-0.1,0-0.3,0-0.4,0.1
	c-0.1,0.1-0.2,0.2-0.2,0.3c0,0.2,0,0.3,0,0.3c0,0-0.2-0.1-0.2-0.4c0-0.2,0.1-0.3,0.2-0.5c0.2-0.2,0.4-0.3,0.6-0.3
	c0.3,0,0.6,0.1,0.8,0.2c0.3,0.1,0.5,0.3,0.6,0.6c0.4,0.5,0.7,1.1,0.8,1.8c0.2,0.6,0.2,1.2,0,1.8c-0.2,0.6-0.5,1.1-1,1.5
	c-0.2,0.1-0.4,0.1-0.5,0.2c-0.2,0-0.4,0-0.6-0.1C136.4,183.3,136.3,183.2,136.3,183.2z"/>
<path class="st5" d="M118.2,187.9c-0.2,0,0.1,1.6-1,2.9c-1.1,1.4-2.7,1.5-2.7,1.8c0,0.2,0.4,0.2,1.1,0.1c0.9-0.2,1.7-0.7,2.3-1.4
	c0.5-0.7,0.8-1.6,0.7-2.4C118.6,188.2,118.3,187.9,118.2,187.9z"/>
<path class="st5" d="M82.6,169.2c0-0.4,0.2-0.8,0.5-1.1c0.7-0.5,1.5-0.9,2.4-1c2.1-0.5,4-1.5,5.7-2.9c-0.7-0.2-1.4-0.5-2.1-0.8
	c-0.7-0.4-1.2-0.9-1.6-1.6c-0.4-0.7-0.6-1.5-0.5-2.2c0-0.1,0-0.3,0.1-0.4c0.1-0.1,0.2-0.2,0.3-0.3c0.4-0.2,0.9,0.1,1.3,0.4
	c0.5,0.4,1.1,0.7,1.8,0.8c0.6,0.1,1.3,0.1,1.9-0.2c0.9-0.3,1.7-0.7,2.3-1.3l0.1-0.1c0.3-0.4,0.5-0.9,0.8-1.3
	c1.9-3.1,3.7-5.3,5.7-6.7c3.5-2.3,7.6-3.6,11.8-3.7c3.6,0.1,7.2,2.2,8.5,5.5c1.5-2,4.4-2.7,6.9-2.3h0.1c2.8,0.3,4.8,2.7,6.2,5.1
	c0.1,0.1,0.2,0.3,0.2,0.4c1.2,1.2,2.6,2.1,4.2,2.6c0.3,0.1,0.6,0.2,0.7,0.5c0,0.1,0,0.3,0,0.4c0,0.1-0.1,0.3-0.2,0.4
	c-0.5,0.6-1.2,1-1.9,1.3c0.4,0.6,0.8,1.1,1.3,1.6c0.4,0.4,0.9,0.9,0.7,1.5c-0.1,0.2-0.2,0.4-0.4,0.5c-0.2,0.1-0.4,0.2-0.6,0.2
	c-0.5,0-0.9-0.1-1.3-0.3l1.3,1.8c-0.9,0.4-1.9,0.5-2.8,0.5c0,2.6,0.6,7.2,0.4,9c-1.8,0.4-2.2,0.3-3,0.8c-1.1,0.6-0.2,2.6-1.8,2.3
	c-0.8-0.1-2.7-2.7-3.1-3.4c-2.9-4.8-4.7-10.1-5.4-15.6c-1.3-0.9-2.8-1.5-4.4-1.8l0.1,0.1c-2.9-0.3-6.2-0.5-8.5,1.3
	c-1.8,1.4-2.5,3.8-3.6,5.8c-0.9,1.8-2.2,3.4-3.8,4.6c-1.6,1.3-3.4,2.2-5.3,2.7c0.3,3,1.3,7.8,1.8,10.6l-3.6-4.9
	c-0.3-0.3-0.5-0.6-0.7-0.9L95,177c-0.4-0.5-0.7-0.9-1.1-1.4c-0.3,0.3-0.6,0.6-1,0.7c-0.4,0.1-0.8,0-1.2-0.2
	c-0.4-0.2-0.6-0.5-0.8-0.9c-0.1-0.4-0.1-0.8,0-1.2c0.2-0.4,0.4-0.7,0.6-1c-0.3,0.4-0.6,0.8-1.1,1c-0.4,0.2-0.9,0.3-1.4,0.3
	c-0.5,0-0.9-0.2-1.3-0.5c-0.4-0.3-0.6-0.7-0.7-1.2c0-0.3,0-0.6,0.1-0.9c0.1-0.3,0.3-0.5,0.6-0.7c-1.2,0.4-2.4,0.4-3.6,0
	C83.4,170.6,82.6,170.1,82.6,169.2z"/>
<path class="st6" d="M118.7,154c0.4,0.2,0.8,0.4,1.2,0.7c1,0.7,1.7,1.7,2.2,2.9c0.3,0.8,0.6,1.6,0.8,2.4c0.2,0.9,0.4,1.9,0.5,2.9
	c0.2,1.1,0.4,2.1,0.7,3.2c0.2,0.6,0.4,1.1,0.6,1.6c0.2,0.6,0.6,1.1,1.1,1.5c0.2,0.2,0.5,0.2,0.7,0.3c0.3,0,0.5,0,0.8-0.1
	c0.5-0.2,0.8-0.6,1.1-1c0.4-0.8,0.5-1.8,0.4-2.7l-0.2,0.1c0.5,0.7,1,1.3,1.7,1.8c0.6,0.5,1.4,0.7,2.1,0.6c0.4,0,0.7-0.2,1-0.4
	c0.2-0.2,0.4-0.5,0.5-0.8c0.1-0.3,0.1-0.6,0-0.9c-0.1-0.3-0.2-0.5-0.5-0.7l-0.1,0.1c0.7,0.5,1.6,0.9,2.4,1.1c0.2,0,0.5,0.1,0.7,0.1
	c0.1,0,0.2,0,0.2,0h-0.2c-0.1,0-0.4-0.1-0.7-0.1c-0.9-0.2-1.7-0.6-2.4-1.1l-0.1,0.1c0.2,0.2,0.4,0.4,0.4,0.7c0.1,0.3,0.1,0.5,0,0.8
	c-0.1,0.3-0.2,0.5-0.5,0.7c-0.3,0.2-0.6,0.3-0.9,0.4c-0.7,0.1-1.4-0.1-2-0.6c-0.6-0.5-1.1-1.1-1.6-1.7l-0.2-0.3v0.3
	c0.1,0.9,0,1.8-0.4,2.6c-0.2,0.4-0.6,0.7-1,0.9c-0.2,0.1-0.4,0.1-0.6,0.1s-0.4-0.1-0.6-0.2c-0.4-0.4-0.8-0.8-1-1.4
	c-0.2-0.5-0.4-1-0.6-1.6c-0.3-1-0.5-2.1-0.7-3.2c-0.2-1-0.3-2-0.5-2.9c-0.2-0.8-0.5-1.7-0.9-2.4c-0.5-1.1-1.3-2.1-2.3-2.9
	C119.5,154.3,119.1,154.1,118.7,154z"/>
<path class="st6" d="M90.9,170.4L90.9,170.4l0.4,0.1c0.1,0.1,0.3,0.1,0.5,0.2c0.2,0.1,0.4,0.1,0.7,0.2c1.4,0.3,2.9,0.2,4.3-0.2
	c2.1-0.6,3.9-1.9,5.3-3.5c1.7-2,3-4.4,3.7-6.9c0.4-1.3,0.7-2.7,1.1-3.9c0.3-1.2,0.8-2.4,1.5-3.5c0.6-1,1.4-1.8,2.4-2.3
	c0.5-0.2,0.9-0.4,1.4-0.5c0.5-0.1,0.9-0.1,1.4-0.1c0.8,0.1,1.6,0.3,2.3,0.8c0.5,0.3,1,0.7,1.4,1.2c0.3,0.4,0.6,0.9,0.8,1.3v-0.1
	l-0.1-0.3c-0.2-0.4-0.4-0.7-0.6-1c-0.4-0.5-0.9-0.9-1.4-1.2c-0.7-0.4-1.5-0.7-2.3-0.8c-1-0.1-2,0.1-3,0.5c-1,0.6-1.9,1.4-2.5,2.4
	c-0.7,1.1-1.2,2.3-1.5,3.5c-0.4,1.3-0.7,2.6-1.1,3.9c-0.7,2.5-2,4.9-3.6,6.9c-1.4,1.6-3.2,2.8-5.2,3.5c-1.4,0.4-2.8,0.5-4.3,0.3
	C91.9,170.6,91.4,170.5,90.9,170.4z"/>
<path class="st6" d="M89,166.3c0,0,0.1,0.1,0.4,0.2c0.4,0.1,0.8,0.2,1.2,0.3c0.6,0.1,1.2,0.2,1.8,0.2c1.4,0,2.9-0.3,4.2-0.8
	c0.5-0.2,1.1-0.5,1.6-0.8c0.4-0.2,0.7-0.4,1-0.7c0.1-0.1,0.2-0.2,0.3-0.3c0,0-0.5,0.4-1.4,0.9c-0.5,0.3-1,0.5-1.5,0.8
	c-1.3,0.5-2.7,0.8-4.1,0.8c-0.6,0-1.1,0-1.7-0.1C89.6,166.4,89,166.3,89,166.3z"/>
<path class="st1" d="M103.7,264.2c0.5,0.3,14.9,2.4,14.9,2.4l-9.2-43.3c-2.5,4.6-4.1,9.6-4.7,14.8
	C104,245.9,103.7,264.2,103.7,264.2z"/>
<path class="st1" d="M181.2,291.1c-0.9-5-5.7-17-5.1-18.3l-6.1-18.8l-0.3-4.7l-13-42.6l-15.7-3.9h-2.4
	c-9.2,10.7-18.1,18.2-21.6,12.2l-2.9,2.8c0,0-2.9,8.7-2.9,9c-0.2,4.4-0.5,4,0.5,11.8c0.6,4.7,6.1,37.1,6.1,37.1s5.7,25.5,7.8,29.4
	c0.3,0.7,1.7,14.3,1.7,14.3c18.4,4.2,38,3.3,58.5-1.8C185.9,317.7,182.1,296.1,181.2,291.1z"/>
<g class="st8">
	<path d="M147,236.3l27.6,28.4l-4-10.3L147,236.3z"/>
</g>
<path class="st13" d="M139.5,202.4c-4.8,5.9-8.3,12.8-10.3,20.2c-1,4.5-4.3,27.9-4.3,27.9l-10.9-33.1c0,0-7.5,7.2-7.5,9.8
	c0,0,9.3,35,9.5,36.4c0.7,4.3,6.1,34.2,6.4,35.6c0.3,1.4,2.5,23.9,2.5,23.9l8.6-0.3l1.1-8l1.8,8c20.9-1.1,36.8-4.1,51.7-9.9
	c-1.4-9.5-5.2-22.2-9.2-35.4l-9.9-49l-13.6-22.7C151.4,204,144.6,202.8,139.5,202.4z"/>
<g class="st9">
	<path class="st2" d="M126.8,298.6l-11.1-51l7.5-2.5l-1.8-5.3l-7.7,2.3l-5-18.9c0,0-2.6,2.4-2.2,4c0.4,1.3,3.2,12.1,4.2,15.8h-0.1
		l1.6,5.8l10.2,50.4l1.2,9.9l61.8-9.2l-2.5-9.2l-30.1,4.3l-12.4-53.4l18.1-3.4c0.5,0-5.2-5.7-5.2-5.7l-14.8,3.2
		c-0.6-3.8-1.7-11.9-0.3-18.2c1.9-8.5,9.3-13.8,9.3-13.8c-1.6-0.4-3.2-0.6-4.8-0.8c0,0-5.2,5.1-8.2,15.3c-1.7,6.1-2.1,12.4-1.4,18.6
		l-6.5,1.4l-0.9,6.1l8-1.5l10.5,53.4"/>
</g>
<path class="st5" d="M125,323.1c0-0.1-0.1-0.3-0.1-0.4c0-0.3-0.1-0.7-0.2-1.3c-0.1-1.2-0.3-2.8-0.6-4.8c-0.5-4.2-1.1-10.2-1.9-17.3
	c-1.4-6.8-3-14.7-4.7-23.2c-1.3-6.5-2.6-12.6-3.7-18.2c-0.3-1.4-0.6-2.8-0.8-4.1s-0.5-2.6-0.8-3.8c-0.6-2.5-1.2-4.8-1.7-6.8
	c-1-4.2-1.9-7.5-2.5-9.9c-0.3-1.1-0.5-2-0.6-2.7l-0.2-0.7c0-0.1,0-0.2,0-0.2c0,0.1,0.1,0.1,0.1,0.2c0,0.2,0.1,0.4,0.2,0.7
	c0.2,0.7,0.4,1.6,0.7,2.7c0.6,2.4,1.5,5.7,2.6,9.9c0.5,2.1,1.1,4.4,1.8,6.8c0.3,1.2,0.6,2.5,0.9,3.8c0.3,1.3,0.6,2.7,0.8,4.1
	c1.1,5.6,2.4,11.7,3.7,18.2c1.7,8.5,3.3,16.5,4.7,23.2c0.7,7.1,1.3,13.1,1.8,17.3c0.2,2.1,0.3,3.7,0.4,4.9c0,0.5,0.1,1,0.1,1.3
	C125,322.8,125,322.9,125,323.1z"/>
<path class="st5" d="M161.5,268.6c-0.3,0.4-0.6,0.7-0.9,1c-0.6,0.6-1.5,1.5-2.6,2.6c-2.2,2.1-5.4,5-9,8.1c-3.6,3.1-7,5.7-9.4,7.6
	c-1.2,0.9-2.3,1.7-3,2.2c-0.4,0.3-0.7,0.5-1.1,0.7c0.3-0.3,0.6-0.6,1-0.9l2.8-2.3c2.4-1.9,5.7-4.6,9.3-7.7c3.6-3,6.8-5.9,9.1-7.9
	l2.7-2.4C160.8,269.1,161.1,268.8,161.5,268.6z"/>
<path class="st5" d="M134.7,315.5c-0.1-0.3-0.1-0.7-0.2-1c-0.1-0.7-0.2-1.6-0.3-2.7c-0.2-2.4-0.6-5.8-1-9.9
	c-0.2-2.6-0.7-5.6-1.2-8.8c-0.5-3.2-1.1-6.6-1.7-10.1c-1.5-8.9-2.9-17-3.9-22.9c-0.5-2.9-0.9-5.2-1.2-7c-0.1-0.8-0.2-1.4-0.3-1.9
	c0-0.2-0.1-0.4-0.1-0.7c0.1,0.2,0.1,0.4,0.2,0.6l0.4,1.9c0.3,1.7,0.8,4,1.3,6.9c1.1,5.8,2.5,13.9,4,22.9c0.6,3.6,1.2,7,1.7,10.2
	c0.2,1.6,0.5,3.1,0.7,4.6c0.1,0.7,0.2,1.5,0.3,2.2l0.1,1l0.1,1c0.3,4.1,0.6,7.5,0.8,9.9c0.1,1.1,0.2,2.1,0.2,2.7
	C134.7,314.8,134.8,315.1,134.7,315.5z"/>
<path class="st5" d="M113.9,217.6c0.1,0.1-1.8,1.8-3.8,4.1c-2,2.3-3.3,4.5-3.5,4.4c0.7-1.8,1.8-3.4,3.1-4.7
	C110.9,219.9,112.3,218.7,113.9,217.6z"/>
<path class="st14" d="M205.7,258.6c-2-6.7-5.5-12.8-10.3-17.8l-27.5-28.7c-1.8-2.1-4.1-3.7-6.7-4.7c-2.6-1-5.3-1.5-8.1-1.3
	c-2.8,0.2-6.6,2.1-8.3,4.4c-4.1,5.7-2.8,12.4-2.4,14.4l9.2,9l33.9,28.8l14.6,41.6l13.7-2.5L205.7,258.6z"/>
<path class="st1" d="M142.4,225c-0.7-2.4-0.8-5-0.4-7.5c0.4-2.5,1.4-4.9,2.8-6.9c1.7-2.3,5.5-4.2,8.3-4.5c2.8-0.2,5.5,0.2,8.1,1.3
	c2.6,1,4.8,2.7,6.7,4.7l20.4,19.9L170.4,253C170.4,253,144.7,231.8,142.4,225z"/>
<path class="st1" d="M202.3,311.5c0,0,3.5,2.3,4.2,5.4c0.2,0.8,0.2,1.7-0.1,2.5c-0.3,0.8-0.8,1.5-1.5,1.9c0,0,1,4.1,3.7,4.7
	c0.7,0.2,1.5,0.1,2.2-0.2c0.7-0.3,1.2-0.8,1.5-1.5c0,0,0.8,0.3,1.1,0.4c3,0.6,3.3-4,3.3-4c2.1,0,2.8-2.9,2.8-2.9
	c0-1.7-0.1-3.5-0.4-5.2c-0.5-2-4.9-9.3-4.9-9.3s-0.8-11.7-0.9-12.6l-18.2,3.4c0,0,3.8,10,3.9,10.9c0,0-1.2,2.6-1.4,3.4
	c-0.5,1.7-1.3,5,0.2,8.2c0,0,0.7,1.1,1.5,0C200.1,315.5,202.3,311.5,202.3,311.5z"/>
<path class="st5" d="M211.8,320.9c0.1-0.1,0.7,0.7,0.8,1.9c0.1,1.2-0.4,2-0.5,1.9c-0.1-0.1,0-0.9,0-1.9
	C212.1,321.8,211.7,321,211.8,320.9z"/>
<path class="st5" d="M216.4,318c0.1,0,0.4,0.6,0.4,1.4c0.1,0.8,0,1.5-0.1,1.5c-0.1,0-0.3-0.6-0.4-1.4S216.2,318,216.4,318z"/>
<path class="st5" d="M202.9,324c3.3,0,6-2.7,6-6c0-3.3-2.7-6-6-6c-3.3,0-6,2.7-6,6C196.8,321.3,199.5,324,202.9,324z"/>
<path class="st2" d="M82.4,197.2l-5.4,5.2c-0.7,6.3-3.8,12-8.5,16.2c-4.8,4.1-10.9,6.3-17.2,6.2c-6.3-0.2-12.3-2.7-16.8-7
	c-4.5-4.4-7.3-10.3-7.7-16.5c-0.4-6.3,1.5-12.5,5.5-17.4c3.9-4.9,9.6-8.2,15.8-9.2s12.6,0.4,17.8,3.9c5.2,3.5,9,8.8,10.5,14.9
	L82.4,197.2z"/>
<path class="st5" d="M82.4,197.2c-0.1-0.1-0.2-0.2-0.4-0.3l-1.1-0.7l-4.4-2.9c0,0,0,0-0.1,0s-0.1,0-0.1,0c0,0,0,0,0,0.1h0.2
	c-1-4-2.9-7.8-5.7-10.8c-0.9-1-1.8-1.9-2.8-2.7c-0.5-0.4-1.1-0.8-1.7-1.2c-0.3-0.2-0.6-0.4-0.9-0.6l-0.9-0.5
	c-5.7-3.3-12.5-4.2-18.8-2.5c-3.7,0.9-7.2,2.7-10.1,5.2c-2.9,2.5-5.3,5.6-6.8,9.1c-2.5,5.7-2.9,12.2-0.9,18.2
	c0.6,1.9,1.5,3.8,2.6,5.5c2.1,3.3,4.9,6.1,8.2,8.2c5.5,3.4,12.2,4.6,18.5,3.2c6.4-1.3,12-5.1,15.7-10.4c2.4-3.4,3.8-7.4,4.3-11.5
	v0.1c1.7-1.7,3.1-3,4-3.9l1-1C82.3,197.4,82.4,197.3,82.4,197.2c0,0-0.1,0.1-0.3,0.3l-1.1,1l-4,3.8c0,0,0,0,0,0.1
	c-0.4,3.3-1.4,6.4-3,9.3c-1.6,2.9-3.8,5.4-6.4,7.4c-2.6,2-5.6,3.5-8.7,4.4c-3.2,0.9-6.5,1.1-9.7,0.7c-3.6-0.4-7.1-1.6-10.2-3.6
	c-5-3.1-8.7-7.9-10.6-13.4c-0.6-1.9-1-4-1.1-6c-0.3-4.1,0.4-8.1,2-11.8c1.6-3.6,3.9-6.7,6.9-9.2c2.8-2.3,6.1-4,9.6-4.9
	c6.3-1.6,12.9-0.8,18.5,2.4l0.9,0.5c0.3,0.2,0.6,0.4,0.9,0.6c0.6,0.4,1.1,0.8,1.7,1.2c1,0.8,1.9,1.7,2.8,2.6c2.7,3,4.7,6.7,5.7,10.7
	c0,0,0,0,0,0c0,0,0,0,0,0c0,0,0,0,0,0c0,0,0,0,0,0c0,0,0,0,0.1,0c0,0,0,0,0-0.1l-0.2,0.1l4.5,2.8l1.2,0.7L82.4,197.2z"/>
<path class="st7" d="M42.8,200.2l2.8-2.8l5.4,4.8l10.5-10.1l2.6,2.8l-13.5,12.7L42.8,200.2z"/>
</svg>
