<?xml version="1.0" encoding="utf-8"?>
<!-- Generator: Adobe Illustrator 22.1.0, SVG Export Plug-In . SVG Version: 6.00 Build 0)  -->
<svg version="1.1" id="Layer_1" xmlns="http://www.w3.org/2000/svg" xmlns:xlink="http://www.w3.org/1999/xlink" x="0px" y="0px"
	 viewBox="0 0 500 360" style="enable-background:new 0 0 500 360;" xml:space="preserve">
<style type="text/css">
	.st0{fill:#A6A6A6;}
	.st1{fill:#DBDBDB;}
	.st2{fill:#EBEBEB;}
	.st3{fill:#263238;}
	.st4{fill:#2CA84F;}
	.st5{opacity:0.1;enable-background:new    ;}
	.st6{fill:#EB9481;}
	.st7{fill:#37474F;}
	.st8{fill:#455A64;}
	.st9{fill:#FFFFFF;}
	.st10{fill:#FF99BA;}
	.st11{opacity:0.3;}
</style>
<g>
	<path class="st0" d="M99.4,224.2c-13.7,13.4-16,34.1-13.1,52.3c0.1,0.4,0.7,0.3,0.7-0.1c0-4.1-0.1-8.2-0.1-12.3
		c0.1-0.2,0.1-0.4,0.2-0.5c3.6-2.6,6.9-5.5,8.9-9.5c2.3-4.5,3.2-9.6,4.9-14.3c0.2-0.5-0.3-0.3-0.6-0.1c-8.3,6.1-11,12.7-13.4,21.6
		c0-4.6,0.5-9.2,1.4-13.7c1.8-8.4,5.3-16.7,11.4-22.9c0.1-0.1,0.1-0.3,0-0.4S99.5,224.1,99.4,224.2L99.4,224.2z"/>
	<path class="st1" d="M102,225.8c2.3,0.1,3.8,3.8,5.7,4.9c0.8,0.6,1.9,0.5,2.5-0.3c0,0,0.1-0.1,0.1-0.2c1.8-2.5-0.7-5.7-3-7.4
		c1.7,0.7,3.1,1.9,4.9,2.3c0.9,0.3,1.9-0.2,2.1-1.1c0-0.1,0-0.1,0.1-0.2c0.8-3.5-3.5-5-6.5-5.1c1.4-1,5.6-3.7,3.4-5.1
		s-7.1,2.5-8.7,3.8c-2.3,1.9-5.1,4.7-5.2,7.7C97.2,228.6,100.2,226.5,102,225.8z"/>
	<path class="st2" d="M101.3,226.3c3-1.4,8.8,0.6,9.3-0.5c1-2.3-3.6-3.9-6.1-4.2c2.3-0.6,6.7-1.6,6.6-3.8c-0.2-2.7-6.8-0.4-10.1,2.2
		c-4.2,3.2-4.2,6.3-3.5,7C98.4,227.7,100.8,226.6,101.3,226.3z"/>
	<path class="st0" d="M68.2,222.9c14.2,12.9,17.3,33.5,15.1,51.7c0,0.4-0.7,0.3-0.7-0.1c-0.2-4.1-0.2-8.2-0.4-12.3l-0.2-0.5
		c-3.7-2.5-7.1-5.3-9.2-9.2c-2.5-4.4-3.6-9.4-5.5-14.1c-0.2-0.4,0.3-0.3,0.6-0.1c8.6,5.8,11.5,12.3,14.2,21c-0.2-4.6-0.9-9.2-2-13.7
		c-2.1-8.3-6-16.5-12.2-22.4C67.7,223,68,222.6,68.2,222.9z"/>
	<path class="st1" d="M65.7,224.5c-2.3,0.2-3.7,4-5.5,5.1c-0.7,0.6-1.8,0.6-2.5-0.2c0-0.1-0.1-0.1-0.1-0.2c-1.9-2.5,0.5-5.7,2.7-7.5
		c-1.7,0.8-3,2-4.8,2.4c-0.9,0.3-1.9-0.1-2.2-1c0-0.1-0.1-0.2-0.1-0.3c-0.9-3.4,3.3-5.1,6.3-5.3c-1.5-0.9-5.7-3.5-3.6-4.9
		s7.2,2.3,8.8,3.5c2.4,1.8,5.3,4.5,5.5,7.5C70.7,227.2,67.6,225.2,65.7,224.5z"/>
	<path class="st2" d="M66.4,225.1c-3.1-1.3-8.8,0.9-9.3-0.2c-1.1-2.3,3.5-4,6-4.5c-2.3-0.5-6.8-1.4-6.7-3.6
		c0.1-2.7,6.7-0.6,10.2,1.8c4.3,3.1,4.4,6.2,3.7,6.8C69.4,226.4,66.9,225.3,66.4,225.1z"/>
	<path class="st0" d="M82.7,256.8c1,6.9,2.4,13.7,4.4,20.3c0.1,0.3,0.3,0.4,0.6,0.4c0.3-0.1,0.4-0.3,0.4-0.6
		c-0.9-6.3-2.6-12.4-3.6-18.7c-1-6.3-1.4-12.8-1.1-19.2c0.6-10.6,3.5-21.8,10.3-30.1c0.2-0.2-0.2-0.5-0.3-0.3
		c-13.8,16.1-11.6,35.8-11.6,37.6c-2-6.7-4-14.3-11.4-21.1c-0.3-0.3-0.6-0.1-0.5,0.4C71.4,238,74.8,244.4,82,251
		C82.2,253,82.4,254.9,82.7,256.8z"/>
	<path class="st1" d="M94,210.9c2.5-1.1,5.9,2.1,8.4,2.3c1.1,0.3,2.2-0.4,2.4-1.4c0-0.1,0-0.2,0.1-0.3c0.6-3.5-3.6-5.5-6.9-6.2
		c2.1-0.1,4.1,0.4,6.2-0.1c1.1-0.2,1.8-1.2,1.7-2.3c0-0.1,0-0.1,0-0.2c-0.9-4-6.2-3.4-9.3-2c1-1.8,3.9-6.7,1-7s-6.1,6.2-7.1,8.3
		c-1.5,3.1-2.9,7.5-1.6,10.6C90.4,216.3,92.5,212.6,94,210.9z"/>
	<path class="st2" d="M93.6,211.8c2.4-2.9,9.4-3.8,9.4-5.2c-0.1-2.9-5.7-2.2-8.5-1.3c2.1-1.8,6.1-5,4.9-7.3c-1.5-2.7-7.2,3-9.4,7.3
		c-2.7,5.5-1.1,8.7-0.1,9C91.3,214.7,93.2,212.3,93.6,211.8z"/>
	<path class="st1" d="M73.7,260.6l-6.1,46.5h37c-0.8-4.1-7.7-46.5-7.7-46.5L73.7,260.6z"/>
	<rect x="434.8" y="113.4" class="st2" width="26.5" height="11.2"/>
	<rect x="449.6" y="99.3" class="st2" width="26.5" height="11.2"/>
	<rect x="420" y="99.3" class="st2" width="26.5" height="11.2"/>
	<rect x="38.7" y="257.8" class="st2" width="26.5" height="11.2"/>
	<rect x="24" y="243.7" class="st2" width="26.5" height="11.2"/>
	<rect x="449.6" y="257.8" class="st2" width="26.5" height="11.2"/>
	<rect x="112.4" y="20.3" class="st2" width="26.5" height="11.2"/>
	<rect x="97.7" y="34.4" class="st2" width="26.5" height="11.2"/>
	<polygon class="st3" points="58,307 106,306.8 154,306.7 250,306.5 346,306.7 394,306.8 442,307 394,307.3 346,307.4 250,307.5 
		154,307.4 106,307.3 	"/>
	<path class="st4" d="M173.4,164.9L173.4,164.9c-0.3-0.3-0.5-0.6-0.8-0.8l0,0c-0.3-0.3-0.5-0.6-0.8-0.8l0,0
		c-0.3-0.3-0.5-0.6-0.8-0.8l0,0c-0.3-0.3-0.5-0.6-0.8-0.8l0,0c-0.3-0.3-0.5-0.6-0.8-0.8l0,0c-0.3-0.3-0.5-0.6-0.8-0.8l0,0
		c-0.3-0.3-0.5-0.6-0.8-0.8l0,0c-0.3-0.3-0.5-0.6-0.8-0.8l0,0c-0.3-0.3-0.5-0.6-0.8-0.8l0,0c-0.8-0.9-1.8-1.7-2.9-2.4V72.5
		c0-0.4-0.2-0.7-0.2-1.1c0.1-0.4,0-0.9-0.2-1.3c0-0.2-0.2-0.7-0.2-0.9c-0.1-0.4-0.3-0.9-0.4-1.3c-0.2-0.2-0.4-0.5-0.4-0.9
		c-0.3-0.4-0.5-0.8-0.9-1.1c-0.2-0.2-0.4-0.6-0.7-0.9l-0.9-0.9c0-0.1-0.2-0.3-0.4-0.4l-0.4-0.4h-0.1c0-0.1-0.2-0.3-0.4-0.4l-0.4-0.4
		l0,0c0-0.1-0.2-0.3-0.4-0.4l-0.4-0.4l0,0c0-0.1-0.2-0.3-0.4-0.4l-0.4-0.4l0,0c0-0.1-0.2-0.3-0.4-0.4l-0.4-0.4v-0.1
		c0-0.1-0.2-0.3-0.4-0.4l-0.4-0.4h-0.1c0-0.1-0.2-0.3-0.4-0.4l-0.4-0.4v-0.1c0-0.1-0.2-0.3-0.4-0.4l-0.4-0.4h-0.1
		c0-0.1-0.2-0.3-0.4-0.4l-0.4-0.4l0,0c0-0.1-0.2-0.3-0.4-0.4l-0.5-0.5c0-0.2-0.4-0.4-0.7-0.4c0-0.1-0.1-0.2-0.2-0.2c0,0,0,0,0,0
		c-0.4-0.2-0.7-0.4-1.1-0.7c-0.4-0.3-0.7-0.6-1.1-0.9c-0.2,0-0.7-0.2-0.9-0.2c-0.4-0.2-1.1-0.2-1.3-0.4c-0.4,0-0.8,0-1.1-0.2h-3.7
		c-0.3,0.2-0.6,0.2-0.9,0.2c-0.7,0.2-1.1,0.2-1.3,0.4c-0.4,0-0.6,0.2-0.9,0.7c-0.5,0-0.9,0.2-1.3,0.4c-0.2,0.2-0.7,0.4-0.9,0.7
		c-0.3,0.3-0.7,0.5-1.1,0.7c-0.2,0.3-0.4,0.6-0.7,0.9c-0.2,0.2-0.2,0.4-0.4,0.4L52,158c-4,4.8-3.5,11.9,1.1,16.1
		c0.3,0.3,0.5,0.6,0.8,0.8c0.3,0.3,0.5,0.6,0.8,0.8c0.3,0.3,0.5,0.6,0.8,0.8c0.3,0.3,0.5,0.6,0.8,0.8c0.3,0.3,0.5,0.6,0.8,0.8
		c0.3,0.3,0.5,0.6,0.8,0.8c0.3,0.3,0.5,0.6,0.8,0.8c0.3,0.3,0.5,0.6,0.8,0.8c0.3,0.3,0.5,0.6,0.8,0.8c0.5,0.6,1.1,1.1,1.7,1.6
		c2.1,1.8,4.7,2.7,7.4,2.6h60.7v8.3c0,3.4,1.4,6.7,3.9,9l0,0c0.3,0.3,0.5,0.5,0.8,0.8l0,0c0.3,0.3,0.5,0.6,0.8,0.8l0,0
		c0.3,0.3,0.5,0.5,0.8,0.8l0,0c0.3,0.3,0.5,0.6,0.8,0.8l0,0c0.3,0.3,0.5,0.6,0.8,0.8l0,0c0.3,0.3,0.5,0.6,0.8,0.8l0,0
		c0.3,0.3,0.5,0.5,0.8,0.8l0,0c0.3,0.3,0.5,0.6,0.8,0.8l0,0c0.3,0.3,0.5,0.5,0.8,0.8l0,0c4.5,4.9,12.2,5.2,17.1,0.7
		c2.5-2.3,3.9-5.5,3.9-8.9v-16.4h2.2c6.7,0.1,12.2-5.2,12.3-11.9c0-0.1,0-0.1,0-0.2C177.2,170.4,175.8,167.2,173.4,164.9z
		 M130.5,117.9v35.4h-28.6L130.5,117.9z"/>
	<path class="st5" d="M173.4,164.9L173.4,164.9c-0.3-0.3-0.5-0.6-0.8-0.8l0,0c-0.3-0.3-0.5-0.6-0.8-0.8l0,0
		c-0.3-0.3-0.5-0.6-0.8-0.8l0,0c-0.3-0.3-0.5-0.6-0.8-0.8l0,0c-0.3-0.3-0.5-0.6-0.8-0.8l0,0c-0.3-0.3-0.5-0.6-0.8-0.8l0,0
		c-0.3-0.3-0.5-0.6-0.8-0.8l0,0c-0.3-0.3-0.5-0.6-0.8-0.8l0,0c-0.3-0.3-0.5-0.6-0.8-0.8l0,0c-0.8-0.9-1.8-1.7-2.9-2.4V72.5
		c0-0.4-0.2-0.7-0.2-1.1c0.1-0.4,0-0.9-0.2-1.3c0-0.2-0.2-0.7-0.2-0.9c-0.1-0.4-0.3-0.9-0.4-1.3c-0.2-0.2-0.4-0.5-0.4-0.9
		c-0.3-0.4-0.5-0.8-0.9-1.1c-0.2-0.2-0.4-0.6-0.7-0.9l-0.9-0.9c0-0.1-0.2-0.3-0.4-0.4l-0.4-0.4h-0.1c0-0.1-0.2-0.3-0.4-0.4l-0.4-0.4
		l0,0c0-0.1-0.2-0.3-0.4-0.4l-0.4-0.4l0,0c0-0.1-0.2-0.3-0.4-0.4l-0.4-0.4l0,0c0-0.1-0.2-0.3-0.4-0.4l-0.4-0.4v-0.1
		c0-0.1-0.2-0.3-0.4-0.4l-0.4-0.4h-0.1c0-0.1-0.2-0.3-0.4-0.4l-0.4-0.4v-0.1c0-0.1-0.2-0.3-0.4-0.4l-0.4-0.4h-0.1
		c0-0.1-0.2-0.3-0.4-0.4l-0.4-0.4l0,0c0-0.1-0.2-0.3-0.4-0.4l-0.5-0.5c0-0.2-0.4-0.4-0.7-0.4c0-0.1-0.1-0.2-0.2-0.2c0,0,0,0,0,0
		c-0.4-0.2-0.7-0.4-1.1-0.7c-0.4-0.3-0.7-0.6-1.1-0.9c-0.2,0-0.7-0.2-0.9-0.2c-0.4-0.2-1.1-0.2-1.3-0.4c-0.4,0-0.8,0-1.1-0.2h-3.7
		c-0.3,0.2-0.6,0.2-0.9,0.2c-0.7,0.2-1.1,0.2-1.3,0.4c-0.4,0-0.6,0.2-0.9,0.7c-0.5,0-0.9,0.2-1.3,0.4c-0.2,0.2-0.7,0.4-0.9,0.7
		c-0.3,0.3-0.7,0.5-1.1,0.7c-0.2,0.3-0.4,0.6-0.7,0.9c-0.2,0.2-0.2,0.4-0.4,0.4L52,158c-4,4.8-3.5,11.9,1.1,16.1
		c0.3,0.3,0.5,0.6,0.8,0.8c0.3,0.3,0.5,0.6,0.8,0.8c0.3,0.3,0.5,0.6,0.8,0.8c0.3,0.3,0.5,0.6,0.8,0.8c0.3,0.3,0.5,0.6,0.8,0.8
		c0.3,0.3,0.5,0.6,0.8,0.8c0.3,0.3,0.5,0.6,0.8,0.8c0.3,0.3,0.5,0.6,0.8,0.8c0.3,0.3,0.5,0.6,0.8,0.8c0.5,0.6,1.1,1.1,1.7,1.6
		c2.1,1.8,4.7,2.7,7.4,2.6h60.7v8.3c0,3.4,1.4,6.7,3.9,9l0,0c0.3,0.3,0.5,0.5,0.8,0.8l0,0c0.3,0.3,0.5,0.6,0.8,0.8l0,0
		c0.3,0.3,0.5,0.5,0.8,0.8l0,0c0.3,0.3,0.5,0.6,0.8,0.8l0,0c0.3,0.3,0.5,0.6,0.8,0.8l0,0c0.3,0.3,0.5,0.6,0.8,0.8l0,0
		c0.3,0.3,0.5,0.5,0.8,0.8l0,0c0.3,0.3,0.5,0.6,0.8,0.8l0,0c0.3,0.3,0.5,0.5,0.8,0.8l0,0c4.5,4.9,12.2,5.2,17.1,0.7
		c2.5-2.3,3.9-5.5,3.9-8.9v-16.4h2.2c6.7,0.1,12.2-5.2,12.3-11.9c0-0.1,0-0.1,0-0.2C177.2,170.4,175.8,167.2,173.4,164.9z
		 M130.5,117.9v35.4h-28.6L130.5,117.9z"/>
	<path class="st4" d="M169.1,165.4c0,6.7-5.4,12.1-12.1,12.1c-0.1,0-0.1,0-0.2,0h-2.2v16.7c0,6.7-5.4,12.1-12.1,12.1
		c-6.7,0-12-5.4-12.1-12.1v-16.7H61.4c-2.7,0.1-5.4-0.8-7.4-2.6c-5.2-3.9-6.2-11.2-2.3-16.4c0.1-0.1,0.2-0.3,0.3-0.4l81.1-100.9
		c0.2,0,0.2-0.2,0.4-0.4c0.3-0.3,0.5-0.5,0.7-0.9c0.4-0.1,0.8-0.3,1.1-0.7c0.2-0.2,0.6-0.4,0.9-0.7c0.4-0.3,0.8-0.4,1.3-0.4
		c0.2-0.4,0.4-0.6,0.9-0.6c0.2-0.2,0.6-0.2,1.3-0.4c0.3,0,0.6,0,0.9-0.2h3.7c0.3,0.2,0.7,0.3,1.1,0.2c0.2,0.2,0.9,0.2,1.3,0.4
		c0.2,0,0.7,0.2,0.9,0.2c0.4,0.4,0.9,0.6,1.1,0.9c0.4,0.2,0.7,0.4,1.1,0.7c0.1,0,0.2,0.1,0.2,0.2l0,0c0.2,0,0.7,0.2,0.7,0.4l0.9,0.9
		c0.2,0.2,0.4,0.6,0.7,0.9c0.3,0.3,0.6,0.7,0.9,1.1c0.1,0.3,0.2,0.6,0.4,0.9c0.2,0.4,0.3,0.9,0.4,1.3c0,0.2,0.2,0.7,0.2,0.9
		c0.2,0.4,0.3,0.9,0.2,1.3c0,0.4,0.2,0.6,0.2,1.1v89.2h2.2C163.5,153.3,169,158.7,169.1,165.4z M130.5,99.2l-43.6,54.2h43.6V99.2z"
		/>
	<path class="st4" d="M297.3,85.4c-2.5-3.8-5.4-7.3-8.6-10.4c-0.1-0.1-0.2-0.3-0.4-0.4l-0.1-0.1c-0.1-0.1-0.2-0.2-0.3-0.3
		c-0.3-0.3-0.6-0.6-0.9-0.9l-0.1-0.1l-0.3-0.3c0,0-0.1-0.1-0.1-0.1c-0.1-0.1-0.2-0.2-0.3-0.3c-0.3-0.3-0.6-0.6-0.9-0.9l-0.1-0.1
		l-0.3-0.3l-0.1-0.1c-0.1-0.1-0.2-0.2-0.3-0.3c-0.3-0.3-0.6-0.6-0.9-0.9l-0.1-0.1l-0.3-0.3c0,0-0.1-0.1-0.1-0.1
		c-0.1-0.1-0.2-0.2-0.3-0.3c-0.3-0.3-0.6-0.6-0.9-0.9l-0.1-0.1c-0.1-0.1-0.2-0.2-0.3-0.3c0,0-0.1-0.1-0.1-0.1
		c-8.8-9.1-20.3-15.1-33.2-15.1c-17.3,0-31.6,10.3-40.8,24.3c-9.6,14-14.7,32.3-14.9,52.4c0.2,20,5.3,38.4,14.9,52.4
		c2.5,3.7,5.3,7.2,8.5,10.3l0.4,0.4v0l0.8,0.8c0.1,0.1,0.3,0.3,0.4,0.4l0.4,0.4l0.1,0l0.8,0.8l0.4,0.4l0.4,0.4c0,0,0,0,0.1,0
		l0.8,0.8l0.4,0.4l0.4,0.4c0,0,0,0,0.1,0.1l0.8,0.8l0.4,0.4l0.4,0.4l0.1,0.1l0.8,0.8c8.7,8.6,19.8,14.5,32.7,14.5
		c16.9,0,31.4-10.5,40.6-24.4c9.4-14,14.7-32.4,14.7-52.4C312,117.6,306.8,99.4,297.3,85.4z M268.8,168.3
		c-6.4,9.4-13.6,13.6-20.4,13.6c-4.2-0.1-8.2-1.5-11.6-4c-0.3-0.4-0.6-0.8-0.9-1.3c-6.1-9.2-10.5-23.2-10.5-38.8
		c0-15.8,4.4-29.6,10.5-39c6.6-9.2,14-13.6,20.8-13.4c4,0,7.8,1.2,11,3.6c0.4,0.5,0.7,0.9,1,1.4c6.1,9.4,10.5,23.2,10.5,39
		C279.3,145,274.9,159.1,268.8,168.3z"/>
	<path class="st5" d="M297.3,85.4c-2.5-3.8-5.4-7.3-8.6-10.4c-0.1-0.1-0.2-0.3-0.4-0.4l-0.1-0.1c-0.1-0.1-0.2-0.2-0.3-0.3
		c-0.3-0.3-0.6-0.6-0.9-0.9l-0.1-0.1l-0.3-0.3c0,0-0.1-0.1-0.1-0.1c-0.1-0.1-0.2-0.2-0.3-0.3c-0.3-0.3-0.6-0.6-0.9-0.9l-0.1-0.1
		l-0.3-0.3l-0.1-0.1c-0.1-0.1-0.2-0.2-0.3-0.3c-0.3-0.3-0.6-0.6-0.9-0.9l-0.1-0.1l-0.3-0.3c0,0-0.1-0.1-0.1-0.1
		c-0.1-0.1-0.2-0.2-0.3-0.3c-0.3-0.3-0.6-0.6-0.9-0.9l-0.1-0.1c-0.1-0.1-0.2-0.2-0.3-0.3c0,0-0.1-0.1-0.1-0.1
		c-8.8-9.1-20.3-15.1-33.2-15.1c-17.3,0-31.6,10.3-40.8,24.3c-9.6,14-14.7,32.3-14.9,52.4c0.2,20,5.3,38.4,14.9,52.4
		c2.5,3.7,5.3,7.2,8.5,10.3l0.4,0.4v0l0.8,0.8c0.1,0.1,0.3,0.3,0.4,0.4l0.4,0.4l0.1,0l0.8,0.8l0.4,0.4l0.4,0.4c0,0,0,0,0.1,0
		l0.8,0.8l0.4,0.4l0.4,0.4c0,0,0,0,0.1,0.1l0.8,0.8l0.4,0.4l0.4,0.4l0.1,0.1l0.8,0.8c8.7,8.6,19.8,14.5,32.7,14.5
		c16.9,0,31.4-10.5,40.6-24.4c9.4-14,14.7-32.4,14.7-52.4C312,117.6,306.8,99.4,297.3,85.4z M268.8,168.3
		c-6.4,9.4-13.6,13.6-20.4,13.6c-4.2-0.1-8.2-1.5-11.6-4c-0.3-0.4-0.6-0.8-0.9-1.3c-6.1-9.2-10.5-23.2-10.5-38.8
		c0-15.8,4.4-29.6,10.5-39c6.6-9.2,14-13.6,20.8-13.4c4,0,7.8,1.2,11,3.6c0.4,0.5,0.7,0.9,1,1.4c6.1,9.4,10.5,23.2,10.5,39
		C279.3,145,274.9,159.1,268.8,168.3z"/>
	<path class="st4" d="M192.7,129.5c0.2-20.2,5.3-38.4,14.9-52.4c9.2-14,23.5-24.3,40.8-24.3c16.9,0,31.4,10.3,40.6,24.3
		c9.4,14,14.7,32.2,14.7,52.4c0,20-5.3,38.4-14.7,52.4c-9.2,13.8-23.7,24.3-40.6,24.3c-17.3,0-31.6-10.5-40.8-24.3
		C198,167.8,192.9,149.4,192.7,129.5z M279.3,129.5c0-15.8-4.4-29.6-10.5-39c-6.4-9.2-13.6-13.6-20.4-13.4
		c-6.8-0.2-14.3,4.2-20.8,13.4c-6.1,9.4-10.5,23.3-10.5,39c0,15.6,4.4,29.6,10.5,38.8c6.6,9.4,14,13.6,20.8,13.6s14-4.2,20.4-13.6
		C274.9,159.1,279.3,145,279.3,129.5z"/>
	<path class="st4" d="M446.7,164.9L446.7,164.9c-0.3-0.3-0.5-0.6-0.8-0.8l0,0c-0.3-0.3-0.5-0.6-0.8-0.8l0,0
		c-0.3-0.3-0.5-0.6-0.8-0.8l0,0c-0.3-0.3-0.5-0.6-0.8-0.8l0,0c-0.3-0.3-0.5-0.6-0.8-0.8l0,0c-0.3-0.3-0.5-0.6-0.8-0.8l0,0
		c-0.3-0.3-0.5-0.6-0.8-0.8l0,0c-0.3-0.3-0.5-0.6-0.8-0.8l0,0c-0.3-0.3-0.5-0.6-0.8-0.8l0,0c-0.8-0.9-1.8-1.7-2.9-2.4V72.5
		c0-0.4-0.2-0.7-0.2-1.1c0.1-0.4,0-0.9-0.2-1.3c0-0.2-0.2-0.7-0.2-0.9c-0.1-0.4-0.3-0.9-0.5-1.3c-0.2-0.2-0.4-0.6-0.4-0.9
		c-0.2-0.4-0.5-0.8-0.9-1.1c-0.2-0.2-0.4-0.6-0.7-0.9l-0.9-0.9c0-0.1-0.2-0.3-0.4-0.4l-0.4-0.4h0c0-0.1-0.2-0.3-0.4-0.4l-0.4-0.4
		l0,0c0-0.1-0.2-0.3-0.4-0.4l-0.4-0.4l0,0c0-0.1-0.2-0.3-0.4-0.4l-0.4-0.4l0,0c0-0.1-0.2-0.3-0.4-0.4l-0.4-0.4v-0.1
		c0-0.1-0.2-0.3-0.4-0.4l-0.4-0.4h0c0-0.1-0.2-0.3-0.4-0.4l-0.4-0.4v-0.1c0-0.1-0.2-0.3-0.4-0.4l-0.4-0.4h0c0-0.1-0.2-0.3-0.4-0.4
		l-0.4-0.4l0,0c0-0.1-0.2-0.3-0.4-0.4l-0.5-0.5c0-0.2-0.4-0.4-0.7-0.4c0-0.1-0.1-0.2-0.2-0.2l0,0c-0.4-0.2-0.7-0.4-1.1-0.7
		c-0.4-0.3-0.7-0.6-1.1-0.9c-0.2,0-0.7-0.2-0.9-0.2c-0.4-0.2-1.1-0.2-1.3-0.4c-0.4,0-0.8,0-1.1-0.2h-3.7c-0.3,0.2-0.6,0.2-0.9,0.2
		c-0.7,0.2-1.1,0.2-1.3,0.4c-0.4,0-0.6,0.2-0.9,0.7c-0.5,0-0.9,0.2-1.3,0.4c-0.2,0.2-0.7,0.4-0.9,0.7c-0.3,0.3-0.7,0.5-1.1,0.7
		c-0.2,0.3-0.4,0.6-0.7,0.9c-0.2,0.2-0.2,0.4-0.4,0.4L325.3,158c-4,4.8-3.5,11.9,1.1,16.1c0.3,0.3,0.5,0.6,0.8,0.8
		c0.3,0.3,0.5,0.6,0.8,0.8c0.3,0.3,0.5,0.6,0.8,0.8c0.8,0.8,1.7,1.7,2.5,2.5c0.6,0.5,1.1,1.1,1.7,1.7c0.3,0.3,0.5,0.6,0.8,0.8
		c0.5,0.6,1.1,1.1,1.7,1.6c2.1,1.8,4.7,2.7,7.5,2.6h60.7v8.3c0,3.4,1.4,6.7,3.9,9l0,0c0.3,0.3,0.5,0.6,0.8,0.8l0,0
		c0.3,0.3,0.5,0.5,0.8,0.8l0,0c0.3,0.3,0.5,0.6,0.8,0.8l0,0c0.3,0.3,0.5,0.5,0.8,0.8l0,0c0.3,0.3,0.5,0.6,0.8,0.8l0,0
		c0.3,0.3,0.5,0.5,0.8,0.8l0,0c0.3,0.3,0.5,0.6,0.8,0.8l0,0c0.3,0.3,0.5,0.5,0.8,0.8l0,0c0.3,0.3,0.5,0.6,0.8,0.8l0,0
		c4.5,4.9,12.2,5.2,17.1,0.7c2.5-2.3,3.9-5.5,3.9-8.9v-16.4h2.2c6.7,0.1,12.2-5.2,12.3-11.9c0-0.1,0-0.1,0-0.2
		C450.5,170.4,449.2,167.2,446.7,164.9z M403.8,117.9v35.4h-28.6L403.8,117.9z"/>
	<path class="st5" d="M446.7,164.9L446.7,164.9c-0.3-0.3-0.5-0.6-0.8-0.8l0,0c-0.3-0.3-0.5-0.6-0.8-0.8l0,0
		c-0.3-0.3-0.5-0.6-0.8-0.8l0,0c-0.3-0.3-0.5-0.6-0.8-0.8l0,0c-0.3-0.3-0.5-0.6-0.8-0.8l0,0c-0.3-0.3-0.5-0.6-0.8-0.8l0,0
		c-0.3-0.3-0.5-0.6-0.8-0.8l0,0c-0.3-0.3-0.5-0.6-0.8-0.8l0,0c-0.3-0.3-0.5-0.6-0.8-0.8l0,0c-0.8-0.9-1.8-1.7-2.9-2.4V72.5
		c0-0.4-0.2-0.7-0.2-1.1c0.1-0.4,0-0.9-0.2-1.3c0-0.2-0.2-0.7-0.2-0.9c-0.1-0.4-0.3-0.9-0.5-1.3c-0.2-0.2-0.4-0.6-0.4-0.9
		c-0.2-0.4-0.5-0.8-0.9-1.1c-0.2-0.2-0.4-0.6-0.7-0.9l-0.9-0.9c0-0.1-0.2-0.3-0.4-0.4l-0.4-0.4h0c0-0.1-0.2-0.3-0.4-0.4l-0.4-0.4
		l0,0c0-0.1-0.2-0.3-0.4-0.4l-0.4-0.4l0,0c0-0.1-0.2-0.3-0.4-0.4l-0.4-0.4l0,0c0-0.1-0.2-0.3-0.4-0.4l-0.4-0.4v-0.1
		c0-0.1-0.2-0.3-0.4-0.4l-0.4-0.4h0c0-0.1-0.2-0.3-0.4-0.4l-0.4-0.4v-0.1c0-0.1-0.2-0.3-0.4-0.4l-0.4-0.4h0c0-0.1-0.2-0.3-0.4-0.4
		l-0.4-0.4l0,0c0-0.1-0.2-0.3-0.4-0.4l-0.5-0.5c0-0.2-0.4-0.4-0.7-0.4c0-0.1-0.1-0.2-0.2-0.2l0,0c-0.4-0.2-0.7-0.4-1.1-0.7
		c-0.4-0.3-0.7-0.6-1.1-0.9c-0.2,0-0.7-0.2-0.9-0.2c-0.4-0.2-1.1-0.2-1.3-0.4c-0.4,0-0.8,0-1.1-0.2h-3.7c-0.3,0.2-0.6,0.2-0.9,0.2
		c-0.7,0.2-1.1,0.2-1.3,0.4c-0.4,0-0.6,0.2-0.9,0.7c-0.5,0-0.9,0.2-1.3,0.4c-0.2,0.2-0.7,0.4-0.9,0.7c-0.3,0.3-0.7,0.5-1.1,0.7
		c-0.2,0.3-0.4,0.6-0.7,0.9c-0.2,0.2-0.2,0.4-0.4,0.4L325.3,158c-4,4.8-3.5,11.9,1.1,16.1c0.3,0.3,0.5,0.6,0.8,0.8
		c0.3,0.3,0.5,0.6,0.8,0.8c0.3,0.3,0.5,0.6,0.8,0.8c0.8,0.8,1.7,1.7,2.5,2.5c0.6,0.5,1.1,1.1,1.7,1.7c0.3,0.3,0.5,0.6,0.8,0.8
		c0.5,0.6,1.1,1.1,1.7,1.6c2.1,1.8,4.7,2.7,7.5,2.6h60.7v8.3c0,3.4,1.4,6.7,3.9,9l0,0c0.3,0.3,0.5,0.6,0.8,0.8l0,0
		c0.3,0.3,0.5,0.5,0.8,0.8l0,0c0.3,0.3,0.5,0.6,0.8,0.8l0,0c0.3,0.3,0.5,0.5,0.8,0.8l0,0c0.3,0.3,0.5,0.6,0.8,0.8l0,0
		c0.3,0.3,0.5,0.5,0.8,0.8l0,0c0.3,0.3,0.5,0.6,0.8,0.8l0,0c0.3,0.3,0.5,0.5,0.8,0.8l0,0c0.3,0.3,0.5,0.6,0.8,0.8l0,0
		c4.5,4.9,12.2,5.2,17.1,0.7c2.5-2.3,3.9-5.5,3.9-8.9v-16.4h2.2c6.7,0.1,12.2-5.2,12.3-11.9c0-0.1,0-0.1,0-0.2
		C450.5,170.4,449.2,167.2,446.7,164.9z M403.8,117.9v35.4h-28.6L403.8,117.9z"/>
	<path class="st4" d="M442.4,165.4c0,6.7-5.4,12.1-12.1,12.1c-0.1,0-0.1,0-0.2,0h-2.2v16.7c0,6.7-5.4,12.1-12.1,12.1
		c-6.7,0-12-5.4-12.1-12.1v-16.7h-69.1c-2.7,0.1-5.4-0.8-7.5-2.6c-5.2-3.9-6.2-11.2-2.4-16.4c0.1-0.2,0.2-0.3,0.4-0.5l81.1-100.9
		c0.2,0,0.2-0.2,0.4-0.4c0.3-0.3,0.5-0.5,0.7-0.9c0.4-0.1,0.8-0.3,1.1-0.7c0.2-0.2,0.7-0.4,0.9-0.7c0.4-0.3,0.8-0.4,1.3-0.4
		c0.2-0.4,0.4-0.6,0.9-0.6c0.2-0.2,0.7-0.2,1.3-0.4c0.3,0,0.6,0,0.9-0.2h3.7c0.3,0.2,0.7,0.3,1.1,0.2c0.2,0.2,0.9,0.2,1.3,0.4
		c0.2,0,0.7,0.2,0.9,0.2c0.4,0.4,0.9,0.6,1.1,0.9c0.4,0.2,0.7,0.4,1.1,0.7c0.1,0,0.2,0.1,0.2,0.2l0,0c0.2,0,0.6,0.2,0.6,0.4l0.9,0.9
		c0.2,0.2,0.4,0.6,0.7,0.9c0.3,0.3,0.6,0.7,0.9,1.1c0.1,0.3,0.2,0.6,0.4,0.9c0.2,0.4,0.3,0.9,0.4,1.3c0,0.2,0.2,0.7,0.2,0.9
		c0.2,0.4,0.3,0.9,0.2,1.3c0,0.4,0.2,0.6,0.2,1.1v89.2h2.2C436.8,153.3,442.3,158.7,442.4,165.4z M403.8,99.2l-43.6,54.2h43.6V99.2z
		"/>
	<path class="st3" d="M167.5,28.7H165V33c0,0.6-0.5,1.1-1.1,1.1s-1.1-0.5-1.1-1.1V21.2c0-0.6,0.5-1.1,1.1-1.1l0,0h3.6
		c2.4,0,4.3,1.9,4.3,4.3S169.8,28.7,167.5,28.7C167.5,28.7,167.5,28.7,167.5,28.7L167.5,28.7z M165,26.5h2.5c1.1,0,2.1-0.9,2.1-2.1
		c0-1.1-0.9-2.1-2.1-2.1H165V26.5z"/>
	<path class="st3" d="M180.2,30.8h-4.9l-1,2.6c-0.2,0.4-0.6,0.7-1,0.7c-0.1,0-0.3,0-0.4-0.1c-0.6-0.2-0.9-0.9-0.7-1.4l4.4-11.8
		c0.2-0.4,0.6-0.7,1.1-0.7c0.5,0,0.9,0.3,1.1,0.7l4.4,11.8c0.2,0.6-0.1,1.2-0.7,1.4c-0.6,0.2-1.2-0.1-1.4-0.6L180.2,30.8z
		 M179.4,28.6l-1.6-4.3l-1.6,4.3H179.4z"/>
	<path class="st3" d="M184.7,26.9c0-4,3.3-7.3,7.4-7.2c0,0,0,0,0,0c1.7,0,3.3,0.5,4.6,1.6c0.5,0.4,0.6,1.1,0.2,1.6c0,0,0,0,0,0
		c-0.4,0.5-1.1,0.6-1.6,0.2c-0.9-0.7-2-1.1-3.2-1.1c-1.3,0-2.6,0.5-3.6,1.5c-1.9,1.8-2,4.8-0.2,6.7c0.1,0.1,0.1,0.1,0.2,0.2
		c1,1,2.3,1.5,3.6,1.5c1,0,1.9-0.3,2.7-0.8v-2.8H192c-0.6,0-1.1-0.5-1.1-1.1c0-0.6,0.5-1.1,1.1-1.1c0,0,0,0,0,0h4
		c0.6,0,1.1,0.5,1.2,1.1c0,0,0,0,0,0v4.4c0,0.1,0,0.2-0.1,0.3c0,0,0,0.1,0,0.1l0,0c-0.1,0.2-0.2,0.4-0.4,0.5c-1.3,1-2.9,1.6-4.5,1.6
		C188.2,34.2,184.8,31,184.7,26.9C184.7,27,184.7,27,184.7,26.9z"/>
	<path class="st3" d="M201.6,33V21.2c0-0.6,0.5-1.1,1.1-1.1c0,0,0,0,0,0h6.5c0.6,0,1.1,0.5,1.1,1.1c0,0.6-0.5,1.1-1.1,1.1h-5.4V26
		h4.7c0.6,0,1.1,0.5,1.1,1.1s-0.5,1.1-1.1,1.1l0,0h-4.7v3.7h5.4c0.6,0,1.1,0.5,1.1,1.1s-0.5,1.1-1.1,1.1h-6.5l0,0l0,0
		C202.2,34.2,201.7,33.7,201.6,33C201.6,33.1,201.6,33,201.6,33z"/>
	<path class="st3" d="M221.7,33c0,0.6-0.5,1.1-1.1,1.1c-0.6,0-1.1-0.5-1.1-1.1c0,0,0,0,0,0V21.4c0-0.4,0.1-0.7,0.4-0.9
		c0.5-0.3,1.2-0.2,1.5,0.2l6.5,9v-8.3c0-0.6,0.5-1.1,1.1-1.1c0.6,0,1.1,0.5,1.1,1.1V33c0,0.6-0.5,1.1-1.1,1.1
		c-0.3,0-0.6-0.2-0.8-0.4c0,0-0.1-0.1-0.1-0.1l-6.4-8.9L221.7,33z"/>
	<path class="st3" d="M245,21.9c2.7,2.8,2.7,7.3,0,10.1c-1.2,1.3-3,2.1-4.8,2.1c-1.9,0-3.6-0.8-4.9-2.1c-2.6-2.9-2.6-7.3,0-10.1
		c1.3-1.4,3-2.1,4.9-2.1C242,19.7,243.8,20.5,245,21.9z M244.7,26.9c0-1.3-0.5-2.5-1.4-3.5c-1.6-1.8-4.3-1.9-6.1-0.3
		c-0.1,0.1-0.2,0.2-0.3,0.3c-0.9,1-1.4,2.2-1.4,3.5c0,1.3,0.5,2.5,1.4,3.5c1.6,1.8,4.3,1.9,6,0.4c0.1-0.1,0.2-0.2,0.4-0.4
		C244.2,29.5,244.7,28.2,244.7,26.9L244.7,26.9z"/>
	<path class="st3" d="M258.4,22.3h-3.2V33c0,0.6-0.5,1.1-1.1,1.1c0,0,0,0,0,0c-0.6,0-1.1-0.5-1.1-1.1V22.3h-3.2
		c-0.6,0-1.1-0.5-1.1-1.1c0,0,0,0,0,0c0-0.6,0.5-1.1,1.1-1.1c0,0,0,0,0,0h8.5c0.6,0,1.1,0.5,1.1,1.1c0,0,0,0,0,0
		C259.5,21.8,259,22.3,258.4,22.3z"/>
	<path class="st3" d="M268.8,33V21.2c0-0.6,0.5-1.1,1.1-1.1l0,0h6.5c0.6,0,1.1,0.5,1.1,1.1s-0.5,1.1-1.1,1.1l0,0H271V26h4.7
		c0.6,0,1.1,0.5,1.1,1.1s-0.5,1.1-1.1,1.1l0,0H271V33c0,0.6-0.5,1.1-1.1,1.1c0,0,0,0,0,0C269.3,34.1,268.8,33.6,268.8,33
		C268.8,33,268.8,33,268.8,33z"/>
	<path class="st3" d="M291.5,21.9c2.7,2.8,2.7,7.3,0,10.1c-1.2,1.3-3,2.1-4.8,2.1c-1.9,0-3.6-0.8-4.9-2.1c-2.6-2.9-2.6-7.3,0-10.1
		c1.3-1.4,3-2.1,4.9-2.1C288.6,19.7,290.3,20.5,291.5,21.9z M291.3,26.9c0-1.3-0.5-2.5-1.4-3.5c-1.6-1.8-4.3-1.9-6.1-0.3
		c-0.1,0.1-0.2,0.2-0.3,0.3c-0.9,1-1.4,2.2-1.4,3.5c0,1.3,0.5,2.5,1.4,3.5c1.6,1.8,4.3,1.9,6,0.4c0.1-0.1,0.2-0.2,0.4-0.4
		C290.8,29.5,291.3,28.2,291.3,26.9z"/>
	<path class="st3" d="M302.4,34.1c-3.2,0-5.8-2.6-5.8-5.8c0,0,0,0,0,0v-7.1c0-0.6,0.5-1.1,1.1-1.1c0,0,0,0,0,0
		c0.6,0,1.1,0.5,1.1,1.1c0,0,0,0,0,0v7.1c0,2,1.6,3.6,3.6,3.6c2,0,3.6-1.6,3.6-3.6c0,0,0,0,0,0v-7.1c0-0.6,0.5-1.1,1.1-1.1
		c0,0,0,0,0,0c0.6,0,1.1,0.5,1.1,1.1c0,0,0,0,0,0v7.1C308.2,31.5,305.6,34.1,302.4,34.1C302.4,34.1,302.4,34.1,302.4,34.1z"/>
	<path class="st3" d="M314.8,33c0,0.6-0.5,1.1-1.1,1.1c-0.6,0-1.1-0.5-1.1-1.1c0,0,0,0,0,0V21.4c0-0.4,0.1-0.7,0.4-0.9
		c0.5-0.3,1.2-0.2,1.5,0.2l6.5,9v-8.3c0-0.6,0.5-1.1,1.1-1.1c0.6,0,1.1,0.5,1.1,1.1V33c0,0.6-0.5,1.1-1.1,1.1
		c-0.3,0-0.6-0.2-0.8-0.4c0,0-0.1-0.1-0.1-0.1l-6.4-8.9L314.8,33z"/>
	<path class="st3" d="M327,33V21.2c0-0.6,0.5-1.1,1.1-1.1c0,0,0,0,0,0h2.4c3.9,0,7,3.1,7,7s-3.1,7-7,7h-2.4
		C327.5,34.1,327,33.6,327,33C327,33,327,33,327,33z M329.2,31.9h1.2c2.6-0.1,4.7-2.4,4.6-5c-0.1-2.5-2.1-4.5-4.6-4.6h-1.2V31.9z"/>
	<path class="st3" d="M280.3,177.8c-0.1,0.5,0.2,0.9,0.6,1.1c1,0.2,2.3,0.3,3.8,0.5c4.2-9.2,8.5-16.4,7.3-13.6
		c-1.9,4.5-3.1,9.2-3.6,14.1c1.6,0.2,5.5,0.7,7.4,0.9c4.4-16.4,9.3-28.4,8.7-24.6c-2.3,15.3-1.9,20.2-1.4,25.6
		c17.9,2.2,41.5,4.8,58.5,6.2c2.8-9,5.4-18.8,5.6-18.1c1.9,5.4,1.8,12.9,1.4,18.7c5.4,0.4,9.8,0.7,12.5,0.7c0,0,2-7.6,2.4-10.1
		c1.1-6.4,1-13-0.2-19.5c-1.2-6.6-3.9-12.5-6.3-18.5c0,0,0-0.1,0-0.1l0,0c-1.6-4-2.8-8.1-3.5-12.3c0,0,0-0.1,0-0.1
		c-0.5-3.1-0.7-6.2-0.6-9.3c0.2-11.4-4.9-21.6-14.6-25.3c-16.5-16.9-39.3-9.1-45.7,5.1l0,0c-2.5,6.4-5,14.8-7.2,21.2l0,0
		c0,0,0,0,0,0.1l0,0c-0.8,2.5-1.8,5-2.9,7.4C296.6,139.4,285.2,145.3,280.3,177.8z"/>
	<path class="st3" d="M362.4,97.4c6.2,4.1,9.8,9.7,10,18.1c0.2,4.9,0,9.6,1.4,14.3c1.4,4.8,3.9,8.9,6.4,12.9
		c4.1,6.4,6.8,12.8,6.7,20.9s-1.2,18-4.5,25.5c0,0-0.1,0-0.1,0c2.8-7.6,3.8-18.4,3.3-26.7c-0.6-9.1-4.9-15.1-9.1-22.2
		c-3.4-5.7-5.3-12.2-5.5-18.8c-0.1-4.1,0.3-8.4-0.9-12.3c-1.4-4.7-4.8-7.9-8.2-10.8C361.4,97.8,361.9,97.1,362.4,97.4z"/>
	<path class="st3" d="M290.4,139.8c5.2-6.1,10.5-11.2,13.9-19c3.1-7.1,5.2-14.7,8.4-21.7c0-0.1,0.2-0.1,0.2,0.1
		c-5,12.6-6.9,25.5-15.7,35.8c-4.8,5.6-9.5,10.7-12.9,17.6c-3.5,7.2-5.7,15-6.5,23c0,0.3-0.4,0.2-0.4,0
		C277.4,162.5,282,149.8,290.4,139.8z"/>
	<path class="st6" d="M240,295c0,0,48.3,13,56.3,11.6s34.9-37.7,40.9-50.8c6-13.1,15.9-78.6,14-85.8s-11.9-7.3-20.3,11.3
		s-28.4,59.4-31.9,62.7S236.1,291.5,240,295z"/>
	<path class="st6" d="M292.1,302.3c-7.4-3.9-16.4-13.3-22.5-14.2c-3.1-0.6-6.2,0.9-7.7,3.7c0,0-2.8-6.3-8.5-6.2
		c-2.9,0-5.5,4.7-5.5,4.7s-2.5-4.9-7.6-4.6c-4.1,0.3-6,5-6,5s-4.6-3.6-8.6-2c-8.2,3.2-9.5,38,3.1,43.9c5.9,2.7,5.7-5.8,5.7-5.8
		s3.1,12.2,10.3,12.7s6.3-10.6,6.3-10.6s3.1,11.8,10.6,11.5c7.8-0.3,5.1-11.2,5.1-11.2s4.9,7.9,10.6,6.4c9.4-2.5-0.7-21.3,1.4-28.9
		h11.8L292.1,302.3z"/>
	<path class="st6" d="M281.4,294.9c7.3,3.1,15.7-8.5,23.2-5.8c9.8,3.5,0.7,15.6-14.1,17.5h-11.8L281.4,294.9z"/>
	<path class="st3" d="M233.8,291.3C233.8,291.2,233.8,291.2,233.8,291.3c-0.1-0.1-0.2,0-0.2,0c-3.2,11.3-3.3,24.8,0.7,35.9
		c0.1,0.4,0.8,0.3,0.7-0.1C233.1,314.7,232.3,303.7,233.8,291.3z"/>
	<path class="st3" d="M247.7,290c0-0.1-0.2-0.2-0.3,0c-3.3,11.7-3,26.8,3.2,39.1c0.2,0.4,0.8,0.6,0.6,0.1
		C247.9,320.7,246.3,301.2,247.7,290z"/>
	<path class="st3" d="M267.5,329.8c-5.5-12-6.5-24.6-5.8-37.6c0-0.2-0.2-0.2-0.3,0c-2.1,6.3-1.7,14.7-0.9,21.1
		c0.7,6,2.9,11.8,6.5,16.7C267.2,330.2,267.6,330.1,267.5,329.8z"/>
	<path class="st3" d="M305.2,288.2c-4.8-1.6-9.7,2.2-13.8,4.4c-1.3,0.8-2.7,1.4-4.1,1.9c-3.2,1-5.6,0.4-7-0.5
		c-2.2-1.4-9.2-8.4-14.3-6.1c-1.7,0.8-3.2,2.1-4.3,3.7c-1.5-2.8-3.5-5.9-6.9-6.4c-1.5-0.3-3.1,0.1-4.3,1.1c-0.6,0.5-1.2,1.1-1.7,1.7
		c-0.5,0.6-0.9,1.2-1.2,1.9c0,0,0,0,0-0.1l-0.1-0.2l-0.2-0.4c-0.3-0.6-0.7-1.1-1.2-1.5c-0.2-0.2-0.5-0.3-0.7-0.3c0,0-0.1,0-0.1,0.1
		c0,0,0,0.1,0.1,0.1c0.2,0.1,0.4,0.3,0.5,0.5c0.2,0.2,0.3,0.5,0.5,0.7s0.3,0.5,0.5,0.7l0.3,0.4l0.1,0.2c0,0.1,0.1,0.1,0.2,0.2
		c0,0.1,0.1,0.1,0.2,0c0,0,0,0,0,0l0,0c0.5-0.5,1-1,1.4-1.5c0.5-0.6,1.1-1.1,1.7-1.6c1.2-0.9,2.7-1.3,4.1-1c3.1,0.6,5,3.3,6.6,5.8
		c0,0,0,0,0,0l0,0c0,0.1,0.1,0.1,0.1,0.1c1.7-1.5,3.3-3.1,5.6-3.5c2.5-0.4,4.9,0.8,6.9,2.1c1,0.6,2,1.3,3,2c0.9,0.7,1.7,1.4,2.6,2
		c3.9,2.5,8.1,0.5,9.2,0.1c2.1-0.9,4.1-2,6.1-3.2c2-1.3,4.2-2.2,6.5-2.6c2.2-0.3,4.4,0.5,5.8,2.2c0.7,0.9,1.7,2.7-0.3,6.7
		c0,0,0,0.1,0.1,0C308.2,296.7,311.4,290.2,305.2,288.2z"/>
	<path class="st7" d="M347.4,230.8l-45.5-7.3c0,0,21.8-43.1,34.8-55.6c12.9-12.3,19.2,0.3,17.3,19.4
		C351.8,208.4,347.4,230.8,347.4,230.8z"/>
	<path class="st3" d="M345.9,222.3c-1.3-0.3-2.6-0.5-3.9-0.8s-2.5-0.5-3.8-0.7c-2.6-0.4-5.1-0.8-7.7-1.1c-5.1-0.7-10.2-1.5-15.3-2
		c-2.9-0.3-5.8-0.8-8.7-1c-0.1,0-0.1,0.1,0,0.2c5,1.2,10.2,2,15.3,2.9s10.2,1.6,15.3,2.2c1.4,0.2,2.9,0.3,4.3,0.4s3,0.2,4.4,0.2
		c0.1,0,0.2-0.1,0.2-0.1C346,222.4,346,222.3,345.9,222.3L345.9,222.3z"/>
	<path class="st8" d="M322,307h120.6c0,0-50.1-124.4-75.6-142.6c-7.6-5.5-19.8-6.1-28.1,4.9c-6.7,9-25.5,44.8-26.3,57.6
		s9.2,25.6,9.2,25.6L322,307z"/>
	<path class="st9" d="M361.9,222.7c0.3-0.1,0.6-0.1,0.9-0.2c1-0.2,1.9,0.4,2.2,1.4c0,0.1,0,0.3,0,0.4c0,0.5,0.2,1,0.6,1.2
		c0.2,0.1,0.5,0.2,0.8,0.3c0.3,0,0.6,0.1,0.9,0.2c-0.3,0.1-0.6,0.1-0.9,0.2c-0.3,0.1-0.7,0-1-0.1c-0.7-0.3-1.1-1-1.1-1.7
		c0-0.5-0.3-0.9-0.7-1.2c-0.2-0.1-0.5-0.2-0.8-0.2C362.5,222.8,362.3,222.8,361.9,222.7z"/>
	<path class="st9" d="M315.8,222.7c0.3-0.1,0.6-0.1,0.9-0.2c1-0.2,1.9,0.4,2.2,1.4c0,0.1,0,0.3,0,0.4c0,0.5,0.2,1,0.6,1.2
		c0.2,0.1,0.5,0.2,0.8,0.3c0.3,0.1,0.6,0.1,0.9,0.2c-0.3,0.1-0.6,0.1-0.9,0.2c-0.3,0.1-0.7,0-1-0.1c-0.7-0.3-1.1-1-1.1-1.7
		c0-0.5-0.3-0.9-0.7-1.2c-0.2-0.1-0.5-0.2-0.8-0.2C316.4,222.8,316.1,222.8,315.8,222.7z"/>
	<path class="st9" d="M378.7,282.6c0.3-0.1,0.6-0.1,0.9-0.2c1-0.2,2,0.4,2.2,1.4c0,0.1,0,0.2,0,0.4c0,0.5,0.2,1,0.6,1.2
		c0.2,0.1,0.5,0.2,0.8,0.3c0.3,0.1,0.6,0.1,0.9,0.2c-0.3,0.1-0.6,0.1-0.9,0.2c-0.3,0.1-0.7,0-1-0.1c-0.7-0.3-1.1-1-1.1-1.7
		c0-0.5-0.3-0.9-0.7-1.2c-0.2-0.1-0.5-0.2-0.8-0.2C379.3,282.8,379,282.7,378.7,282.6z"/>
	<path class="st9" d="M399.6,225.9c0.3-0.1,0.6-0.1,0.9-0.2c1-0.2,1.9,0.4,2.2,1.4c0,0.1,0,0.3,0,0.4c0,0.5,0.2,1,0.6,1.2
		c0.2,0.1,0.5,0.2,0.8,0.3c0.3,0.1,0.6,0.1,0.9,0.2c-0.3,0.1-0.6,0.1-0.9,0.2c-0.3,0.1-0.7,0-1-0.1c-0.7-0.3-1.1-1-1.1-1.7
		c0-0.5-0.3-0.9-0.7-1.2c-0.2-0.1-0.5-0.2-0.8-0.2C400.2,226,399.9,226,399.6,225.9z"/>
	<path class="st9" d="M346.2,195.4c0.3-0.1,0.6-0.1,0.9-0.2c0.3-0.1,0.7,0,1,0.1c0.7,0.3,1.2,0.9,1.2,1.7c0,0.5,0.2,0.9,0.6,1.2
		c0.2,0.1,0.5,0.2,0.8,0.3c0.3,0.1,0.6,0.1,0.9,0.2c-0.3,0.1-0.6,0.1-0.9,0.2c-0.3,0.1-0.7,0-1-0.1c-0.7-0.3-1.2-1-1.1-1.8
		c0-0.5-0.3-0.9-0.7-1.2c-0.2-0.1-0.5-0.2-0.8-0.2C346.8,195.6,346.5,195.5,346.2,195.4z"/>
	<path class="st9" d="M379.1,194.7c0.3-0.1,0.6-0.1,0.9-0.2c0.3-0.1,0.7,0,1,0.1c0.7,0.3,1.2,0.9,1.2,1.7c0,0.5,0.2,1,0.6,1.2
		c0.2,0.1,0.5,0.2,0.8,0.3c0.3,0.1,0.6,0.1,0.9,0.2c-0.3,0.1-0.6,0.1-0.9,0.2c-0.3,0.1-0.7,0-1-0.1c-0.7-0.3-1.1-1-1.1-1.7
		c0-0.5-0.3-0.9-0.7-1.2c-0.2-0.1-0.5-0.2-0.8-0.2C379.7,194.9,379.4,194.8,379.1,194.7z"/>
	<path class="st9" d="M357.8,163.2c0.3-0.1,0.6-0.1,0.9-0.2c1-0.2,1.9,0.4,2.2,1.4c0,0.1,0,0.3,0,0.4c0,0.5,0.2,1,0.6,1.2
		c0.2,0.1,0.5,0.2,0.8,0.3c0.3,0.1,0.6,0.1,0.9,0.2c-0.3,0.1-0.6,0.1-0.9,0.2c-0.3,0.1-0.7,0-1-0.1c-0.7-0.3-1.1-1-1.1-1.7
		c0-0.5-0.3-0.9-0.7-1.2c-0.2-0.1-0.5-0.2-0.8-0.2C358.4,163.4,358.1,163.3,357.8,163.2z"/>
	<path class="st9" d="M338.2,247.8c0.3-0.1,0.6-0.1,0.9-0.2c0.3-0.1,0.7,0,1,0.1c0.7,0.3,1.2,0.9,1.2,1.7c0,0.5,0.2,1,0.6,1.2
		c0.2,0.1,0.5,0.2,0.8,0.3c0.3,0.1,0.6,0.1,0.9,0.2c-0.3,0.1-0.6,0.1-0.9,0.2c-0.3,0.1-0.7,0-1-0.1c-0.7-0.3-1.1-1-1.1-1.7
		c0-0.5-0.3-0.9-0.7-1.2c-0.2-0.1-0.5-0.2-0.8-0.2C338.8,247.9,338.5,247.9,338.2,247.8z"/>
	<path class="st9" d="M374,302.7c0.3-0.1,0.6-0.1,0.9-0.2c1-0.2,2,0.4,2.2,1.4c0,0.1,0,0.2,0,0.4c0,0.5,0.2,1,0.6,1.2
		c0.2,0.1,0.5,0.2,0.8,0.3c0.3,0.1,0.6,0.1,0.9,0.2c-0.3,0.1-0.6,0.1-0.9,0.2c-0.3,0.1-0.7,0-1-0.1c-0.7-0.3-1.1-1-1.1-1.7
		c0-0.5-0.3-0.9-0.7-1.2c-0.2-0.1-0.5-0.2-0.8-0.2C374.6,302.8,374.3,302.8,374,302.7z"/>
	<path class="st9" d="M356.4,273.2c0.3-0.1,0.6-0.1,0.9-0.2c0.3-0.1,0.7,0,1,0.1c0.7,0.3,1.2,0.9,1.2,1.7c0,0.5,0.2,1,0.6,1.2
		c0.2,0.1,0.5,0.2,0.8,0.3c0.3,0.1,0.6,0.1,0.9,0.2c-0.3,0.1-0.6,0.1-0.9,0.2c-0.3,0.1-0.7,0-1-0.1c-0.7-0.3-1.1-1-1.1-1.7
		c0-0.5-0.3-0.9-0.7-1.2c-0.2-0.1-0.5-0.2-0.8-0.2C357,273.3,356.6,273.3,356.4,273.2z"/>
	<path class="st9" d="M323.7,278.5c0.3-0.1,0.6-0.1,0.9-0.2c1-0.2,2,0.4,2.2,1.4c0,0.1,0,0.2,0,0.4c0,0.5,0.2,1,0.6,1.2
		c0.2,0.1,0.5,0.2,0.8,0.3c0.3,0.1,0.6,0.1,0.9,0.2c-0.3,0.1-0.6,0.1-0.9,0.2c-0.3,0.1-0.7,0-1-0.1c-0.7-0.3-1.1-1-1.1-1.7
		c0-0.5-0.3-0.9-0.7-1.2c-0.2-0.1-0.5-0.2-0.8-0.2C324.4,278.7,324,278.6,323.7,278.5z"/>
	<path class="st9" d="M371.4,248.5c0.3-0.1,0.6-0.1,0.9-0.2c1-0.2,2,0.4,2.2,1.4c0,0.1,0,0.2,0,0.4c0,0.5,0.2,1,0.6,1.2
		c0.2,0.1,0.5,0.2,0.8,0.3c0.3,0.1,0.6,0.1,0.9,0.2c-0.3,0.1-0.6,0.1-0.9,0.2c-0.3,0.1-0.7,0-1-0.1c-0.7-0.3-1.1-1-1.1-1.7
		c0-0.5-0.3-0.9-0.7-1.2c-0.2-0.1-0.5-0.2-0.8-0.2C372,248.6,371.7,248.6,371.4,248.5z"/>
	<path class="st9" d="M413,288.9c0.3-0.1,0.6-0.1,0.9-0.2c0.3-0.1,0.7,0,1,0.1c0.7,0.3,1.2,0.9,1.2,1.7c0,0.5,0.2,0.9,0.6,1.2
		c0.2,0.1,0.5,0.2,0.8,0.3c0.3,0.1,0.6,0.1,0.9,0.2c-0.3,0.1-0.6,0.1-0.9,0.2c-1,0.2-1.9-0.5-2.1-1.5c0-0.1,0-0.2,0-0.4
		c0-0.5-0.3-0.9-0.7-1.2c-0.2-0.1-0.5-0.2-0.8-0.2C413.7,289,413.4,289,413,288.9z"/>
	<path class="st9" d="M396.5,264.2c0.3-0.1,0.6-0.1,0.9-0.2c1-0.2,2,0.4,2.2,1.4c0,0.1,0,0.2,0,0.4c0,0.5,0.2,1,0.6,1.2
		c0.2,0.1,0.5,0.2,0.8,0.3c0.3,0.1,0.6,0.1,0.9,0.2c-0.3,0.1-0.6,0.1-0.9,0.2c-0.3,0.1-0.7,0-1-0.1c-0.7-0.3-1.1-1-1.1-1.7
		c0-0.5-0.3-0.9-0.7-1.2c-0.2-0.1-0.5-0.2-0.8-0.2C397.1,264.4,396.8,264.3,396.5,264.2z"/>
	<path class="st9" d="M431.7,300.2c0.3-0.1,0.6-0.1,0.9-0.2c1-0.2,2,0.4,2.2,1.4c0,0.1,0,0.2,0,0.4c0,0.5,0.2,1,0.6,1.2
		c0.2,0.1,0.5,0.2,0.8,0.3c0.3,0.1,0.6,0.1,0.9,0.2c-0.3,0.1-0.6,0.1-0.9,0.2c-0.3,0.1-0.7,0-1-0.1c-0.7-0.3-1.1-1-1.1-1.7
		c0-0.5-0.3-0.9-0.7-1.2c-0.2-0.1-0.5-0.2-0.8-0.2C432.3,300.3,432,300.3,431.7,300.2z"/>
	<path class="st9" d="M349,212.5c-0.1,0.3-0.3,0.5-0.5,0.8c-0.5,0.8-1.7,1.1-2.5,0.6c-0.1-0.1-0.2-0.2-0.3-0.3
		c-0.3-0.4-0.8-0.5-1.3-0.4c-0.3,0.1-0.5,0.2-0.7,0.4c-0.2,0.2-0.5,0.4-0.8,0.5c0.2-0.3,0.3-0.5,0.5-0.8c0.2-0.3,0.5-0.5,0.8-0.6
		c0.7-0.3,1.5-0.1,2,0.4c0.4,0.3,0.9,0.5,1.3,0.4c0.3-0.1,0.5-0.2,0.7-0.4C348.5,212.8,348.8,212.6,349,212.5z"/>
	<path class="st9" d="M336.9,192.2c-0.1,0.3-0.3,0.5-0.5,0.8c-0.5,0.8-1.7,1.1-2.5,0.6c-0.1-0.1-0.2-0.2-0.3-0.3
		c-0.3-0.4-0.8-0.5-1.3-0.4c-0.3,0.1-0.5,0.2-0.7,0.4c-0.2,0.2-0.5,0.4-0.8,0.5c0.2-0.3,0.3-0.5,0.5-0.8c0.2-0.3,0.5-0.5,0.8-0.6
		c0.7-0.3,1.5-0.1,2,0.4c0.4,0.3,0.9,0.5,1.3,0.4c0.3-0.1,0.5-0.2,0.7-0.4C336.4,192.6,336.7,192.4,336.9,192.2z"/>
	<path class="st9" d="M398,247.7c-0.2,0.3-0.3,0.5-0.5,0.8c-0.2,0.3-0.5,0.5-0.8,0.7c-0.7,0.3-1.5,0.2-2-0.4
		c-0.3-0.4-0.8-0.5-1.3-0.4c-0.3,0.1-0.5,0.2-0.7,0.4c-0.3,0.2-0.5,0.4-0.8,0.5c0.1-0.3,0.3-0.5,0.5-0.8c0.2-0.3,0.5-0.5,0.8-0.6
		c0.7-0.3,1.5-0.1,2,0.4c0.3,0.3,0.8,0.5,1.3,0.4c0.3-0.1,0.5-0.2,0.7-0.4C397.5,248.1,397.8,247.9,398,247.7z"/>
	<path class="st9" d="M367.5,182.1c-0.1,0.3-0.3,0.5-0.5,0.8c-0.2,0.3-0.5,0.5-0.8,0.7c-0.7,0.3-1.5,0.2-2-0.4
		c-0.3-0.4-0.8-0.5-1.3-0.4c-0.3,0.1-0.5,0.2-0.7,0.4c-0.3,0.2-0.5,0.4-0.8,0.5c0.1-0.3,0.3-0.5,0.5-0.8c0.2-0.3,0.5-0.5,0.8-0.6
		c0.7-0.3,1.5-0.1,2,0.4c0.4,0.4,0.9,0.5,1.4,0.4c0.3-0.1,0.5-0.2,0.7-0.4C367,182.4,367.2,182.2,367.5,182.1z"/>
	<path class="st9" d="M346.3,167.1c-0.1,0.3-0.3,0.5-0.5,0.8c-0.2,0.3-0.5,0.5-0.8,0.7c-0.7,0.3-1.5,0.2-2-0.4
		c-0.3-0.4-0.8-0.5-1.3-0.4c-0.3,0.1-0.5,0.2-0.7,0.4c-0.3,0.2-0.5,0.4-0.8,0.5c0.1-0.3,0.3-0.5,0.5-0.8c0.2-0.3,0.5-0.5,0.8-0.6
		c0.7-0.3,1.5-0.1,2,0.4c0.4,0.3,0.9,0.5,1.3,0.4c0.3-0.1,0.5-0.2,0.7-0.4C345.8,167.5,346,167.3,346.3,167.1z"/>
	<path class="st9" d="M366.3,201.1c0.1,0.3,0.1,0.6,0.2,0.9c0.1,0.3,0,0.7-0.1,1c-0.3,0.7-0.9,1.2-1.7,1.2c-0.5,0-1,0.2-1.2,0.6
		c-0.1,0.2-0.2,0.5-0.3,0.8c-0.1,0.3-0.1,0.6-0.2,0.9c-0.1-0.3-0.1-0.6-0.2-0.9c-0.1-0.3,0-0.7,0.1-1c0.3-0.7,1-1.1,1.7-1.1
		c0.5,0,0.9-0.3,1.2-0.7c0.1-0.2,0.2-0.5,0.2-0.8C366.1,201.7,366.2,201.4,366.3,201.1z"/>
	<path class="st9" d="M359.1,254.4c0.1,0.3,0.1,0.6,0.2,0.9c0.2,1-0.4,2-1.4,2.2c-0.1,0-0.2,0-0.4,0c-0.5,0-1,0.2-1.2,0.6
		c-0.1,0.2-0.2,0.5-0.3,0.8c-0.1,0.3-0.1,0.6-0.2,0.9c-0.1-0.3-0.1-0.6-0.2-0.9c-0.1-0.3,0-0.7,0.1-1c0.3-0.7,1-1.1,1.7-1.1
		c0.5,0,0.9-0.3,1.2-0.7c0.1-0.2,0.2-0.5,0.2-0.8C358.9,255,359,254.7,359.1,254.4z"/>
	<path class="st9" d="M429,279.1c0.1,0.3,0.1,0.6,0.2,0.9c0.2,1-0.4,2-1.4,2.2c-0.1,0-0.2,0-0.4,0c-0.5,0-1,0.2-1.2,0.6
		c-0.1,0.2-0.2,0.5-0.3,0.8c-0.1,0.3-0.1,0.6-0.2,0.9c-0.1-0.3-0.1-0.6-0.2-0.9c-0.1-0.3,0-0.7,0.1-1c0.3-0.7,1-1.1,1.7-1.1
		c0.5,0,0.9-0.3,1.2-0.7c0.1-0.2,0.2-0.5,0.2-0.8C428.9,279.7,428.9,279.4,429,279.1z"/>
	<path class="st9" d="M396.6,208.5c0.1,0.3,0.1,0.6,0.2,0.9c0.1,0.3,0,0.7-0.1,1c-0.3,0.7-0.9,1.2-1.7,1.2c-0.5,0-1,0.2-1.2,0.6
		c-0.1,0.2-0.2,0.5-0.3,0.8c-0.1,0.3-0.1,0.6-0.2,0.9c-0.1-0.3-0.1-0.6-0.2-0.9c-0.2-1,0.5-1.9,1.5-2.1c0.1,0,0.2,0,0.4,0
		c0.5,0,0.9-0.3,1.2-0.7c0.1-0.2,0.2-0.5,0.2-0.8C396.5,209.1,396.5,208.8,396.6,208.5z"/>
	<path class="st9" d="M396.6,294c0.1,0.3,0.1,0.6,0.2,0.9c0.2,1-0.4,2-1.4,2.2c-0.1,0-0.2,0-0.4,0c-0.5,0-1,0.2-1.2,0.6
		c-0.1,0.2-0.2,0.5-0.3,0.8c-0.1,0.3-0.1,0.6-0.2,0.9c-0.1-0.3-0.1-0.6-0.2-0.9c-0.1-0.3,0-0.7,0.1-1c0.3-0.7,1-1.1,1.7-1.1
		c0.5,0,0.9-0.3,1.2-0.7c0.1-0.2,0.2-0.5,0.2-0.8C396.5,294.6,396.5,294.3,396.6,294z"/>
	<path class="st9" d="M413,245.1c0.1,0.3,0.1,0.6,0.2,0.9c0.2,1-0.4,1.9-1.4,2.2c-0.1,0-0.3,0-0.4,0c-0.5,0-1,0.2-1.2,0.6
		c-0.1,0.2-0.2,0.5-0.3,0.8c-0.1,0.3-0.1,0.6-0.2,0.9c-0.1-0.3-0.1-0.6-0.2-0.9c-0.1-0.3,0-0.7,0.1-1c0.3-0.7,1-1.1,1.7-1.1
		c0.5,0,0.9-0.3,1.2-0.7c0.1-0.2,0.2-0.5,0.2-0.8C412.9,245.7,413,245.4,413,245.1z"/>
	<path class="st9" d="M329.7,256.3c0.1,0.3,0.1,0.6,0.2,0.9c0.2,1-0.4,1.9-1.4,2.2c-0.1,0-0.3,0-0.4,0c-0.5,0-1,0.2-1.2,0.6
		c-0.1,0.2-0.2,0.5-0.3,0.8c-0.1,0.3-0.1,0.6-0.2,0.9c-0.1-0.3-0.1-0.6-0.2-0.9c-0.1-0.3,0-0.7,0.1-1c0.3-0.7,1-1.1,1.7-1.1
		c0.5,0,0.9-0.3,1.2-0.7c0.1-0.2,0.2-0.5,0.2-0.8C329.6,256.9,329.6,256.6,329.7,256.3z"/>
	<path class="st9" d="M331.3,208.5c0.1,0.3,0.1,0.6,0.2,0.9c0.1,0.3,0.1,0.7-0.1,1c-0.3,0.7-0.9,1.2-1.7,1.2c-0.5,0-1,0.2-1.2,0.6
		c-0.1,0.2-0.2,0.5-0.3,0.8c-0.1,0.3-0.1,0.6-0.2,0.9c-0.1-0.3-0.1-0.6-0.2-0.9c-0.1-0.3,0-0.7,0.1-1c0.3-0.7,1-1.1,1.7-1.1
		c0.5,0,0.9-0.3,1.2-0.7c0.1-0.2,0.2-0.5,0.2-0.8C331.2,209.1,331.2,208.8,331.3,208.5z"/>
	<path class="st9" d="M348.8,177.4c0.1,0.3,0.1,0.6,0.2,0.9c0.1,0.3,0,0.7-0.1,1c-0.3,0.7-0.9,1.2-1.7,1.2c-0.5,0-1,0.2-1.2,0.7
		c-0.1,0.2-0.2,0.5-0.3,0.8c-0.1,0.3-0.1,0.6-0.2,0.9c-0.1-0.3-0.1-0.6-0.2-0.9c-0.1-0.3,0-0.7,0.1-1c0.3-0.7,1-1.1,1.7-1.1
		c0.5,0,0.9-0.3,1.2-0.7c0.1-0.2,0.2-0.5,0.2-0.8C348.6,178,348.7,177.7,348.8,177.4z"/>
	<path class="st9" d="M344.1,225.5c0.1,0.3,0.1,0.6,0.2,0.9c0.2,1-0.4,2-1.4,2.2c-0.1,0-0.2,0-0.4,0c-0.5,0-1,0.2-1.2,0.6
		c-0.1,0.2-0.2,0.5-0.3,0.8c-0.1,0.3-0.1,0.6-0.2,0.9c-0.1-0.3-0.1-0.6-0.2-0.9c-0.1-0.3,0-0.7,0.1-1c0.3-0.7,1-1.1,1.7-1.1
		c0.5,0,0.9-0.3,1.2-0.7c0.1-0.2,0.2-0.5,0.2-0.8C343.9,226.1,344,225.8,344.1,225.5z"/>
	<path class="st9" d="M386.1,231.9c0.1,0.3,0.1,0.6,0.2,0.9c0.2,1-0.4,2-1.4,2.2c-0.1,0-0.2,0-0.4,0c-0.5,0-1,0.2-1.2,0.6
		c-0.1,0.2-0.2,0.5-0.3,0.8c-0.1,0.3-0.1,0.6-0.2,0.9c-0.1-0.3-0.1-0.6-0.2-0.9c-0.1-0.3,0-0.7,0.1-1c0.3-0.7,1-1.1,1.7-1.1
		c0.5,0,0.9-0.3,1.2-0.7c0.1-0.2,0.2-0.5,0.2-0.8C386,232.5,386,232.2,386.1,231.9z"/>
	<path class="st9" d="M347.3,285.9c0.1,0.3,0.1,0.6,0.2,0.9c0.2,1-0.4,1.9-1.4,2.2c-0.1,0-0.3,0-0.4,0c-0.5,0-1,0.2-1.2,0.6
		c-0.1,0.2-0.2,0.5-0.3,0.7c0,0.3-0.1,0.6-0.2,0.9c-0.1-0.3-0.1-0.6-0.2-0.9c-0.1-0.3,0-0.7,0.1-1c0.3-0.7,1-1.1,1.7-1.1
		c0.5,0,0.9-0.3,1.2-0.7c0.1-0.2,0.2-0.5,0.2-0.8C347.1,286.5,347.2,286.2,347.3,285.9z"/>
	<path class="st9" d="M378.9,216.7c0.2-0.3,0.4-0.5,0.5-0.8c0.2-0.3,0.4-0.5,0.8-0.7c0.7-0.3,1.5-0.2,2,0.4c0.3,0.4,0.8,0.5,1.3,0.4
		c0.3-0.1,0.5-0.2,0.7-0.4c0.3-0.2,0.5-0.4,0.8-0.5c-0.2,0.3-0.4,0.5-0.5,0.8c-0.2,0.3-0.5,0.5-0.8,0.6c-0.7,0.3-1.5,0.1-2-0.4
		c-0.4-0.3-0.8-0.5-1.3-0.4c-0.3,0.1-0.5,0.2-0.7,0.4C379.4,216.3,379.2,216.5,378.9,216.7z"/>
	<path class="st9" d="M354.4,238.9c0.1-0.3,0.3-0.5,0.5-0.8c0.5-0.8,1.7-1.1,2.5-0.6c0.1,0.1,0.2,0.2,0.3,0.3
		c0.3,0.4,0.8,0.5,1.3,0.4c0.3-0.1,0.5-0.2,0.7-0.4c0.2-0.2,0.5-0.4,0.8-0.5c-0.2,0.3-0.3,0.5-0.5,0.8c-0.6,0.8-1.7,1-2.5,0.5
		c-0.1-0.1-0.2-0.2-0.3-0.2c-0.3-0.3-0.8-0.5-1.3-0.4c-0.3,0.1-0.5,0.2-0.7,0.4C354.9,238.5,354.6,238.7,354.4,238.9z"/>
	<path class="st9" d="M337.8,271.6c0.2-0.3,0.4-0.5,0.5-0.8c0.5-0.8,1.7-1.1,2.5-0.6c0.1,0.1,0.2,0.2,0.3,0.3
		c0.3,0.4,0.8,0.5,1.3,0.4c0.3-0.1,0.5-0.2,0.7-0.4c0.2-0.2,0.5-0.4,0.8-0.5c-0.2,0.3-0.3,0.5-0.5,0.8c-0.6,0.8-1.7,1-2.5,0.5
		c-0.1-0.1-0.2-0.2-0.3-0.3c-0.4-0.3-0.9-0.5-1.3-0.4c-0.3,0.1-0.5,0.2-0.7,0.4C338.3,271.3,338,271.4,337.8,271.6z"/>
	<path class="st9" d="M344.9,305.6c0.2-0.3,0.4-0.5,0.5-0.8c0.2-0.3,0.4-0.5,0.8-0.7c0.7-0.3,1.5-0.2,2,0.4c0.3,0.4,0.8,0.5,1.3,0.4
		c0.3-0.1,0.5-0.2,0.7-0.4c0.3-0.2,0.5-0.4,0.8-0.5c-0.2,0.3-0.3,0.5-0.5,0.8c-0.2,0.3-0.5,0.5-0.8,0.6c-0.7,0.3-1.5,0.1-2-0.4
		c-0.4-0.3-0.8-0.5-1.3-0.4c-0.3,0.1-0.5,0.2-0.7,0.4C345.5,305.3,345.2,305.4,344.9,305.6z"/>
	<path class="st9" d="M377.1,268.2c0.1-0.3,0.3-0.5,0.5-0.8c0.2-0.3,0.5-0.5,0.8-0.7c0.7-0.3,1.5-0.2,2,0.4c0.3,0.4,0.8,0.5,1.3,0.4
		c0.3-0.1,0.5-0.2,0.7-0.4c0.3-0.2,0.5-0.4,0.8-0.5c-0.2,0.3-0.3,0.5-0.5,0.8c-0.2,0.3-0.5,0.5-0.8,0.6c-0.7,0.3-1.5,0.1-2-0.4
		c-0.4-0.3-0.9-0.5-1.3-0.4c-0.3,0.1-0.5,0.2-0.7,0.4C377.6,267.9,377.4,268.1,377.1,268.2z"/>
	<path class="st9" d="M399.2,281.8c0.1-0.3,0.3-0.5,0.5-0.8c0.2-0.3,0.5-0.5,0.8-0.7c0.7-0.3,1.5-0.2,2,0.4c0.3,0.4,0.8,0.5,1.3,0.4
		c0.3-0.1,0.5-0.2,0.7-0.4c0.3-0.2,0.5-0.4,0.8-0.5c-0.1,0.3-0.3,0.5-0.5,0.8c-0.2,0.3-0.5,0.5-0.8,0.6c-0.7,0.3-1.5,0.1-2-0.4
		c-0.4-0.3-0.9-0.5-1.3-0.4c-0.3,0.1-0.5,0.2-0.7,0.4C399.7,281.4,399.5,281.6,399.2,281.8z"/>
	<path class="st9" d="M362,292.1c0.1-0.3,0.3-0.5,0.5-0.8c0.2-0.3,0.4-0.5,0.8-0.7c0.7-0.3,1.5-0.2,2,0.4c0.3,0.4,0.8,0.5,1.3,0.4
		c0.3-0.1,0.5-0.2,0.7-0.4c0.3-0.2,0.5-0.4,0.8-0.5c-0.2,0.3-0.3,0.5-0.5,0.8c-0.2,0.3-0.5,0.5-0.8,0.6c-0.7,0.3-1.5,0.1-2-0.4
		c-0.4-0.3-0.9-0.5-1.3-0.4c-0.3,0.1-0.5,0.2-0.7,0.4C362.5,291.7,362.3,291.9,362,292.1z"/>
	<path class="st9" d="M410,305.6c0.2-0.3,0.3-0.5,0.5-0.8c0.2-0.3,0.4-0.5,0.8-0.7c0.7-0.3,1.5-0.2,2,0.4c0.3,0.4,0.8,0.5,1.3,0.4
		c0.3-0.1,0.5-0.2,0.7-0.4c0.3-0.2,0.5-0.4,0.8-0.5c-0.1,0.3-0.3,0.5-0.5,0.8c-0.2,0.3-0.5,0.5-0.8,0.6c-0.7,0.3-1.5,0.1-2-0.4
		c-0.4-0.3-0.8-0.5-1.3-0.4c-0.3,0.1-0.5,0.2-0.7,0.4C410.5,305.3,410.3,305.4,410,305.6z"/>
	<path class="st9" d="M415.4,269c0.1-0.3,0.3-0.5,0.5-0.8c0.2-0.3,0.5-0.5,0.8-0.7c0.7-0.3,1.5-0.2,2,0.4c0.3,0.4,0.8,0.5,1.3,0.4
		c0.3-0.1,0.5-0.2,0.7-0.4c0.3-0.2,0.5-0.4,0.8-0.5c-0.1,0.3-0.3,0.5-0.5,0.8c-0.2,0.3-0.5,0.5-0.8,0.6c-0.7,0.3-1.5,0.1-2-0.4
		c-0.4-0.3-0.8-0.5-1.3-0.4c-0.3,0.1-0.5,0.2-0.7,0.4C415.9,268.7,415.7,268.9,415.4,269z"/>
	<path class="st9" d="M327.8,296.7c0.2-0.3,0.3-0.5,0.5-0.8c0.2-0.3,0.5-0.5,0.8-0.7c0.7-0.3,1.5-0.2,2,0.4c0.3,0.4,0.8,0.5,1.3,0.4
		c0.3-0.1,0.5-0.2,0.7-0.4c0.3-0.2,0.5-0.4,0.8-0.5c-0.1,0.3-0.3,0.5-0.5,0.8c-0.2,0.3-0.5,0.5-0.8,0.6c-0.7,0.3-1.5,0.1-2-0.4
		c-0.4-0.3-0.9-0.5-1.3-0.3c-0.3,0.1-0.5,0.2-0.7,0.4C328.3,296.4,328,296.6,327.8,296.7z"/>
	<path class="st9" d="M325,239.7c0.1-0.3,0.3-0.5,0.5-0.8c0.2-0.3,0.5-0.5,0.8-0.7c0.7-0.3,1.5-0.2,2,0.4c0.3,0.4,0.8,0.5,1.3,0.4
		c0.3-0.1,0.5-0.2,0.7-0.4c0.3-0.2,0.5-0.4,0.8-0.5c-0.2,0.3-0.3,0.5-0.5,0.8c-0.2,0.3-0.5,0.5-0.8,0.6c-0.7,0.3-1.5,0.1-2-0.4
		c-0.3-0.3-0.8-0.5-1.3-0.4c-0.3,0.1-0.5,0.2-0.7,0.4C325.5,239.3,325.3,239.5,325,239.7z"/>
	<path class="st6" d="M357.6,163.5c-0.4,1.9-8.8,14.2-17.3,14.1c-2.8-0.1-3.2-15.1-3.2-15.1l-0.3-1.1l-4-15.5l17.9-12.4l2.6-1.6
		c0,0,0.8,4.3,1.8,9.7c0,0.3,0.1,0.5,0.1,0.8s0.1,0.6,0.2,0.9c0.2,0.8,0.3,1.6,0.5,2.4c0.1,0.6,0.2,1.2,0.3,1.9s0.2,1.3,0.3,2
		C357.2,154.1,357.6,158.8,357.6,163.5z"/>
	<path class="st3" d="M355.2,141.5c-2.9,9-9.6,16.2-18.3,19.8l-4-15.5l17.9-12.4l2.6-1.6C353.4,131.8,354.2,136.1,355.2,141.5z"/>
	<path class="st6" d="M310.9,122.9c-0.7,28.1,16,31.7,22,31.8c5.5,0.1,24.2-0.1,27.9-27.9s-9.2-37-21.7-38S311.6,94.8,310.9,122.9z"
		/>
	<path class="st3" d="M315.1,114.4c0.7-0.1,1.2-0.3,1.9-0.5c0.7-0.1,1.3-0.4,1.8-0.9c0.3-0.4,0.2-0.9,0-1.2
		c-0.7-0.6-1.6-0.8-2.5-0.5c-0.9,0.2-1.7,0.7-2.2,1.4c-0.3,0.5-0.2,1.2,0.3,1.5C314.6,114.3,314.9,114.4,315.1,114.4z"/>
	<path class="st3" d="M333.9,118.5c-0.6-0.1-1.3-0.2-1.9-0.3c-0.7,0-1.3-0.3-1.9-0.7c-0.3-0.3-0.3-0.8-0.1-1.2
		c0.6-0.7,1.5-0.9,2.4-0.7c0.9,0.1,1.7,0.5,2.3,1.2c0.4,0.5,0.3,1.1-0.1,1.5C334.4,118.4,334.2,118.5,333.9,118.5z"/>
	<path class="st3" d="M319.3,123.5c0-0.1-0.1,0.1-0.1,0.2c0.2,1.9,0.1,4.1-1.6,4.9c-0.1,0,0,0.1,0,0.1
		C319.6,128.2,319.8,125.3,319.3,123.5z"/>
	<path class="st3" d="M317.4,121.6c-3.1,0-2.9,6.1,0,6.2S320,121.6,317.4,121.6z"/>
	<path class="st3" d="M316.2,122.1c-0.5,0.3-0.9,0.9-1.5,1s-1.2-0.6-1.6-1.2c0-0.1-0.1,0-0.1,0.1c0,1.2,0.4,2.4,1.6,2.6s1.8-0.9,2-2
		C316.5,122.3,316.4,121.9,316.2,122.1z"/>
	<path class="st3" d="M331.8,139.8c-0.5,0.4-1,1-1.6,1.1c-0.7,0-1.4-0.2-2-0.6c0,0-0.1,0-0.1,0c0,0,0,0,0,0.1
		c0.5,0.8,1.5,1.2,2.4,1.1c0.8-0.2,1.4-0.8,1.6-1.6C332,139.8,331.9,139.8,331.8,139.8z"/>
	<path class="st3" d="M322.3,132.2c0,0-0.2,2.9-0.1,4.2c2.6-0.1,5.2,0.1,7.8,0.7c0.6,0.2,0.6-0.3-0.1-0.7c-2-1.1-4.3-1.5-6.6-1.2
		c-0.1-0.4,0.4-4.4,0.2-4.4c-1,0.2-2,0.4-3,0.9c0.3-6,1.6-11.8,1.8-17.8c0-0.1-0.1-0.2-0.2-0.2c-0.1,0-0.2,0-0.2,0.1
		c-1.8,6.1-2.3,12.9-2.7,19.1C319,133.6,321.7,132.4,322.3,132.2z"/>
	<path class="st3" d="M335.6,123.6c-1.1-0.4-2.4-0.5-3.5-0.3c-0.6,0.1-1.2,0.4-1.8,0.8c-0.5,0.4-1,0.9-1.3,1.5l-0.6,1.1l1.2-0.1
		c0.9-0.1,1.7-0.1,2.6,0c0.9,0.1,1.7,0.4,2.5,0.9c-0.5-0.9-1.3-1.5-2.3-1.8c-0.9-0.3-1.9-0.4-2.9-0.3l0.6,1c0.5-0.9,1.3-1.5,2.3-1.9
		C333.4,124,334.5,123.7,335.6,123.6z"/>
	<path class="st3" d="M332.1,128.6c-0.9-0.2-1.8-0.5-2.6-1c-0.2-0.1-0.9-0.7-0.9-0.8c0.1-0.5,0.3-0.9,0.5-1.3
		c-0.3,0.4-0.6,0.8-0.8,1.3c0.1,0.5,0.5,1,0.9,1.3C330.2,128.4,331.2,128.6,332.1,128.6z"/>
	<path class="st3" d="M325.5,136.2c0,0,1.7,2.5,3.7,2.8c2.3,0.4,2.6-1.7,0-2.9C327.9,135.5,325.5,136.2,325.5,136.2z"/>
	<path class="st10" d="M329.2,139c-0.9-0.2-1.7-0.6-2.3-1.2c0.5-0.7,1.6-1.5,4-0.2C331.3,138.4,330.7,139.2,329.2,139z"/>
	<path class="st3" d="M360.5,127.4c-4.6,0.6-6.2-9.1-6.2-9.1s-9.4,0.5-13.2-12.9c0.5,4,2.1,7.9,4.7,11c0,0-16.7-1-24.4-14.5
		c0,0,3.1,6.9,5.9,9.3c0,0-7.1-1.6-10.7-7.1c0,0-2.5,8.2-4.6,10.5c0,0-0.7-29.1,26.4-27.3c0,0,16.9,0.3,23.6,13.4
		S360.5,127.4,360.5,127.4z"/>
	<path class="st6" d="M356.2,128.8c0,0,5.6-9.1,9.7-7.2s0.3,14.9-4.3,16.9c-2.3,1.2-5.2,0.3-6.4-2c0-0.1-0.1-0.1-0.1-0.2
		L356.2,128.8z"/>
	<path class="st3" d="M364.7,125.3c0.1,0,0.1,0.1,0,0.1c-3.2,1.5-4.7,4.6-5.7,7.9c0.9-1.3,2.2-2,3.9-1c0.1,0.1,0,0.2-0.1,0.2
		c-1.2-0.3-2.5,0.2-3.1,1.2c-0.6,0.8-1,1.7-1.4,2.7c-0.1,0.3-0.7,0.2-0.6-0.2c0,0,0-0.1,0-0.1C357.4,132,360.3,126,364.7,125.3z"/>
	<path class="st9" d="M359,137.1c0,0.7,0.7,1.3,1.4,1.2c0.7,0,1.3-0.7,1.2-1.4c0-0.7-0.7-1.3-1.4-1.2c0,0,0,0,0,0
		C359.5,135.7,359,136.3,359,137.1C359,137.1,359,137.1,359,137.1z"/>
	<path class="st9" d="M362.1,134.9c0,0.5,0.4,0.8,0.9,0.8c0.5,0,0.8-0.4,0.8-0.9c0-0.5-0.4-0.8-0.9-0.8c0,0,0,0,0,0
		C362.5,134,362.1,134.4,362.1,134.9C362.1,134.9,362.1,134.9,362.1,134.9z"/>
	
		<rect x="261.6" y="190.6" transform="matrix(0.9741 -0.2263 0.2263 0.9741 -41.3687 66.4441)" class="st2" width="14.9" height="46.2"/>
	<path class="st0" d="M235.7,70.1c-33.9,7.9-55,41.7-47.1,75.6s41.7,55,75.6,47.1c33.9-7.9,54.9-41.7,47.1-75.6
		C303.5,83.4,269.7,62.3,235.7,70.1C235.8,70.1,235.8,70.1,235.7,70.1z M261.3,180c-26.8,6.2-53.5-10.4-59.7-37.2
		c-6.2-26.8,10.4-53.5,37.2-59.7s53.5,10.4,59.7,37.2c0,0,0,0,0,0C304.7,147.1,288,173.8,261.3,180z"/>
	<path class="st3" d="M266.4,224l9.7-2.3c3.4-0.8,6.7,1.3,7.5,4.7l12.5,53.6c0.8,3.4-1.3,6.7-4.7,7.5l-9.7,2.3
		c-3.4,0.8-6.7-1.3-7.5-4.7l-12.5-53.6C260.9,228.1,263,224.8,266.4,224z"/>
	<g class="st11">
		<path class="st9" d="M298.5,120.3c6.2,26.8-10.5,53.5-37.2,59.7s-53.5-10.5-59.7-37.2c-6.2-26.8,10.5-53.5,37.2-59.7
			C265.5,76.8,292.2,93.5,298.5,120.3C298.5,120.2,298.5,120.3,298.5,120.3z"/>
		<path class="st2" d="M299.7,134.3c-1.5,27.3-24.7,48.2-52,46.9L299.7,134.3z"/>
		<path class="st2" d="M276.8,89.6l-71.2,64.3c-1.8-3.5-3.1-7.3-4-11.1c-1-4.4-1.5-8.9-1.2-13.5l52.6-47.5
			C261.4,82.3,269.6,85,276.8,89.6z"/>
		<path class="st2" d="M297.1,115.5l-67.9,61.2c-3-1.4-5.8-3-8.4-4.9l72.3-65.2C294.7,109.4,296.1,112.4,297.1,115.5z"/>
		<path class="st2" d="M282.3,93.7L209,159.8c-0.3-0.5-0.7-1-1-1.5l72.8-65.7C281.3,92.9,281.8,93.3,282.3,93.7z"/>
		<path class="st2" d="M236.3,83.7L203.8,113c0.6-1.4,1.2-2.8,1.9-4.1l26.4-23.9C233.5,84.6,234.9,84.1,236.3,83.7z"/>
	</g>
	<path class="st9" d="M214.7,140.1c0-0.1,0-0.1,0-0.2c-0.2-1,0.1,0.9,0,0.3s-0.2-1.5-0.3-2.3c-0.2-2.7-0.2-5.4,0-8.2
		c0-0.4,0.1-0.8,0.1-1.1c0-0.1-0.1,0.9,0,0.1l0.1-0.7c0.1-0.9,0.3-1.8,0.4-2.7c0.4-2,0.9-3.9,1.5-5.8c0.1-0.4,0.3-0.9,0.5-1.4
		c0.2-0.6-0.3,0.7,0.1-0.1l0.3-0.8c0.4-1,0.9-2,1.4-3s1.1-2.1,1.8-3.1c0.3-0.5,0.6-0.9,0.9-1.4c0.5-0.8-0.3,0.3,0.2-0.2l0.6-0.8
		c1.8-2.3,3.9-4.4,6.1-6.3c0,0,0.5-0.4,0.1-0.1s0.2-0.1,0.2-0.2l1-0.8c0.7-0.5,1.4-1,2.1-1.4c1.5-1,3-1.9,4.5-2.7
		c1.8-1.1,2.3-3.4,1.2-5.2c-1.1-1.8-3.4-2.3-5.2-1.2c-9.9,5.3-18,13.6-22.1,24.1c-2.8,7.1-3.9,14.6-3.4,22.2c0.1,1.7,0.3,3.3,0.6,5
		c0.6,2,2.7,3.1,4.7,2.5C214,144.1,215.1,142,214.7,140.1L214.7,140.1z"/>
	<path class="st9" d="M218,150.8c0.6,1.9-0.5,4-2.5,4.6c-1.9,0.6-4-0.5-4.6-2.5c-0.6-1.9,0.5-4,2.5-4.6
		C215.4,147.7,217.4,148.8,218,150.8C218,150.8,218,150.8,218,150.8z"/>
	<path class="st6" d="M377.1,182.3c9,32.5,13.3,65.2,8.3,82.1c-3.2,10.7-10.9,18-15.7,20.4c-11.4,5.6-49.3-2.4-73.9-7.3
		c-6.1-1.2,8.2-50,14.3-47.5c9,3.8,36.5,9,37.3,9.2c1.6,0.6,5-34.8,7.4-55.5C358.1,154.9,371.9,163.5,377.1,182.3z"/>
	<path class="st6" d="M248.4,220.7c-2.7,4.4,0.8,8.4,0.8,8.4c-2.3,1.1-4.1,3-5.1,5.4c-1.6,4.2,4.3,8.6,4.3,8.6
		c-2.1,1.7-3.7,4-4.5,6.5c-1.1,4.2,4.2,9.4,4.2,9.4c-1.1,2.6-1.2,5.5-0.3,8.2c2.6,7.1,14,9.4,21.2,11s29.1-0.8,33.3-0.8l10.4-46.1
		c0,0-30.3-16.1-39-16.8C266.2,214,251.4,215.8,248.4,220.7z"/>
	<path class="st3" d="M249.7,228.4c8-1.3,15.9-0.2,23.8,0.4c0.1,0,0.1,0.1,0.1,0.1c0,0.1-0.1,0.1-0.1,0.1
		c-7.9-0.7-15.9,0.1-23.8-0.3c-0.1,0-0.2-0.1-0.2-0.2C249.6,228.5,249.6,228.4,249.7,228.4z"/>
	<path class="st3" d="M248.7,242.4c1.8-0.1,3.7,0,5.5,0.4c1.9,0.3,3.9,0.5,5.8,0.9c3.8,0.7,7.7,1.4,11.5,2.2c0.2,0,0.2,0.3,0,0.3
		c-3.8-0.6-7.7-1.2-11.5-1.7c-1.9-0.2-3.9-0.5-5.8-0.7c-1.8-0.1-3.7-0.4-5.4-0.8c-0.1-0.1-0.2-0.2-0.2-0.4
		C248.5,242.5,248.6,242.5,248.7,242.4z"/>
	<path class="st3" d="M248.2,259c1.6-0.3,3.4,0.3,4.9,0.6c1.8,0.3,3.5,0.6,5.2,1c3.5,0.6,7,1.2,10.5,1.7c0.2,0,0.1,0.3,0,0.3
		c-3.6-0.5-7.2-0.9-10.7-1.4c-1.8-0.3-3.5-0.5-5.3-0.8c-1.5-0.2-3.4-0.4-4.7-1.1C248.2,259.2,248.1,259.1,248.2,259
		C248.2,259,248.2,259,248.2,259z"/>
	<path class="st3" d="M258.3,215.9c-3.6,0.5-7.8,1.3-10.1,4.4c-1.1,1.3-1.6,3-1.5,4.7c0.2,1.6,1,3,2.2,4l0,0c-3,1-5.1,3.5-5.5,6.6
		c-0.1,1.5,0.4,3,1.4,4.2c0.5,0.6,1.1,1.1,1.6,1.6s1.2,1,1.7,1.5c-0.6,0.5-1.2,1-1.7,1.6c-0.6,0.6-1.1,1.2-1.6,1.9
		c-1,1.4-1.5,3-1.6,4.6c0.1,1.7,0.7,3.3,1.7,4.6c0.8,1.4,2,2.5,3.3,3.3c0,0,0.1,0,0.1,0c0,0,0-0.1,0-0.1c-1.1-1-2-2.1-2.7-3.4
		c-0.9-1.4-1.3-2.9-1.4-4.5c0.1-1.5,0.6-3,1.5-4.3c0.4-0.7,0.9-1.4,1.4-2c0.5-0.5,1-1.1,1.4-1.7c0,0-1.2-1.3-1.6-1.8
		s-0.8-1.1-1.2-1.7c-0.8-1.1-1.2-2.5-1-3.9c0.2-1.3,0.8-2.5,1.7-3.4c0.8-1,1.9-1.8,2.8-2.8c0.1-0.1,0.1-0.2,0.1-0.4
		c-2-3.1-1.8-6.1,0.4-8.4c1.1-1.1,2.4-2,3.8-2.7c1.6-0.7,3.3-1.3,5-1.8C258.5,216.1,258.4,215.9,258.3,215.9z"/>
	<path class="st3" d="M324.6,283.1c-2.1-0.7-4.4-1-6.6-1.5s-4.4-0.9-6.6-1.4s-4.5-0.9-6.7-1.3s-4.3-0.9-6.5-1.1
		c-2.1-0.2-4.2-0.2-6.3,0.1c-2.1,0.2-4.2,0.4-6.4,0.5c-4.3,0.2-8.6,0.1-12.9-0.3c-4.8-0.4-9.6-1.3-14.3-2.5c-0.1,0-0.1,0.1,0,0.1
		c8.1,2.7,16.7,4.1,25.2,4c2.1,0,4.3-0.1,6.4-0.3c2.1-0.3,4.2-0.5,6.4-0.5c2.3,0.1,4.5,0.5,6.7,1c2.2,0.4,4.4,0.8,6.6,1.2
		c2.5,0.4,5,0.9,7.5,1.3s5,1,7.5,1.1C324.8,283.5,324.8,283.1,324.6,283.1z"/>
	<path class="st3" d="M355.7,241.2c-3.2-1.1-6.6-1.8-9.9-2.6s-6.6-1.5-9.9-2.3c-6.3-1.4-12.7-2.6-19-4.4c-1.6-0.5-3.3-1-4.9-1.5
		c-0.8-0.3-1.6-0.6-2.4-1s-1.7-0.6-2.5-1c-0.1-0.1-0.2,0.1-0.1,0.1c0.6,0.4,1.2,0.9,1.9,1.2s1.4,0.8,2.2,1.1
		c1.4,0.6,2.7,1.2,4.1,1.6c2.9,1,6,1.7,9,2.4c6.6,1.5,13.2,3,19.8,4.4c1.9,0.4,3.7,0.8,5.6,1.2s3.9,0.8,5.9,1c0.1,0,0.2,0,0.2-0.1
		C355.8,241.3,355.8,241.2,355.7,241.2z"/>
	<path class="st7" d="M345.3,229.1l45.7,6.2c0,0-8.4-47.5-17.3-63.3c-8.8-15.5-18.5-5.3-22.1,13.5
		C347.5,206.4,345.3,229.1,345.3,229.1z"/>
	<path class="st3" d="M387.6,228.4c-1.3-0.3-2.6-0.5-3.9-0.8s-2.5-0.5-3.8-0.7c-2.6-0.4-5.1-0.8-7.7-1.1c-5.1-0.7-10.1-1.5-15.3-2
		c-2.9-0.3-5.8-0.8-8.7-1c0,0-0.1,0-0.1,0.1c0,0,0,0.1,0.1,0.1c5,1.2,10.2,2.1,15.3,2.9s10.2,1.6,15.3,2.2c1.4,0.1,2.9,0.3,4.3,0.4
		s3,0.2,4.4,0.2c0.1,0,0.2-0.1,0.2-0.2C387.7,228.5,387.7,228.4,387.6,228.4z"/>
	<path class="st9" d="M412.6,55.9c-1.7,16.8-16.8,28.9-33.5,27.2c-6.5-0.7-12.6-3.4-17.5-7.9l-15.3,2.3l7.6-13.2
		c-6.4-15.6,1.1-33.4,16.7-39.8s33.4,1.1,39.8,16.7C412.5,45.8,413.2,50.9,412.6,55.9L412.6,55.9z"/>
	<path class="st3" d="M412.6,55.9c-0.6,5.6-2.7,11-6.2,15.5c-1.7,2.3-3.7,4.3-6,5.9c-4.5,3.4-9.9,5.5-15.6,6.1
		c-1.4,0.1-2.8,0.2-4.2,0.1c-1.4,0-2.8-0.2-4.2-0.4c-5.6-1-10.9-3.6-15.1-7.4l0.4,0.1L346.4,78l-1.1,0.2l0.6-1l7.6-13.2v0.5
		c-6.4-15.8,1.2-33.8,17-40.3c6.8-2.8,14.3-3,21.3-0.7c4.4,1.5,8.4,4,11.8,7.2C410.3,37.2,413.6,46.6,412.6,55.9z M412.6,55.9
		c1.7-16.6-10.3-31.4-26.9-33.2c-2.6-0.3-5.2-0.2-7.7,0.2c-4.5,0.7-8.8,2.4-12.6,5c-3.7,2.6-6.9,6-9.1,10c-2.3,4-3.6,8.4-3.9,12.9
		c-0.3,4.5,0.5,9.1,2.1,13.3l0.1,0.3l-0.1,0.3l-7.7,13.2l-0.5-0.8l15.3-2.1h0.2l0.1,0.1c4.1,3.8,9.1,6.4,14.6,7.5
		c1.4,0.3,2.7,0.5,4.1,0.5c1.4,0.1,2.8,0.1,4.2,0c2.8-0.2,5.5-0.8,8.1-1.8c2.6-1,5.1-2.3,7.4-4c1.1-0.8,2.2-1.7,3.2-2.7
		c1-1,1.9-2,2.8-3.1C409.9,66.9,412,61.6,412.6,55.9z"/>
	<path class="st4" d="M367.3,67c-0.1-1.7,1.2-3.1,2.9-3.1c0,0,0.1,0,0.1,0c1.7,0,3.1,1.4,3.1,3.1c0,1.7-1.4,3.1-3.1,3.1
		c-1.7,0-3-1.3-3-3C367.3,67.1,367.3,67.1,367.3,67z M368.6,59.8l-0.7-24.3h4.9L372,59.7L368.6,59.8z"/>
	<path class="st4" d="M379,67c-0.1-1.7,1.2-3.1,2.9-3.1c0,0,0.1,0,0.1,0c1.7,0,3.1,1.4,3.1,3.1c0,1.7-1.4,3.1-3.1,3.1
		c-1.7,0-3-1.3-3-3C379,67.1,379,67.1,379,67z M380.3,59.8l-0.7-24.3h4.9l-0.7,24.3H380.3z"/>
	<path class="st4" d="M390.6,67c-0.1-1.7,1.2-3.1,2.9-3.1c0,0,0.1,0,0.1,0c1.7,0,3.1,1.4,3.1,3.1c0,1.7-1.4,3.1-3.1,3.1
		c-1.7,0-3-1.3-3-3C390.6,67.1,390.6,67.1,390.6,67z M391.9,59.8l-0.7-24.3h4.9l-0.7,24.3H391.9z"/>
</g>
</svg>
