<svg width="40" height="40" viewBox="0 0 40 40" fill="none" xmlns="http://www.w3.org/2000/svg">
<g id="notifications">
<mask id="mask0_80_1833" style="mask-type:alpha" maskUnits="userSpaceOnUse" x="0" y="0" width="40" height="40">
<rect id="Bounding box" width="40" height="40" fill="#D9D9D9"/>
</mask>
<g mask="url(#mask0_80_1833)">
<path id="notifications_2" d="M6.66663 31.6666V28.3333H9.99996V16.6666C9.99996 14.361 10.6944 12.3124 12.0833 10.5208C13.4722 8.72909 15.2777 7.55547 17.5 6.99992V5.83325C17.5 5.13881 17.743 4.54853 18.2291 4.06242C18.7152 3.57631 19.3055 3.33325 20 3.33325C20.6944 3.33325 21.2847 3.57631 21.7708 4.06242C22.2569 4.54853 22.5 5.13881 22.5 5.83325V6.99992C24.7222 7.55547 26.5277 8.72909 27.9166 10.5208C29.3055 12.3124 30 14.361 30 16.6666V28.3333H33.3333V31.6666H6.66663ZM20 36.6666C19.0833 36.6666 18.2986 36.3402 17.6458 35.6874C16.993 35.0346 16.6666 34.2499 16.6666 33.3333H23.3333C23.3333 34.2499 23.0069 35.0346 22.3541 35.6874C21.7013 36.3402 20.9166 36.6666 20 36.6666Z" fill="#455A64"/>
</g>
</g>
</svg>
