<svg width="50" height="50" viewBox="0 0 50 50" fill="none" xmlns="http://www.w3.org/2000/svg">
<path id="icon" fill-rule="evenodd" clip-rule="evenodd" d="M25 0C11.2 0 0 11.2 0 25C0 38.8 11.2 50 25 50C38.8 50 50 38.8 50 25C50 11.2 38.8 0 25 0ZM40.9 37.075C37.325 32.725 28.65 31.25 25 31.25C21.35 31.25 12.675 32.725 9.1 37.075C6.55 33.725 5 29.55 5 25C5 13.975 13.975 5 25 5C36.025 5 45 13.975 45 25C45 29.55 43.45 33.725 40.9 37.075ZM16.25 18.75C16.25 13.9 20.15 10 25 10C29.85 10 33.75 13.9 33.75 18.75C33.75 23.6 29.85 27.5 25 27.5C20.15 27.5 16.25 23.6 16.25 18.75Z" fill="#455A64"/>
</svg>
